{"glyphs":{"0":{"ha":833,"x_min":74,"x_max":760,"o":"m 417 -12 q 161 117 249 -12 q 74 490 74 246 q 113 766 74 654 q 228 935 151 878 q 417 992 306 992 q 673 865 586 992 q 760 492 760 738 q 721 215 760 328 q 606 45 682 103 q 417 -12 529 -12 m 417 86 q 590 185 533 86 q 646 492 646 285 q 590 797 646 700 q 417 893 533 893 q 244 796 301 893 q 188 492 188 699 q 244 185 188 285 q 417 86 301 86 z "},"1":{"ha":833,"x_min":163,"x_max":729,"o":"m 215 0 q 176 13 190 0 q 163 50 163 26 q 176 85 163 74 q 215 97 190 97 l 396 97 l 396 885 l 456 885 l 254 751 q 220 743 236 742 q 194 755 204 744 q 179 780 183 765 q 181 810 175 794 q 204 838 186 826 l 396 964 q 431 982 414 975 q 464 989 447 989 q 497 977 483 989 q 510 940 510 965 l 510 97 l 676 97 q 715 85 701 97 q 729 50 729 74 q 715 13 729 25 q 676 0 701 0 l 215 0 z "},"2":{"ha":833,"x_min":92,"x_max":758,"o":"m 179 0 q 134 15 149 0 q 119 54 119 29 q 127 84 119 69 q 149 114 135 99 l 460 447 q 562 588 531 524 q 593 719 593 653 q 542 847 593 803 q 394 890 492 890 q 276 871 332 890 q 169 811 221 851 q 137 799 151 797 q 111 810 122 800 q 96 835 100 819 q 97 865 92 850 q 118 893 101 881 q 249 965 172 938 q 404 992 325 992 q 571 961 503 992 q 674 872 639 931 q 708 728 708 813 q 690 613 708 669 q 633 499 671 557 q 533 378 594 440 l 238 65 l 238 97 l 706 97 q 745 85 732 97 q 758 50 758 74 q 745 13 758 25 q 706 0 732 0 l 179 0 z "},"3":{"ha":833,"x_min":74,"x_max":735,"o":"m 406 -12 q 244 11 325 -12 q 103 81 163 35 q 79 109 85 93 q 77 140 74 125 q 92 165 81 154 q 119 176 103 175 q 154 165 135 178 q 276 107 215 125 q 403 89 338 89 q 522 110 474 89 q 596 172 571 131 q 621 272 621 213 q 564 403 621 358 q 399 447 507 447 l 300 447 q 260 460 274 447 q 246 497 246 474 q 260 533 246 519 q 300 546 274 546 l 389 546 q 498 568 453 546 q 568 631 543 590 q 593 731 593 672 q 543 849 593 808 q 399 890 493 890 q 281 872 336 890 q 171 811 225 854 q 138 799 154 799 q 112 809 122 800 q 97 833 101 818 q 97 865 92 849 q 121 894 103 881 q 251 967 176 942 q 406 992 326 992 q 567 962 500 992 q 671 876 635 932 q 707 740 707 819 q 684 631 707 681 q 620 547 661 582 q 521 497 579 513 l 521 513 q 678 430 622 496 q 735 264 735 364 q 695 117 735 179 q 582 22 656 56 q 406 -12 508 -12 z "},"4":{"ha":833,"x_min":65,"x_max":794,"o":"m 581 -10 q 539 6 554 -10 q 524 49 524 21 l 524 210 l 125 210 q 81 223 97 210 q 65 261 65 236 q 72 292 65 276 q 97 333 79 308 l 521 950 q 549 979 533 969 q 585 989 564 989 q 623 975 607 989 q 639 931 639 961 l 639 307 l 740 307 q 781 294 767 307 q 794 258 794 282 q 781 222 794 235 q 740 210 767 210 l 639 210 l 639 49 q 624 6 639 21 q 581 -10 608 -10 m 524 307 l 524 846 l 557 846 l 168 276 l 168 307 l 524 307 z "},"5":{"ha":833,"x_min":110,"x_max":768,"o":"m 438 -12 q 280 11 358 -12 q 138 85 201 35 q 115 111 121 96 q 114 142 110 126 q 129 167 118 157 q 156 179 140 178 q 190 168 172 181 q 308 108 247 128 q 436 89 369 89 q 553 115 504 89 q 628 187 603 140 q 654 296 654 233 q 599 453 654 392 q 446 514 543 514 q 336 492 386 514 q 244 421 286 469 q 222 402 235 410 q 192 394 208 394 q 155 408 168 394 q 142 443 142 421 l 142 926 q 156 966 142 953 q 194 979 169 979 l 667 979 q 706 967 693 979 q 719 931 719 954 q 706 894 719 907 q 667 882 693 882 l 254 882 l 254 492 l 224 492 q 324 581 260 550 q 467 613 388 613 q 627 574 560 613 q 731 465 694 535 q 768 301 768 394 q 728 139 768 210 q 614 28 688 68 q 438 -12 540 -12 z "},"6":{"ha":833,"x_min":89,"x_max":761,"o":"m 450 -12 q 253 44 335 -12 q 131 207 172 100 q 89 465 89 314 q 115 690 89 593 q 193 855 142 788 q 318 957 244 922 q 485 992 392 992 q 616 967 549 992 q 735 896 683 942 q 753 869 750 885 q 753 838 757 853 q 738 814 749 824 q 713 803 728 804 q 681 815 697 803 q 583 873 633 856 q 482 890 533 890 q 328 846 392 890 q 233 712 265 801 q 200 488 200 622 l 200 358 l 188 358 q 234 495 196 438 q 332 583 272 553 q 467 614 392 614 q 619 575 553 614 q 724 466 686 536 q 761 306 761 396 q 722 142 761 214 q 613 28 683 69 q 450 -12 542 -12 m 443 85 q 551 112 504 85 q 625 188 599 139 q 651 301 651 238 q 625 414 651 365 q 551 490 599 463 q 443 518 504 518 q 335 490 382 518 q 261 414 288 463 q 235 301 235 365 q 261 188 235 238 q 335 112 288 139 q 443 85 382 85 z "},"7":{"ha":833,"x_min":83,"x_max":743,"o":"m 233 -10 q 200 0 214 -10 q 183 27 186 10 q 190 65 179 44 l 636 931 l 636 881 l 136 881 q 97 894 111 881 q 83 931 83 907 q 97 967 83 954 q 136 979 111 979 l 688 979 q 728 967 713 979 q 743 931 743 954 q 738 897 743 911 q 725 864 733 882 l 297 29 q 272 0 288 10 q 233 -10 257 -10 z "},"8":{"ha":833,"x_min":68,"x_max":765,"o":"m 417 -12 q 228 19 307 -12 q 109 113 150 51 q 68 260 68 174 q 96 381 68 328 q 174 468 124 435 q 289 510 224 501 l 289 489 q 145 574 199 508 q 92 731 92 640 q 131 872 92 814 q 244 960 171 929 q 417 992 318 992 q 590 960 517 992 q 703 872 663 929 q 743 731 743 814 q 719 620 743 671 q 650 536 694 569 q 546 490 606 503 l 546 510 q 705 428 644 496 q 765 260 765 361 q 724 113 765 174 q 605 19 683 51 q 417 -12 526 -12 m 417 82 q 595 128 535 82 q 656 267 656 174 q 595 403 656 358 q 417 449 535 449 q 239 403 300 449 q 178 267 178 358 q 239 128 178 174 q 417 82 300 82 m 417 543 q 533 565 485 543 q 607 626 581 586 q 633 721 633 667 q 576 851 633 804 q 417 897 518 897 q 258 851 315 897 q 201 721 201 804 q 258 590 201 638 q 417 543 315 543 z "},"9":{"ha":833,"x_min":72,"x_max":744,"o":"m 349 -12 q 218 13 286 -12 q 99 85 150 38 q 80 111 83 96 q 81 141 76 126 q 95 166 85 156 q 121 177 106 176 q 153 165 136 178 q 250 107 200 125 q 351 89 300 89 q 505 133 442 89 q 601 268 568 178 q 633 492 633 358 l 633 621 l 646 621 q 599 485 638 543 q 501 396 561 426 q 367 365 442 365 q 214 404 281 365 q 110 514 147 443 q 72 674 72 585 q 112 838 72 767 q 222 951 151 910 q 383 992 292 992 q 580 935 499 992 q 703 772 661 879 q 744 514 744 665 q 718 289 744 386 q 640 124 692 192 q 515 22 589 57 q 349 -12 442 -12 m 390 461 q 500 489 453 461 q 574 566 547 517 q 600 679 600 615 q 574 792 600 743 q 500 868 547 840 q 390 896 453 896 q 283 868 329 896 q 209 792 236 840 q 182 679 182 743 q 209 566 182 615 q 283 489 236 517 q 390 461 329 461 z "},"A":{"ha":1013,"x_min":47,"x_max":968,"o":"m 100 -10 q 65 1 78 -10 q 49 28 51 11 q 57 68 47 46 l 439 938 q 469 977 451 965 q 507 989 486 989 q 545 977 528 989 q 574 938 563 965 l 957 68 q 966 28 968 46 q 951 0 964 10 q 917 -10 939 -10 q 876 3 892 -10 q 851 42 861 17 l 749 279 l 804 250 l 207 250 l 264 279 l 163 42 q 136 3 150 15 q 100 -10 122 -10 m 506 846 l 282 319 l 249 346 l 763 346 l 732 319 l 508 846 l 506 846 z "},"Á":{"ha":1013,"x_min":47,"x_max":968,"o":"m 100 -10 q 65 1 78 -10 q 49 28 51 11 q 57 68 47 46 l 439 938 q 469 977 451 965 q 507 989 486 989 q 545 977 528 989 q 574 938 563 965 l 957 68 q 966 28 968 46 q 951 0 964 10 q 917 -10 939 -10 q 876 3 892 -10 q 851 42 861 17 l 749 279 l 804 250 l 207 250 l 264 279 l 163 42 q 136 3 150 15 q 100 -10 122 -10 m 506 846 l 282 319 l 249 346 l 763 346 l 732 319 l 508 846 l 506 846 m 557 1068 q 531 1055 546 1056 q 506 1062 517 1054 q 491 1082 494 1069 q 497 1110 488 1094 l 621 1289 q 649 1311 633 1307 q 679 1310 664 1315 q 703 1294 694 1306 q 713 1269 713 1283 q 701 1239 714 1254 l 557 1068 z "},"Ă":{"ha":1013,"x_min":47,"x_max":968,"o":"m 100 -10 q 65 1 78 -10 q 49 28 51 11 q 57 68 47 46 l 439 938 q 469 977 451 965 q 507 989 486 989 q 545 977 528 989 q 574 938 563 965 l 957 68 q 966 28 968 46 q 951 0 964 10 q 917 -10 939 -10 q 876 3 892 -10 q 851 42 861 17 l 749 279 l 804 250 l 207 250 l 264 279 l 163 42 q 136 3 150 15 q 100 -10 122 -10 m 506 846 l 282 319 l 249 346 l 763 346 l 732 319 l 508 846 l 506 846 m 508 1056 q 363 1105 426 1056 q 278 1256 300 1154 q 283 1288 274 1275 q 308 1300 293 1300 q 328 1297 319 1301 q 342 1286 338 1293 q 349 1269 347 1279 q 410 1162 364 1193 q 508 1131 456 1131 q 608 1162 563 1131 q 668 1269 654 1193 q 674 1286 669 1279 q 688 1297 679 1293 q 708 1300 697 1301 q 733 1288 724 1300 q 739 1256 743 1275 q 654 1105 718 1154 q 508 1056 590 1056 z "},"Ắ":{"ha":1013,"x_min":47,"x_max":968,"o":"m 100 -10 q 65 1 78 -10 q 49 28 51 11 q 57 68 47 46 l 439 938 q 469 977 451 965 q 507 989 486 989 q 545 977 528 989 q 574 938 563 965 l 957 68 q 966 28 968 46 q 951 0 964 10 q 917 -10 939 -10 q 876 3 892 -10 q 851 42 861 17 l 749 279 l 804 250 l 207 250 l 264 279 l 163 42 q 136 3 150 15 q 100 -10 122 -10 m 506 846 l 282 319 l 249 346 l 763 346 l 732 319 l 508 846 l 506 846 m 508 1056 q 367 1103 424 1056 q 296 1231 311 1150 q 301 1263 293 1251 q 322 1276 308 1275 q 347 1271 338 1278 q 360 1244 356 1264 q 410 1159 372 1190 q 508 1128 447 1128 q 607 1159 569 1128 q 657 1244 644 1190 q 671 1271 661 1264 q 696 1276 681 1278 q 717 1263 710 1275 q 721 1229 725 1250 q 683 1138 711 1176 q 610 1077 654 1099 q 508 1056 565 1056 m 538 1213 q 515 1199 528 1200 q 490 1204 501 1197 q 476 1223 479 1211 q 482 1250 472 1235 l 576 1403 q 601 1427 586 1422 q 631 1428 617 1432 q 656 1413 646 1424 q 666 1387 665 1401 q 654 1357 667 1372 l 538 1213 z "},"Ặ":{"ha":1013,"x_min":47,"x_max":968,"o":"m 100 -10 q 65 1 78 -10 q 49 28 51 11 q 57 68 47 46 l 439 938 q 469 977 451 965 q 507 989 486 989 q 545 977 528 989 q 574 938 563 965 l 957 68 q 966 28 968 46 q 951 0 964 10 q 917 -10 939 -10 q 876 3 892 -10 q 851 42 861 17 l 749 279 l 804 250 l 207 250 l 264 279 l 163 42 q 136 3 150 15 q 100 -10 122 -10 m 506 846 l 282 319 l 249 346 l 763 346 l 732 319 l 508 846 l 506 846 m 508 -265 q 458 -247 476 -265 q 440 -199 440 -229 q 458 -150 440 -167 q 508 -133 476 -133 q 560 -150 542 -133 q 578 -199 578 -167 q 560 -247 578 -229 q 508 -265 542 -265 m 508 1056 q 363 1105 426 1056 q 278 1256 300 1154 q 283 1288 274 1275 q 308 1300 293 1300 q 328 1297 319 1301 q 342 1286 338 1293 q 349 1269 347 1279 q 410 1162 364 1193 q 508 1131 456 1131 q 608 1162 563 1131 q 668 1269 654 1193 q 674 1286 669 1279 q 688 1297 679 1293 q 708 1300 697 1301 q 733 1288 724 1300 q 739 1256 743 1275 q 654 1105 718 1154 q 508 1056 590 1056 z "},"Ằ":{"ha":1013,"x_min":47,"x_max":968,"o":"m 100 -10 q 65 1 78 -10 q 49 28 51 11 q 57 68 47 46 l 439 938 q 469 977 451 965 q 507 989 486 989 q 545 977 528 989 q 574 938 563 965 l 957 68 q 966 28 968 46 q 951 0 964 10 q 917 -10 939 -10 q 876 3 892 -10 q 851 42 861 17 l 749 279 l 804 250 l 207 250 l 264 279 l 163 42 q 136 3 150 15 q 100 -10 122 -10 m 506 846 l 282 319 l 249 346 l 763 346 l 732 319 l 508 846 l 506 846 m 508 1056 q 367 1103 424 1056 q 296 1229 311 1150 q 300 1263 293 1250 q 321 1276 307 1275 q 346 1271 336 1278 q 360 1244 356 1264 q 410 1159 372 1190 q 508 1128 447 1128 q 607 1159 569 1128 q 657 1244 644 1190 q 671 1271 661 1264 q 694 1276 681 1278 q 717 1263 710 1275 q 721 1231 725 1251 q 683 1138 711 1178 q 610 1077 654 1099 q 508 1056 565 1056 m 479 1213 l 363 1357 q 351 1387 350 1372 q 361 1413 351 1401 q 385 1428 371 1424 q 415 1427 400 1432 q 440 1403 431 1422 l 535 1250 q 541 1223 544 1235 q 526 1204 538 1211 q 502 1199 515 1197 q 479 1213 489 1200 z "},"Ẳ":{"ha":1013,"x_min":47,"x_max":968,"o":"m 100 -10 q 65 1 78 -10 q 49 28 51 11 q 57 68 47 46 l 439 938 q 469 977 451 965 q 507 989 486 989 q 545 977 528 989 q 574 938 563 965 l 957 68 q 966 28 968 46 q 951 0 964 10 q 917 -10 939 -10 q 876 3 892 -10 q 851 42 861 17 l 749 279 l 804 250 l 207 250 l 264 279 l 163 42 q 136 3 150 15 q 100 -10 122 -10 m 506 846 l 282 319 l 249 346 l 763 346 l 732 319 l 508 846 l 506 846 m 508 1056 q 367 1103 424 1056 q 296 1229 311 1150 q 300 1263 293 1250 q 321 1276 307 1275 q 346 1271 336 1278 q 360 1244 356 1264 q 410 1159 372 1190 q 508 1128 447 1128 q 607 1159 569 1128 q 657 1244 644 1190 q 671 1271 661 1264 q 694 1276 681 1278 q 717 1263 710 1275 q 721 1231 725 1251 q 683 1138 711 1178 q 610 1077 654 1099 q 508 1056 565 1056 m 532 1208 q 507 1204 519 1203 q 488 1212 494 1206 q 481 1227 481 1218 q 494 1244 482 1236 q 541 1283 526 1265 q 556 1324 556 1301 q 541 1353 556 1344 q 494 1363 526 1363 q 468 1361 482 1363 q 439 1356 454 1360 q 412 1356 422 1351 q 397 1371 401 1360 q 399 1394 393 1385 q 421 1410 404 1403 q 467 1419 443 1417 q 514 1422 490 1422 q 606 1403 574 1422 q 639 1342 639 1383 q 624 1288 639 1313 q 584 1243 608 1263 q 532 1208 560 1224 z "},"Ẵ":{"ha":1013,"x_min":47,"x_max":968,"o":"m 100 -10 q 65 1 78 -10 q 49 28 51 11 q 57 68 47 46 l 439 938 q 469 977 451 965 q 507 989 486 989 q 545 977 528 989 q 574 938 563 965 l 957 68 q 966 28 968 46 q 951 0 964 10 q 917 -10 939 -10 q 876 3 892 -10 q 851 42 861 17 l 749 279 l 804 250 l 207 250 l 264 279 l 163 42 q 136 3 150 15 q 100 -10 122 -10 m 506 846 l 282 319 l 249 346 l 763 346 l 732 319 l 508 846 l 506 846 m 508 1056 q 381 1089 435 1056 q 304 1174 328 1122 q 301 1205 296 1193 q 321 1221 307 1217 q 347 1219 338 1224 q 365 1200 357 1214 q 420 1147 383 1167 q 508 1128 457 1128 q 597 1147 561 1128 q 651 1200 633 1167 q 669 1219 660 1214 q 696 1221 679 1224 q 716 1205 710 1217 q 713 1174 722 1193 q 636 1089 689 1122 q 508 1056 583 1056 m 321 1276 q 299 1289 307 1278 q 296 1319 292 1300 q 340 1397 308 1371 q 419 1422 372 1422 q 486 1403 457 1422 q 542 1367 515 1385 q 596 1349 568 1349 q 636 1359 619 1349 q 658 1394 653 1369 q 672 1417 663 1410 q 697 1424 682 1425 q 719 1412 711 1422 q 722 1382 726 1401 q 677 1305 710 1331 q 599 1279 644 1279 q 531 1297 561 1279 q 476 1333 501 1315 q 421 1351 450 1351 q 381 1341 397 1351 q 358 1306 365 1331 q 345 1283 354 1292 q 321 1276 336 1275 z "},"Ǎ":{"ha":1013,"x_min":47,"x_max":968,"o":"m 100 -10 q 65 1 78 -10 q 49 28 51 11 q 57 68 47 46 l 439 938 q 469 977 451 965 q 507 989 486 989 q 545 977 528 989 q 574 938 563 965 l 957 68 q 966 28 968 46 q 951 0 964 10 q 917 -10 939 -10 q 876 3 892 -10 q 851 42 861 17 l 749 279 l 804 250 l 207 250 l 264 279 l 163 42 q 136 3 150 15 q 100 -10 122 -10 m 506 846 l 282 319 l 249 346 l 763 346 l 732 319 l 508 846 l 506 846 m 508 1050 q 469 1059 488 1050 q 438 1088 451 1068 l 315 1260 q 308 1287 306 1274 q 322 1307 311 1300 q 348 1312 333 1314 q 375 1296 363 1310 l 508 1136 l 643 1296 q 669 1312 654 1310 q 694 1307 683 1314 q 708 1287 706 1300 q 701 1260 711 1274 l 581 1088 q 548 1059 565 1068 q 508 1050 531 1050 z "},"Â":{"ha":1013,"x_min":47,"x_max":968,"o":"m 100 -10 q 65 1 78 -10 q 49 28 51 11 q 57 68 47 46 l 439 938 q 469 977 451 965 q 507 989 486 989 q 545 977 528 989 q 574 938 563 965 l 957 68 q 966 28 968 46 q 951 0 964 10 q 917 -10 939 -10 q 876 3 892 -10 q 851 42 861 17 l 749 279 l 804 250 l 207 250 l 264 279 l 163 42 q 136 3 150 15 q 100 -10 122 -10 m 506 846 l 282 319 l 249 346 l 763 346 l 732 319 l 508 846 l 506 846 m 375 1067 q 348 1053 363 1054 q 322 1058 333 1051 q 308 1078 311 1065 q 315 1104 306 1090 l 438 1275 q 469 1305 451 1296 q 508 1314 488 1314 q 548 1305 531 1314 q 581 1275 565 1296 l 701 1104 q 710 1078 713 1090 q 695 1058 707 1065 q 669 1053 683 1051 q 643 1067 654 1054 l 508 1228 l 375 1067 z "},"Ấ":{"ha":1013,"x_min":47,"x_max":968,"o":"m 100 -10 q 65 1 78 -10 q 49 28 51 11 q 57 68 47 46 l 439 938 q 469 977 451 965 q 507 989 486 989 q 545 977 528 989 q 574 938 563 965 l 957 68 q 966 28 968 46 q 951 0 964 10 q 917 -10 939 -10 q 876 3 892 -10 q 851 42 861 17 l 749 279 l 804 250 l 207 250 l 264 279 l 163 42 q 136 3 150 15 q 100 -10 122 -10 m 506 846 l 282 319 l 249 346 l 763 346 l 732 319 l 508 846 l 506 846 m 385 1067 q 359 1052 372 1054 q 336 1056 346 1050 q 324 1076 326 1063 q 331 1103 321 1089 l 439 1263 q 470 1293 453 1285 q 508 1301 488 1301 q 535 1298 522 1301 q 558 1286 547 1294 q 578 1263 569 1278 l 686 1103 q 694 1076 696 1089 q 682 1056 692 1063 q 658 1052 672 1050 q 632 1067 644 1054 l 508 1215 l 385 1067 m 707 1200 q 685 1188 697 1189 q 664 1192 674 1186 q 651 1210 654 1199 q 657 1238 649 1222 l 753 1403 q 776 1426 763 1421 q 803 1427 790 1431 q 826 1414 817 1424 q 835 1390 835 1404 q 825 1361 836 1375 l 707 1200 z "},"Ậ":{"ha":1013,"x_min":47,"x_max":968,"o":"m 100 -10 q 65 1 78 -10 q 49 28 51 11 q 57 68 47 46 l 439 938 q 469 977 451 965 q 507 989 486 989 q 545 977 528 989 q 574 938 563 965 l 957 68 q 966 28 968 46 q 951 0 964 10 q 917 -10 939 -10 q 876 3 892 -10 q 851 42 861 17 l 749 279 l 804 250 l 207 250 l 264 279 l 163 42 q 136 3 150 15 q 100 -10 122 -10 m 506 846 l 282 319 l 249 346 l 763 346 l 732 319 l 508 846 l 506 846 m 508 -265 q 458 -247 476 -265 q 440 -199 440 -229 q 458 -150 440 -167 q 508 -133 476 -133 q 560 -150 542 -133 q 578 -199 578 -167 q 560 -247 578 -229 q 508 -265 542 -265 m 375 1067 q 348 1053 363 1054 q 322 1058 333 1051 q 308 1078 311 1065 q 315 1104 306 1090 l 438 1275 q 469 1305 451 1296 q 508 1314 488 1314 q 548 1305 531 1314 q 581 1275 565 1296 l 701 1104 q 710 1078 713 1090 q 695 1058 707 1065 q 669 1053 683 1051 q 643 1067 654 1054 l 508 1228 l 375 1067 z "},"Ầ":{"ha":1013,"x_min":47,"x_max":968,"o":"m 100 -10 q 65 1 78 -10 q 49 28 51 11 q 57 68 47 46 l 439 938 q 469 977 451 965 q 507 989 486 989 q 545 977 528 989 q 574 938 563 965 l 957 68 q 966 28 968 46 q 951 0 964 10 q 917 -10 939 -10 q 876 3 892 -10 q 851 42 861 17 l 749 279 l 804 250 l 207 250 l 264 279 l 163 42 q 136 3 150 15 q 100 -10 122 -10 m 506 846 l 282 319 l 249 346 l 763 346 l 732 319 l 508 846 l 506 846 m 385 1067 q 359 1052 372 1054 q 336 1056 346 1050 q 324 1076 326 1063 q 331 1103 321 1089 l 439 1263 q 470 1293 453 1285 q 508 1301 488 1301 q 535 1298 522 1301 q 558 1286 547 1294 q 578 1263 569 1278 l 686 1103 q 694 1076 696 1089 q 682 1056 692 1063 q 658 1052 672 1050 q 632 1067 644 1054 l 508 1215 l 385 1067 m 700 1200 l 581 1361 q 572 1390 571 1375 q 581 1414 572 1404 q 603 1427 590 1424 q 630 1426 617 1431 q 654 1403 643 1421 l 750 1238 q 756 1210 758 1222 q 743 1192 753 1199 q 721 1188 733 1186 q 700 1200 708 1189 z "},"Ẩ":{"ha":1013,"x_min":47,"x_max":968,"o":"m 100 -10 q 65 1 78 -10 q 49 28 51 11 q 57 68 47 46 l 439 938 q 469 977 451 965 q 507 989 486 989 q 545 977 528 989 q 574 938 563 965 l 957 68 q 966 28 968 46 q 951 0 964 10 q 917 -10 939 -10 q 876 3 892 -10 q 851 42 861 17 l 749 279 l 804 250 l 207 250 l 264 279 l 163 42 q 136 3 150 15 q 100 -10 122 -10 m 506 846 l 282 319 l 249 346 l 763 346 l 732 319 l 508 846 l 506 846 m 385 1067 q 359 1052 372 1054 q 336 1056 346 1050 q 324 1076 326 1063 q 331 1103 321 1089 l 439 1263 q 470 1293 453 1285 q 508 1301 488 1301 q 535 1298 522 1301 q 558 1286 547 1294 q 578 1263 569 1278 l 686 1103 q 694 1076 696 1089 q 682 1056 692 1063 q 658 1052 672 1050 q 632 1067 644 1054 l 508 1215 l 385 1067 m 701 1201 q 671 1198 685 1193 q 654 1216 657 1203 q 668 1240 651 1229 q 715 1280 699 1261 q 732 1321 732 1299 q 717 1351 732 1342 q 669 1360 703 1360 q 644 1358 657 1360 q 615 1353 631 1357 q 588 1353 599 1349 q 572 1369 576 1357 q 575 1392 569 1383 q 597 1407 581 1401 q 642 1417 618 1414 q 690 1419 665 1419 q 781 1400 749 1419 q 814 1338 814 1381 q 797 1283 814 1308 q 755 1237 781 1257 q 701 1201 729 1217 z "},"Ẫ":{"ha":1013,"x_min":47,"x_max":968,"o":"m 100 -10 q 65 1 78 -10 q 49 28 51 11 q 57 68 47 46 l 439 938 q 469 977 451 965 q 507 989 486 989 q 545 977 528 989 q 574 938 563 965 l 957 68 q 966 28 968 46 q 951 0 964 10 q 917 -10 939 -10 q 876 3 892 -10 q 851 42 861 17 l 749 279 l 804 250 l 207 250 l 264 279 l 163 42 q 136 3 150 15 q 100 -10 122 -10 m 506 846 l 282 319 l 249 346 l 763 346 l 732 319 l 508 846 l 506 846 m 378 1063 q 346 1052 363 1049 q 324 1069 329 1056 q 333 1099 319 1083 l 435 1221 q 470 1248 453 1240 q 508 1256 488 1256 q 536 1252 524 1256 q 560 1241 549 1249 q 582 1221 571 1233 l 683 1099 q 693 1076 694 1088 q 684 1057 692 1064 q 664 1051 676 1050 q 639 1063 651 1051 l 508 1181 l 378 1063 m 321 1278 q 299 1290 307 1279 q 296 1321 292 1301 q 340 1397 308 1372 q 419 1422 372 1422 q 486 1404 457 1422 q 542 1368 515 1386 q 596 1350 568 1350 q 636 1360 619 1350 q 658 1396 653 1371 q 672 1419 663 1411 q 697 1425 682 1426 q 719 1413 711 1424 q 722 1383 726 1403 q 677 1306 710 1332 q 599 1281 644 1281 q 531 1299 561 1281 q 476 1335 501 1317 q 421 1353 450 1353 q 381 1342 397 1353 q 358 1307 365 1332 q 345 1285 354 1293 q 321 1278 336 1276 z "},"Ȁ":{"ha":1013,"x_min":47,"x_max":968,"o":"m 100 -10 q 65 1 78 -10 q 49 28 51 11 q 57 68 47 46 l 439 938 q 469 977 451 965 q 507 989 486 989 q 545 977 528 989 q 574 938 563 965 l 957 68 q 966 28 968 46 q 951 0 964 10 q 917 -10 939 -10 q 876 3 892 -10 q 851 42 861 17 l 749 279 l 804 250 l 207 250 l 264 279 l 163 42 q 136 3 150 15 q 100 -10 122 -10 m 506 846 l 282 319 l 249 346 l 763 346 l 732 319 l 508 846 l 506 846 m 558 1068 l 440 1243 q 430 1274 428 1260 q 442 1299 432 1289 q 466 1312 451 1308 q 495 1309 481 1315 q 518 1285 510 1303 l 614 1096 q 617 1071 621 1082 q 602 1055 613 1060 q 580 1053 592 1050 q 558 1068 568 1056 m 385 1067 l 261 1243 q 250 1274 249 1260 q 261 1299 251 1289 q 285 1312 271 1308 q 314 1310 300 1315 q 338 1285 328 1304 l 435 1097 q 439 1073 442 1085 q 426 1056 436 1061 q 406 1052 417 1050 q 385 1067 394 1054 z "},"Ä":{"ha":1013,"x_min":47,"x_max":968,"o":"m 100 -10 q 65 1 78 -10 q 49 28 51 11 q 57 68 47 46 l 439 938 q 469 977 451 965 q 507 989 486 989 q 545 977 528 989 q 574 938 563 965 l 957 68 q 966 28 968 46 q 951 0 964 10 q 917 -10 939 -10 q 876 3 892 -10 q 851 42 861 17 l 749 279 l 804 250 l 207 250 l 264 279 l 163 42 q 136 3 150 15 q 100 -10 122 -10 m 506 846 l 282 319 l 249 346 l 763 346 l 732 319 l 508 846 l 506 846 m 631 1114 q 581 1131 599 1114 q 564 1179 564 1147 q 581 1226 564 1210 q 631 1243 599 1243 q 678 1226 661 1243 q 694 1179 694 1210 q 678 1131 694 1147 q 631 1114 661 1114 m 388 1114 q 340 1131 357 1114 q 322 1179 322 1147 q 340 1226 322 1210 q 388 1243 357 1243 q 436 1226 419 1243 q 453 1179 453 1210 q 436 1131 453 1147 q 388 1114 419 1114 z "},"Ȧ":{"ha":1013,"x_min":47,"x_max":968,"o":"m 100 -10 q 65 1 78 -10 q 49 28 51 11 q 57 68 47 46 l 439 938 q 469 977 451 965 q 507 989 486 989 q 545 977 528 989 q 574 938 563 965 l 957 68 q 966 28 968 46 q 951 0 964 10 q 917 -10 939 -10 q 876 3 892 -10 q 851 42 861 17 l 749 279 l 804 250 l 207 250 l 264 279 l 163 42 q 136 3 150 15 q 100 -10 122 -10 m 506 846 l 282 319 l 249 346 l 763 346 l 732 319 l 508 846 l 506 846 m 508 1115 q 458 1133 476 1115 q 440 1182 440 1150 q 458 1231 440 1214 q 508 1247 476 1247 q 559 1231 542 1247 q 576 1182 576 1214 q 559 1133 576 1150 q 508 1115 542 1115 z "},"Ạ":{"ha":1013,"x_min":47,"x_max":968,"o":"m 100 -10 q 65 1 78 -10 q 49 28 51 11 q 57 68 47 46 l 439 938 q 469 977 451 965 q 507 989 486 989 q 545 977 528 989 q 574 938 563 965 l 957 68 q 966 28 968 46 q 951 0 964 10 q 917 -10 939 -10 q 876 3 892 -10 q 851 42 861 17 l 749 279 l 804 250 l 207 250 l 264 279 l 163 42 q 136 3 150 15 q 100 -10 122 -10 m 506 846 l 282 319 l 249 346 l 763 346 l 732 319 l 508 846 l 506 846 m 508 -265 q 458 -247 476 -265 q 440 -199 440 -229 q 458 -150 440 -167 q 508 -133 476 -133 q 560 -150 542 -133 q 578 -199 578 -167 q 560 -247 578 -229 q 508 -265 542 -265 z "},"À":{"ha":1013,"x_min":47,"x_max":968,"o":"m 100 -10 q 65 1 78 -10 q 49 28 51 11 q 57 68 47 46 l 439 938 q 469 977 451 965 q 507 989 486 989 q 545 977 528 989 q 574 938 563 965 l 957 68 q 966 28 968 46 q 951 0 964 10 q 917 -10 939 -10 q 876 3 892 -10 q 851 42 861 17 l 749 279 l 804 250 l 207 250 l 264 279 l 163 42 q 136 3 150 15 q 100 -10 122 -10 m 506 846 l 282 319 l 249 346 l 763 346 l 732 319 l 508 846 l 506 846 m 460 1068 l 315 1239 q 303 1269 303 1254 q 314 1294 304 1283 q 338 1310 324 1306 q 369 1311 353 1315 q 396 1289 385 1307 l 519 1110 q 526 1082 529 1094 q 511 1062 522 1069 q 486 1055 500 1054 q 460 1068 472 1056 z "},"Ả":{"ha":1013,"x_min":47,"x_max":968,"o":"m 100 -10 q 65 1 78 -10 q 49 28 51 11 q 57 68 47 46 l 439 938 q 469 977 451 965 q 507 989 486 989 q 545 977 528 989 q 574 938 563 965 l 957 68 q 966 28 968 46 q 951 0 964 10 q 917 -10 939 -10 q 876 3 892 -10 q 851 42 861 17 l 749 279 l 804 250 l 207 250 l 264 279 l 163 42 q 136 3 150 15 q 100 -10 122 -10 m 506 846 l 282 319 l 249 346 l 763 346 l 732 319 l 508 846 l 506 846 m 508 1053 q 480 1060 490 1053 q 469 1085 469 1068 q 483 1130 469 1113 q 513 1160 496 1147 q 544 1183 531 1172 q 557 1211 557 1194 q 541 1235 557 1226 q 493 1243 525 1243 q 465 1242 481 1243 q 436 1235 450 1240 q 403 1232 415 1229 q 388 1250 392 1235 q 389 1275 383 1264 q 411 1293 394 1286 q 460 1306 433 1301 q 515 1310 488 1310 q 613 1286 578 1310 q 649 1224 649 1263 q 633 1176 649 1194 q 598 1147 618 1158 q 563 1119 578 1135 q 547 1078 547 1104 q 538 1060 547 1067 q 508 1053 528 1053 z "},"Ȃ":{"ha":1013,"x_min":47,"x_max":968,"o":"m 100 -10 q 65 1 78 -10 q 49 28 51 11 q 57 68 47 46 l 439 938 q 469 977 451 965 q 507 989 486 989 q 545 977 528 989 q 574 938 563 965 l 957 68 q 966 28 968 46 q 951 0 964 10 q 917 -10 939 -10 q 876 3 892 -10 q 851 42 861 17 l 749 279 l 804 250 l 207 250 l 264 279 l 163 42 q 136 3 150 15 q 100 -10 122 -10 m 506 846 l 282 319 l 249 346 l 763 346 l 732 319 l 508 846 l 506 846 m 308 1054 q 283 1067 293 1056 q 278 1100 274 1079 q 363 1250 300 1201 q 508 1299 426 1299 q 654 1250 590 1299 q 739 1100 718 1201 q 733 1067 743 1079 q 708 1054 724 1056 q 688 1057 697 1053 q 674 1069 679 1061 q 668 1086 669 1076 q 607 1192 651 1161 q 508 1224 563 1224 q 410 1192 456 1224 q 349 1086 365 1161 q 342 1069 347 1076 q 328 1057 338 1061 q 308 1054 319 1053 z "},"Ā":{"ha":1013,"x_min":47,"x_max":968,"o":"m 100 -10 q 65 1 78 -10 q 49 28 51 11 q 57 68 47 46 l 439 938 q 469 977 451 965 q 507 989 486 989 q 545 977 528 989 q 574 938 563 965 l 957 68 q 966 28 968 46 q 951 0 964 10 q 917 -10 939 -10 q 876 3 892 -10 q 851 42 861 17 l 749 279 l 804 250 l 207 250 l 264 279 l 163 42 q 136 3 150 15 q 100 -10 122 -10 m 506 846 l 282 319 l 249 346 l 763 346 l 732 319 l 508 846 l 506 846 m 319 1131 q 279 1169 279 1131 q 290 1197 279 1188 q 319 1207 300 1207 l 697 1207 q 739 1169 739 1207 q 728 1141 739 1151 q 697 1131 718 1131 l 319 1131 z "},"Ą":{"ha":1013,"x_min":47,"x_max":1044,"o":"m 935 -267 q 829 -231 869 -267 q 789 -132 789 -194 q 812 -47 789 -87 q 874 24 835 -7 l 876 6 q 863 20 868 11 q 851 42 857 29 l 749 279 l 804 250 l 207 250 l 264 279 l 163 42 q 136 3 150 15 q 100 -10 122 -10 q 65 1 78 -10 q 49 28 51 11 q 56 68 47 46 l 439 938 q 469 977 451 965 q 507 989 486 989 q 545 977 528 989 q 574 938 563 965 l 957 68 q 965 25 968 44 q 946 -3 963 6 q 914 -28 932 -11 q 883 -67 896 -44 q 869 -119 869 -90 q 893 -178 869 -158 q 950 -197 917 -197 q 974 -195 963 -197 q 999 -189 986 -193 q 1028 -190 1018 -183 q 1042 -210 1039 -197 q 1038 -236 1044 -224 q 1017 -254 1032 -249 q 975 -265 996 -262 q 935 -267 954 -267 m 506 846 l 282 319 l 249 346 l 763 346 l 732 319 l 508 846 l 506 846 z "},"Å":{"ha":1013,"x_min":47,"x_max":968,"o":"m 100 -10 q 65 1 78 -10 q 49 28 51 11 q 57 68 47 46 l 439 938 q 469 977 451 965 q 507 989 486 989 q 545 977 528 989 q 574 938 563 965 l 957 68 q 966 28 968 46 q 951 0 964 10 q 917 -10 939 -10 q 876 3 892 -10 q 851 42 861 17 l 749 279 l 804 250 l 207 250 l 264 279 l 163 42 q 136 3 150 15 q 100 -10 122 -10 m 506 846 l 282 319 l 249 346 l 763 346 l 732 319 l 508 846 l 506 846 m 508 1053 q 425 1074 463 1053 q 365 1133 388 1096 q 343 1214 343 1169 q 365 1295 343 1260 q 425 1352 388 1331 q 508 1374 463 1374 q 592 1352 556 1374 q 651 1295 629 1331 q 674 1214 674 1260 q 651 1133 674 1169 q 592 1074 629 1096 q 508 1053 556 1053 m 508 1113 q 581 1142 553 1113 q 608 1214 608 1171 q 581 1285 608 1256 q 508 1314 553 1314 q 437 1285 465 1314 q 408 1214 408 1256 q 437 1142 408 1171 q 508 1113 465 1113 z "},"Ǻ":{"ha":1013,"x_min":47,"x_max":968,"o":"m 100 -10 q 65 1 78 -10 q 49 28 51 11 q 57 68 47 46 l 439 938 q 469 977 451 965 q 507 989 486 989 q 545 977 528 989 q 574 938 563 965 l 957 68 q 966 28 968 46 q 951 0 964 10 q 917 -10 939 -10 q 876 3 892 -10 q 851 42 861 17 l 749 279 l 804 250 l 207 250 l 264 279 l 163 42 q 136 3 150 15 q 100 -10 122 -10 m 506 846 l 282 319 l 249 346 l 763 346 l 732 319 l 508 846 l 506 846 m 508 1053 q 427 1074 464 1053 q 369 1131 390 1094 q 347 1210 347 1167 q 369 1290 347 1254 q 427 1347 390 1325 q 508 1368 464 1368 q 558 1361 535 1368 q 600 1340 581 1354 l 701 1435 q 731 1447 717 1449 q 756 1435 746 1446 q 767 1411 767 1425 q 753 1385 768 1397 l 646 1293 q 669 1210 669 1257 q 648 1131 669 1167 q 590 1074 626 1094 q 508 1053 554 1053 m 508 1110 q 581 1139 553 1110 q 608 1210 608 1168 q 581 1281 608 1253 q 508 1310 553 1310 q 437 1281 465 1310 q 408 1210 408 1253 q 437 1139 408 1168 q 508 1110 465 1110 z "},"Ã":{"ha":1013,"x_min":47,"x_max":968,"o":"m 100 -10 q 65 1 78 -10 q 49 28 51 11 q 57 68 47 46 l 439 938 q 469 977 451 965 q 507 989 486 989 q 545 977 528 989 q 574 938 563 965 l 957 68 q 966 28 968 46 q 951 0 964 10 q 917 -10 939 -10 q 876 3 892 -10 q 851 42 861 17 l 749 279 l 804 250 l 207 250 l 264 279 l 163 42 q 136 3 150 15 q 100 -10 122 -10 m 506 846 l 282 319 l 249 346 l 763 346 l 732 319 l 508 846 l 506 846 m 253 1083 q 228 1094 238 1083 q 222 1122 219 1104 q 280 1236 236 1196 q 385 1276 324 1276 q 456 1260 422 1276 q 520 1224 489 1244 q 580 1187 551 1203 q 636 1171 608 1171 q 697 1194 674 1171 q 728 1257 721 1218 q 741 1279 732 1272 q 764 1285 750 1286 q 789 1274 779 1285 q 794 1246 799 1264 q 738 1132 781 1172 q 633 1092 696 1092 q 562 1108 596 1092 q 497 1144 528 1124 q 438 1181 467 1164 q 381 1197 408 1197 q 320 1174 344 1197 q 289 1111 296 1150 q 276 1090 285 1097 q 253 1083 267 1082 z "},"Æ":{"ha":1363,"x_min":6,"x_max":1301,"o":"m 58 -10 q 19 1 33 -10 q 6 28 6 11 q 17 63 6 44 l 551 944 q 578 971 563 963 q 614 979 593 979 l 1250 979 q 1288 967 1275 979 q 1301 932 1301 954 q 1288 896 1301 908 q 1250 883 1275 883 l 667 883 l 690 924 l 778 514 l 738 544 l 1222 544 q 1260 533 1247 544 q 1274 497 1274 521 q 1260 461 1274 474 q 1222 449 1247 449 l 758 449 l 786 479 l 875 57 l 831 96 l 1250 96 q 1288 83 1275 96 q 1301 49 1301 71 q 1288 13 1301 25 q 1250 0 1275 0 l 831 0 q 774 46 785 0 l 724 283 l 765 250 l 224 250 l 268 281 l 118 28 q 93 0 107 10 q 58 -10 79 -10 m 601 844 l 289 318 l 276 346 l 736 346 l 717 315 l 604 844 l 601 844 z "},"Ǽ":{"ha":1363,"x_min":6,"x_max":1301,"o":"m 58 -10 q 19 1 33 -10 q 6 28 6 11 q 17 63 6 44 l 551 944 q 578 971 563 963 q 614 979 593 979 l 1250 979 q 1288 967 1275 979 q 1301 932 1301 954 q 1288 896 1301 908 q 1250 883 1275 883 l 667 883 l 690 924 l 778 514 l 738 544 l 1222 544 q 1260 533 1247 544 q 1274 497 1274 521 q 1260 461 1274 474 q 1222 449 1247 449 l 758 449 l 786 479 l 875 57 l 831 96 l 1250 96 q 1288 83 1275 96 q 1301 49 1301 71 q 1288 13 1301 25 q 1250 0 1275 0 l 831 0 q 774 46 785 0 l 724 283 l 765 250 l 224 250 l 268 281 l 118 28 q 93 0 107 10 q 58 -10 79 -10 m 601 844 l 289 318 l 276 346 l 736 346 l 717 315 l 604 844 l 601 844 m 725 1068 q 699 1055 714 1056 q 674 1062 685 1054 q 659 1082 663 1069 q 665 1110 656 1094 l 789 1289 q 817 1311 801 1307 q 847 1310 832 1315 q 872 1294 863 1306 q 881 1269 881 1283 q 869 1239 882 1254 l 725 1068 z "},"B":{"ha":939,"x_min":121,"x_max":853,"o":"m 183 0 q 137 16 153 0 q 121 63 121 32 l 121 917 q 137 963 121 947 q 183 979 153 979 l 513 979 q 684 949 614 979 q 792 863 754 919 q 829 724 829 806 q 776 571 829 632 q 631 490 722 510 l 631 510 q 794 435 735 497 q 853 269 853 372 q 768 69 853 139 q 529 0 683 0 l 183 0 m 232 92 l 518 92 q 685 136 629 92 q 740 271 740 181 q 685 406 740 363 q 518 450 629 450 l 232 450 l 232 92 m 232 542 l 496 542 q 660 586 604 542 q 717 714 717 631 q 660 844 717 800 q 496 888 604 888 l 232 888 l 232 542 z "},"Ɓ":{"ha":1111,"x_min":0,"x_max":1025,"o":"m 356 0 q 309 16 325 0 q 293 63 293 32 l 293 892 l 249 892 q 135 856 172 892 q 97 744 97 819 l 97 717 q 92 693 97 704 q 76 675 88 682 q 50 668 65 668 q 22 675 33 668 q 6 694 11 682 q 0 718 0 706 l 0 750 q 65 921 0 863 q 261 979 129 979 l 685 979 q 856 949 786 979 q 964 863 926 919 q 1001 724 1001 806 q 948 571 1001 632 q 803 490 894 510 l 803 510 q 966 435 907 497 q 1025 269 1025 372 q 940 69 1025 139 q 701 0 856 0 l 356 0 m 404 92 l 690 92 q 857 136 801 92 q 913 271 913 181 q 857 406 913 363 q 690 450 801 450 l 404 450 l 404 92 m 404 542 l 668 542 q 833 586 776 542 q 889 714 889 631 q 833 844 889 800 q 668 888 776 888 l 404 888 l 404 542 z "},"C":{"ha":935,"x_min":85,"x_max":875,"o":"m 544 -12 q 297 49 400 -12 q 140 222 194 110 q 85 490 85 335 q 116 699 85 607 q 206 856 147 792 q 351 956 265 921 q 544 992 438 992 q 708 967 631 992 q 843 896 786 943 q 867 865 861 882 q 869 831 874 847 q 852 805 864 815 q 824 794 840 794 q 786 808 807 794 q 676 868 736 849 q 547 888 617 888 q 361 841 438 888 q 246 706 285 794 q 207 490 207 617 q 246 274 207 364 q 361 138 285 185 q 547 92 438 92 q 676 112 615 92 q 789 172 738 132 q 826 185 810 186 q 854 175 843 185 q 870 150 865 165 q 870 118 875 135 q 849 89 865 101 q 712 13 790 39 q 544 -12 633 -12 z "},"Ć":{"ha":935,"x_min":85,"x_max":875,"o":"m 544 -12 q 297 49 400 -12 q 140 222 194 110 q 85 490 85 335 q 116 699 85 607 q 206 856 147 792 q 351 956 265 921 q 544 992 438 992 q 708 967 631 992 q 843 896 786 943 q 867 865 861 882 q 869 831 874 847 q 852 805 864 815 q 824 794 840 794 q 786 808 807 794 q 676 868 736 849 q 547 888 617 888 q 361 841 438 888 q 246 706 285 794 q 207 490 207 617 q 246 274 207 364 q 361 138 285 185 q 547 92 438 92 q 676 112 615 92 q 789 172 738 132 q 826 185 810 186 q 854 175 843 185 q 870 150 865 165 q 870 118 875 135 q 849 89 865 101 q 712 13 790 39 q 544 -12 633 -12 m 586 1068 q 560 1055 575 1056 q 535 1062 546 1054 q 520 1082 524 1069 q 526 1110 517 1094 l 650 1289 q 678 1311 663 1307 q 708 1310 693 1315 q 733 1294 724 1306 q 742 1269 742 1283 q 731 1239 743 1254 l 586 1068 z "},"Č":{"ha":935,"x_min":85,"x_max":875,"o":"m 544 -12 q 297 49 400 -12 q 140 222 194 110 q 85 490 85 335 q 116 699 85 607 q 206 856 147 792 q 351 956 265 921 q 544 992 438 992 q 708 967 631 992 q 843 896 786 943 q 867 865 861 882 q 869 831 874 847 q 852 805 864 815 q 824 794 840 794 q 786 808 807 794 q 676 868 736 849 q 547 888 617 888 q 361 841 438 888 q 246 706 285 794 q 207 490 207 617 q 246 274 207 364 q 361 138 285 185 q 547 92 438 92 q 676 112 615 92 q 789 172 738 132 q 826 185 810 186 q 854 175 843 185 q 870 150 865 165 q 870 118 875 135 q 849 89 865 101 q 712 13 790 39 q 544 -12 633 -12 m 538 1050 q 499 1059 517 1050 q 467 1088 481 1068 l 344 1260 q 338 1287 335 1274 q 351 1307 340 1300 q 377 1312 363 1314 q 404 1296 392 1310 l 538 1136 l 672 1296 q 698 1312 683 1310 q 724 1307 713 1314 q 738 1287 735 1300 q 731 1260 740 1274 l 610 1088 q 577 1059 594 1068 q 538 1050 560 1050 z "},"Ç":{"ha":935,"x_min":85,"x_max":875,"o":"m 544 -12 q 297 49 400 -12 q 140 222 194 110 q 85 490 85 335 q 116 699 85 607 q 206 856 147 792 q 351 956 265 921 q 544 992 438 992 q 708 967 631 992 q 843 896 786 943 q 867 865 861 882 q 869 831 874 847 q 852 805 864 815 q 824 794 840 794 q 786 808 807 794 q 676 868 736 849 q 547 888 617 888 q 361 841 438 888 q 246 706 285 794 q 207 490 207 617 q 246 274 207 364 q 361 138 285 185 q 547 92 438 92 q 676 112 615 92 q 789 172 738 132 q 826 185 810 186 q 854 175 843 185 q 870 150 865 165 q 870 118 875 135 q 849 89 865 101 q 712 13 790 39 q 544 -12 633 -12 m 539 -267 q 487 -263 514 -267 q 438 -250 460 -260 q 417 -232 422 -244 q 415 -207 411 -219 q 431 -188 419 -194 q 458 -189 442 -182 q 494 -199 475 -196 q 536 -201 513 -201 q 594 -188 572 -201 q 617 -150 617 -175 q 604 -122 617 -132 q 564 -111 592 -111 q 542 -112 553 -111 q 518 -117 532 -114 q 499 -121 506 -121 q 485 -117 492 -121 q 478 -103 479 -111 q 479 -82 478 -96 l 496 28 l 567 28 l 549 -76 l 515 -68 q 548 -61 532 -64 q 578 -58 564 -58 q 661 -83 628 -58 q 694 -153 694 -108 q 651 -235 694 -204 q 539 -267 608 -267 z "},"Ḉ":{"ha":935,"x_min":85,"x_max":875,"o":"m 544 -12 q 297 49 400 -12 q 140 222 194 110 q 85 490 85 335 q 116 699 85 607 q 206 856 147 792 q 351 956 265 921 q 544 992 438 992 q 708 967 631 992 q 843 896 786 943 q 867 865 861 882 q 869 831 874 847 q 852 805 864 815 q 824 794 840 794 q 786 808 807 794 q 676 868 736 849 q 547 888 617 888 q 361 841 438 888 q 246 706 285 794 q 207 490 207 617 q 246 274 207 364 q 361 138 285 185 q 547 92 438 92 q 676 112 615 92 q 789 172 738 132 q 826 185 810 186 q 854 175 843 185 q 870 150 865 165 q 870 118 875 135 q 849 89 865 101 q 712 13 790 39 q 544 -12 633 -12 m 539 -267 q 487 -263 514 -267 q 438 -250 460 -260 q 417 -232 422 -244 q 415 -207 411 -219 q 431 -188 419 -194 q 458 -189 442 -182 q 494 -199 475 -196 q 536 -201 513 -201 q 594 -188 572 -201 q 617 -150 617 -175 q 604 -122 617 -132 q 564 -111 592 -111 q 542 -112 553 -111 q 518 -117 532 -114 q 499 -121 506 -121 q 485 -117 492 -121 q 478 -103 479 -111 q 479 -82 478 -96 l 496 28 l 567 28 l 549 -76 l 515 -68 q 548 -61 532 -64 q 578 -58 564 -58 q 661 -83 628 -58 q 694 -153 694 -108 q 651 -235 694 -204 q 539 -267 608 -267 m 586 1068 q 560 1055 575 1056 q 535 1062 546 1054 q 520 1082 524 1069 q 526 1110 517 1094 l 650 1289 q 678 1311 663 1307 q 708 1310 693 1315 q 733 1294 724 1306 q 742 1269 742 1283 q 731 1239 743 1254 l 586 1068 z "},"Ĉ":{"ha":935,"x_min":85,"x_max":875,"o":"m 544 -12 q 297 49 400 -12 q 140 222 194 110 q 85 490 85 335 q 116 699 85 607 q 206 856 147 792 q 351 956 265 921 q 544 992 438 992 q 708 967 631 992 q 843 896 786 943 q 867 865 861 882 q 869 831 874 847 q 852 805 864 815 q 824 794 840 794 q 786 808 807 794 q 676 868 736 849 q 547 888 617 888 q 361 841 438 888 q 246 706 285 794 q 207 490 207 617 q 246 274 207 364 q 361 138 285 185 q 547 92 438 92 q 676 112 615 92 q 789 172 738 132 q 826 185 810 186 q 854 175 843 185 q 870 150 865 165 q 870 118 875 135 q 849 89 865 101 q 712 13 790 39 q 544 -12 633 -12 m 404 1067 q 377 1053 392 1054 q 351 1058 363 1051 q 338 1078 340 1065 q 344 1104 335 1090 l 467 1275 q 499 1305 481 1296 q 538 1314 517 1314 q 577 1305 560 1314 q 610 1275 594 1296 l 731 1104 q 739 1078 742 1090 q 724 1058 736 1065 q 698 1053 713 1051 q 672 1067 683 1054 l 538 1228 l 404 1067 z "},"Ċ":{"ha":935,"x_min":85,"x_max":875,"o":"m 544 -12 q 297 49 400 -12 q 140 222 194 110 q 85 490 85 335 q 116 699 85 607 q 206 856 147 792 q 351 956 265 921 q 544 992 438 992 q 708 967 631 992 q 843 896 786 943 q 867 865 861 882 q 869 831 874 847 q 852 805 864 815 q 824 794 840 794 q 786 808 807 794 q 676 868 736 849 q 547 888 617 888 q 361 841 438 888 q 246 706 285 794 q 207 490 207 617 q 246 274 207 364 q 361 138 285 185 q 547 92 438 92 q 676 112 615 92 q 789 172 738 132 q 826 185 810 186 q 854 175 843 185 q 870 150 865 165 q 870 118 875 135 q 849 89 865 101 q 712 13 790 39 q 544 -12 633 -12 m 538 1115 q 488 1133 506 1115 q 469 1182 469 1150 q 488 1231 469 1214 q 538 1247 506 1247 q 588 1231 571 1247 q 606 1182 606 1214 q 588 1133 606 1150 q 538 1115 571 1115 z "},"D":{"ha":1031,"x_min":121,"x_max":947,"o":"m 183 0 q 137 16 153 0 q 121 63 121 32 l 121 917 q 137 963 121 947 q 183 979 153 979 l 451 979 q 818 854 689 979 q 947 490 947 729 q 915 280 947 371 q 818 126 882 189 q 663 32 754 64 q 451 0 571 0 l 183 0 m 235 97 l 443 97 q 612 122 540 97 q 731 196 683 147 q 803 319 779 244 q 826 490 826 393 q 731 784 826 686 q 443 882 635 882 l 235 882 l 235 97 z "},"Ǆ":{"ha":1828,"x_min":121,"x_max":1807,"o":"m 183 0 q 137 16 153 0 q 121 63 121 32 l 121 917 q 137 963 121 947 q 183 979 153 979 l 451 979 q 818 854 689 979 q 947 490 947 729 q 915 280 947 371 q 818 126 882 189 q 663 32 754 64 q 451 0 571 0 l 183 0 m 235 97 l 443 97 q 612 122 540 97 q 731 196 683 147 q 803 319 779 244 q 826 490 826 393 q 731 784 826 686 q 443 882 635 882 l 235 882 l 235 97 m 1129 0 q 1093 9 1107 0 q 1074 34 1079 18 q 1073 70 1068 50 q 1094 111 1078 90 l 1672 925 l 1672 881 l 1121 881 q 1081 894 1094 881 q 1067 931 1067 907 q 1081 967 1067 954 q 1121 979 1094 979 l 1724 979 q 1760 970 1746 979 q 1780 946 1775 961 q 1780 910 1785 931 q 1760 868 1775 889 l 1182 56 l 1182 99 l 1753 99 q 1793 86 1779 99 q 1807 50 1807 74 q 1793 13 1807 25 q 1753 0 1779 0 l 1129 0 m 1435 1050 q 1396 1059 1414 1050 q 1364 1088 1378 1068 l 1242 1260 q 1235 1287 1232 1274 q 1249 1307 1238 1300 q 1274 1312 1260 1314 q 1301 1296 1289 1310 l 1435 1136 l 1569 1296 q 1595 1312 1581 1310 q 1621 1307 1610 1314 q 1635 1287 1632 1300 q 1628 1260 1638 1274 l 1507 1088 q 1474 1059 1492 1068 q 1435 1050 1457 1050 z "},"Ð":{"ha":1031,"x_min":-12,"x_max":947,"o":"m 183 0 q 137 16 153 0 q 121 63 121 32 l 121 917 q 137 963 121 947 q 183 979 153 979 l 451 979 q 818 854 689 979 q 947 490 947 729 q 915 280 947 371 q 818 126 882 189 q 663 32 754 64 q 451 0 571 0 l 183 0 m 235 97 l 443 97 q 612 122 540 97 q 731 196 683 147 q 803 319 779 244 q 826 490 826 393 q 731 784 826 686 q 443 882 635 882 l 235 882 l 235 97 m 35 453 q 1 465 13 453 q -11 497 -11 476 q 1 530 -11 518 q 35 542 13 542 l 472 542 q 506 531 494 542 q 518 497 518 519 q 506 465 518 476 q 472 453 494 453 l 35 453 z "},"Ď":{"ha":1031,"x_min":121,"x_max":947,"o":"m 183 0 q 137 16 153 0 q 121 63 121 32 l 121 917 q 137 963 121 947 q 183 979 153 979 l 451 979 q 818 854 689 979 q 947 490 947 729 q 915 280 947 371 q 818 126 882 189 q 663 32 754 64 q 451 0 571 0 l 183 0 m 235 97 l 443 97 q 612 122 540 97 q 731 196 683 147 q 803 319 779 244 q 826 490 826 393 q 731 784 826 686 q 443 882 635 882 l 235 882 l 235 97 m 514 1050 q 475 1059 493 1050 q 443 1088 457 1068 l 321 1260 q 314 1287 311 1274 q 328 1307 317 1300 q 353 1312 339 1314 q 381 1296 368 1310 l 514 1136 l 649 1296 q 674 1312 660 1310 q 700 1307 689 1314 q 714 1287 711 1300 q 707 1260 717 1274 l 586 1088 q 553 1059 571 1068 q 514 1050 536 1050 z "},"Đ":{"ha":1031,"x_min":-12,"x_max":947,"o":"m 183 0 q 137 16 153 0 q 121 63 121 32 l 121 917 q 137 963 121 947 q 183 979 153 979 l 451 979 q 818 854 689 979 q 947 490 947 729 q 915 280 947 371 q 818 126 882 189 q 663 32 754 64 q 451 0 571 0 l 183 0 m 235 97 l 443 97 q 612 122 540 97 q 731 196 683 147 q 803 319 779 244 q 826 490 826 393 q 731 784 826 686 q 443 882 635 882 l 235 882 l 235 97 m 35 453 q 1 465 13 453 q -11 497 -11 476 q 1 530 -11 518 q 35 542 13 542 l 472 542 q 506 531 494 542 q 518 497 518 519 q 506 465 518 476 q 472 453 494 453 l 35 453 z "},"Ḍ":{"ha":1031,"x_min":121,"x_max":947,"o":"m 183 0 q 137 16 153 0 q 121 63 121 32 l 121 917 q 137 963 121 947 q 183 979 153 979 l 451 979 q 818 854 689 979 q 947 490 947 729 q 915 280 947 371 q 818 126 882 189 q 663 32 754 64 q 451 0 571 0 l 183 0 m 235 97 l 443 97 q 612 122 540 97 q 731 196 683 147 q 803 319 779 244 q 826 490 826 393 q 731 784 826 686 q 443 882 635 882 l 235 882 l 235 97 m 515 -265 q 465 -247 483 -265 q 447 -199 447 -229 q 465 -150 447 -167 q 515 -133 483 -133 q 567 -150 549 -133 q 585 -199 585 -167 q 567 -247 585 -229 q 515 -265 549 -265 z "},"Ɗ":{"ha":1204,"x_min":0,"x_max":1119,"o":"m 356 0 q 309 16 325 0 q 293 63 293 32 l 293 892 l 249 892 q 135 856 172 892 q 97 744 97 819 l 97 717 q 92 693 97 704 q 76 675 88 682 q 50 668 65 668 q 22 675 33 668 q 6 694 11 682 q 0 718 0 706 l 0 750 q 63 921 0 863 q 250 979 126 979 l 624 979 q 990 854 861 979 q 1119 490 1119 729 q 1087 280 1119 371 q 990 126 1054 189 q 835 32 926 64 q 624 0 743 0 l 356 0 m 408 97 l 615 97 q 784 122 713 97 q 903 196 856 147 q 975 319 951 244 q 999 490 999 393 q 903 784 999 686 q 615 882 807 882 l 408 882 l 408 97 z "},"Ḏ":{"ha":1031,"x_min":121,"x_max":947,"o":"m 183 0 q 137 16 153 0 q 121 63 121 32 l 121 917 q 137 963 121 947 q 183 979 153 979 l 451 979 q 818 854 689 979 q 947 490 947 729 q 915 280 947 371 q 818 126 882 189 q 663 32 754 64 q 451 0 571 0 l 183 0 m 235 97 l 443 97 q 612 122 540 97 q 731 196 683 147 q 803 319 779 244 q 826 490 826 393 q 731 784 826 686 q 443 882 635 882 l 235 882 l 235 97 m 347 -217 q 307 -179 307 -217 q 317 -150 307 -160 q 347 -140 328 -140 l 683 -140 q 725 -179 725 -140 q 715 -206 725 -196 q 683 -217 704 -217 l 347 -217 z "},"ǅ":{"ha":1675,"x_min":121,"x_max":1643,"o":"m 183 0 q 137 16 153 0 q 121 63 121 32 l 121 917 q 137 963 121 947 q 183 979 153 979 l 451 979 q 818 854 689 979 q 947 490 947 729 q 915 280 947 371 q 818 126 882 189 q 663 32 754 64 q 451 0 571 0 l 183 0 m 235 97 l 443 97 q 612 122 540 97 q 731 196 683 147 q 803 319 779 244 q 826 490 826 393 q 731 784 826 686 q 443 882 635 882 l 235 882 l 235 97 m 1149 0 q 1119 8 1131 0 q 1104 31 1108 17 q 1104 61 1100 44 q 1122 93 1108 78 l 1514 617 l 1514 588 l 1143 588 q 1109 599 1121 588 q 1097 632 1097 611 q 1109 664 1097 653 q 1143 675 1121 675 l 1569 675 q 1603 667 1590 675 q 1621 645 1617 658 q 1622 616 1625 632 q 1606 585 1618 600 l 1207 56 l 1207 88 l 1597 88 q 1643 44 1643 88 q 1631 12 1643 24 q 1597 0 1619 0 l 1149 0 m 1363 747 q 1324 759 1340 747 q 1294 793 1307 771 l 1179 1003 q 1176 1033 1171 1019 q 1192 1052 1181 1046 q 1217 1056 1204 1058 q 1239 1039 1231 1053 l 1363 840 l 1486 1039 q 1508 1056 1494 1053 q 1533 1052 1521 1058 q 1549 1033 1544 1046 q 1546 1003 1554 1019 l 1431 793 q 1401 759 1418 771 q 1363 747 1385 747 z "},"E":{"ha":810,"x_min":121,"x_max":749,"o":"m 183 0 q 137 16 153 0 q 121 63 121 32 l 121 917 q 137 963 121 947 q 183 979 153 979 l 700 979 q 736 967 724 979 q 749 932 749 954 q 736 896 749 908 q 700 883 724 883 l 232 883 l 232 544 l 671 544 q 707 533 694 544 q 719 497 719 521 q 707 461 719 474 q 671 449 694 449 l 232 449 l 232 96 l 700 96 q 736 83 724 96 q 749 49 749 71 q 736 13 749 25 q 700 0 724 0 l 183 0 z "},"É":{"ha":810,"x_min":121,"x_max":749,"o":"m 183 0 q 137 16 153 0 q 121 63 121 32 l 121 917 q 137 963 121 947 q 183 979 153 979 l 700 979 q 736 967 724 979 q 749 932 749 954 q 736 896 749 908 q 700 883 724 883 l 232 883 l 232 544 l 671 544 q 707 533 694 544 q 719 497 719 521 q 707 461 719 474 q 671 449 694 449 l 232 449 l 232 96 l 700 96 q 736 83 724 96 q 749 49 749 71 q 736 13 749 25 q 700 0 724 0 l 183 0 m 499 1068 q 473 1055 488 1056 q 447 1062 458 1054 q 433 1082 436 1069 q 439 1110 429 1094 l 563 1289 q 590 1311 575 1307 q 621 1310 606 1315 q 645 1294 636 1306 q 655 1269 654 1283 q 643 1239 656 1254 l 499 1068 z "},"Ĕ":{"ha":810,"x_min":121,"x_max":749,"o":"m 183 0 q 137 16 153 0 q 121 63 121 32 l 121 917 q 137 963 121 947 q 183 979 153 979 l 700 979 q 736 967 724 979 q 749 932 749 954 q 736 896 749 908 q 700 883 724 883 l 232 883 l 232 544 l 671 544 q 707 533 694 544 q 719 497 719 521 q 707 461 719 474 q 671 449 694 449 l 232 449 l 232 96 l 700 96 q 736 83 724 96 q 749 49 749 71 q 736 13 749 25 q 700 0 724 0 l 183 0 m 450 1056 q 305 1105 368 1056 q 219 1256 242 1154 q 225 1288 215 1275 q 250 1300 235 1300 q 270 1297 261 1301 q 284 1286 279 1293 q 290 1269 289 1279 q 351 1162 306 1193 q 450 1131 397 1131 q 550 1162 504 1131 q 610 1269 596 1193 q 616 1286 611 1279 q 630 1297 621 1293 q 650 1300 639 1301 q 675 1288 665 1300 q 681 1256 685 1275 q 596 1105 660 1154 q 450 1056 532 1056 z "},"Ě":{"ha":810,"x_min":121,"x_max":749,"o":"m 183 0 q 137 16 153 0 q 121 63 121 32 l 121 917 q 137 963 121 947 q 183 979 153 979 l 700 979 q 736 967 724 979 q 749 932 749 954 q 736 896 749 908 q 700 883 724 883 l 232 883 l 232 544 l 671 544 q 707 533 694 544 q 719 497 719 521 q 707 461 719 474 q 671 449 694 449 l 232 449 l 232 96 l 700 96 q 736 83 724 96 q 749 49 749 71 q 736 13 749 25 q 700 0 724 0 l 183 0 m 450 1050 q 411 1059 429 1050 q 379 1088 393 1068 l 257 1260 q 250 1287 247 1274 q 264 1307 253 1300 q 290 1312 275 1314 q 317 1296 304 1310 l 450 1136 l 585 1296 q 610 1312 596 1310 q 636 1307 625 1314 q 650 1287 647 1300 q 643 1260 653 1274 l 522 1088 q 490 1059 507 1068 q 450 1050 472 1050 z "},"Ȩ":{"ha":810,"x_min":121,"x_max":749,"o":"m 183 0 q 137 16 153 0 q 121 63 121 32 l 121 917 q 137 963 121 947 q 183 979 153 979 l 700 979 q 736 967 724 979 q 749 932 749 954 q 736 896 749 908 q 700 883 724 883 l 232 883 l 232 544 l 671 544 q 707 533 694 544 q 719 497 719 521 q 707 461 719 474 q 671 449 694 449 l 232 449 l 232 96 l 700 96 q 736 83 724 96 q 749 49 749 71 q 736 13 749 25 q 700 0 724 0 l 183 0 m 454 -267 q 402 -263 429 -267 q 353 -250 375 -260 q 332 -232 338 -244 q 331 -207 326 -219 q 346 -188 335 -194 q 374 -189 357 -182 q 409 -199 390 -196 q 451 -201 428 -201 q 510 -188 488 -201 q 532 -150 532 -175 q 519 -122 532 -132 q 479 -111 507 -111 q 458 -112 468 -111 q 433 -117 447 -114 q 414 -121 421 -121 q 400 -117 407 -121 q 394 -103 394 -111 q 394 -82 393 -96 l 411 28 l 482 28 l 464 -76 l 431 -68 q 463 -61 447 -64 q 493 -58 479 -58 q 576 -83 543 -58 q 610 -153 610 -108 q 567 -235 610 -204 q 454 -267 524 -267 z "},"Ḝ":{"ha":810,"x_min":121,"x_max":749,"o":"m 183 0 q 137 16 153 0 q 121 63 121 32 l 121 917 q 137 963 121 947 q 183 979 153 979 l 700 979 q 736 967 724 979 q 749 932 749 954 q 736 896 749 908 q 700 883 724 883 l 232 883 l 232 544 l 671 544 q 707 533 694 544 q 719 497 719 521 q 707 461 719 474 q 671 449 694 449 l 232 449 l 232 96 l 700 96 q 736 83 724 96 q 749 49 749 71 q 736 13 749 25 q 700 0 724 0 l 183 0 m 454 -267 q 402 -263 429 -267 q 353 -250 375 -260 q 332 -232 338 -244 q 331 -207 326 -219 q 346 -188 335 -194 q 374 -189 357 -182 q 409 -199 390 -196 q 451 -201 428 -201 q 510 -188 488 -201 q 532 -150 532 -175 q 519 -122 532 -132 q 479 -111 507 -111 q 458 -112 468 -111 q 433 -117 447 -114 q 414 -121 421 -121 q 400 -117 407 -121 q 394 -103 394 -111 q 394 -82 393 -96 l 411 28 l 482 28 l 464 -76 l 431 -68 q 463 -61 447 -64 q 493 -58 479 -58 q 576 -83 543 -58 q 610 -153 610 -108 q 567 -235 610 -204 q 454 -267 524 -267 m 450 1056 q 305 1105 368 1056 q 219 1256 242 1154 q 225 1288 215 1275 q 250 1300 235 1300 q 270 1297 261 1301 q 284 1286 279 1293 q 290 1269 289 1279 q 351 1162 306 1193 q 450 1131 397 1131 q 550 1162 504 1131 q 610 1269 596 1193 q 616 1286 611 1279 q 630 1297 621 1293 q 650 1300 639 1301 q 675 1288 665 1300 q 681 1256 685 1275 q 596 1105 660 1154 q 450 1056 532 1056 z "},"Ê":{"ha":810,"x_min":121,"x_max":749,"o":"m 183 0 q 137 16 153 0 q 121 63 121 32 l 121 917 q 137 963 121 947 q 183 979 153 979 l 700 979 q 736 967 724 979 q 749 932 749 954 q 736 896 749 908 q 700 883 724 883 l 232 883 l 232 544 l 671 544 q 707 533 694 544 q 719 497 719 521 q 707 461 719 474 q 671 449 694 449 l 232 449 l 232 96 l 700 96 q 736 83 724 96 q 749 49 749 71 q 736 13 749 25 q 700 0 724 0 l 183 0 m 317 1067 q 290 1053 304 1054 q 264 1058 275 1051 q 250 1078 253 1065 q 257 1104 247 1090 l 379 1275 q 411 1305 393 1296 q 450 1314 429 1314 q 490 1305 472 1314 q 522 1275 507 1296 l 643 1104 q 651 1078 654 1090 q 637 1058 649 1065 q 610 1053 625 1051 q 585 1067 596 1054 l 450 1228 l 317 1067 z "},"Ế":{"ha":810,"x_min":121,"x_max":778,"o":"m 183 0 q 137 16 153 0 q 121 63 121 32 l 121 917 q 137 963 121 947 q 183 979 153 979 l 700 979 q 736 967 724 979 q 749 932 749 954 q 736 896 749 908 q 700 883 724 883 l 232 883 l 232 544 l 671 544 q 707 533 694 544 q 719 497 719 521 q 707 461 719 474 q 671 449 694 449 l 232 449 l 232 96 l 700 96 q 736 83 724 96 q 749 49 749 71 q 736 13 749 25 q 700 0 724 0 l 183 0 m 326 1067 q 301 1052 314 1054 q 278 1056 288 1050 q 265 1076 268 1063 q 272 1103 263 1089 l 381 1263 q 412 1293 394 1285 q 450 1301 429 1301 q 476 1298 464 1301 q 500 1286 489 1294 q 519 1263 511 1278 l 628 1103 q 635 1076 638 1089 q 624 1056 633 1063 q 600 1052 614 1050 q 574 1067 586 1054 l 450 1215 l 326 1067 m 649 1200 q 627 1188 639 1189 q 606 1192 615 1186 q 593 1210 596 1199 q 599 1238 590 1222 l 694 1403 q 718 1426 704 1421 q 745 1427 732 1431 q 767 1414 758 1424 q 777 1390 776 1404 q 767 1361 778 1375 l 649 1200 z "},"Ệ":{"ha":810,"x_min":121,"x_max":749,"o":"m 183 0 q 137 16 153 0 q 121 63 121 32 l 121 917 q 137 963 121 947 q 183 979 153 979 l 700 979 q 736 967 724 979 q 749 932 749 954 q 736 896 749 908 q 700 883 724 883 l 232 883 l 232 544 l 671 544 q 707 533 694 544 q 719 497 719 521 q 707 461 719 474 q 671 449 694 449 l 232 449 l 232 96 l 700 96 q 736 83 724 96 q 749 49 749 71 q 736 13 749 25 q 700 0 724 0 l 183 0 m 450 -265 q 400 -247 418 -265 q 382 -199 382 -229 q 400 -150 382 -167 q 450 -133 418 -133 q 501 -150 483 -133 q 519 -199 519 -167 q 501 -247 519 -229 q 450 -265 483 -265 m 317 1067 q 290 1053 304 1054 q 264 1058 275 1051 q 250 1078 253 1065 q 257 1104 247 1090 l 379 1275 q 411 1305 393 1296 q 450 1314 429 1314 q 490 1305 472 1314 q 522 1275 507 1296 l 643 1104 q 651 1078 654 1090 q 637 1058 649 1065 q 610 1053 625 1051 q 585 1067 596 1054 l 450 1228 l 317 1067 z "},"Ề":{"ha":810,"x_min":121,"x_max":749,"o":"m 183 0 q 137 16 153 0 q 121 63 121 32 l 121 917 q 137 963 121 947 q 183 979 153 979 l 700 979 q 736 967 724 979 q 749 932 749 954 q 736 896 749 908 q 700 883 724 883 l 232 883 l 232 544 l 671 544 q 707 533 694 544 q 719 497 719 521 q 707 461 719 474 q 671 449 694 449 l 232 449 l 232 96 l 700 96 q 736 83 724 96 q 749 49 749 71 q 736 13 749 25 q 700 0 724 0 l 183 0 m 326 1067 q 301 1052 314 1054 q 278 1056 288 1050 q 265 1076 268 1063 q 272 1103 263 1089 l 381 1263 q 412 1293 394 1285 q 450 1301 429 1301 q 476 1298 464 1301 q 500 1286 489 1294 q 519 1263 511 1278 l 628 1103 q 635 1076 638 1089 q 624 1056 633 1063 q 600 1052 614 1050 q 574 1067 586 1054 l 450 1215 l 326 1067 m 642 1200 l 522 1361 q 513 1390 513 1375 q 523 1414 514 1404 q 545 1427 532 1424 q 572 1426 558 1431 q 596 1403 585 1421 l 692 1238 q 697 1210 700 1222 q 685 1192 694 1199 q 663 1188 675 1186 q 642 1200 650 1189 z "},"Ể":{"ha":810,"x_min":121,"x_max":756,"o":"m 183 0 q 137 16 153 0 q 121 63 121 32 l 121 917 q 137 963 121 947 q 183 979 153 979 l 700 979 q 736 967 724 979 q 749 932 749 954 q 736 896 749 908 q 700 883 724 883 l 232 883 l 232 544 l 671 544 q 707 533 694 544 q 719 497 719 521 q 707 461 719 474 q 671 449 694 449 l 232 449 l 232 96 l 700 96 q 736 83 724 96 q 749 49 749 71 q 736 13 749 25 q 700 0 724 0 l 183 0 m 326 1067 q 301 1052 314 1054 q 278 1056 288 1050 q 265 1076 268 1063 q 272 1103 263 1089 l 381 1263 q 412 1293 394 1285 q 450 1301 429 1301 q 476 1298 464 1301 q 500 1286 489 1294 q 519 1263 511 1278 l 628 1103 q 635 1076 638 1089 q 624 1056 633 1063 q 600 1052 614 1050 q 574 1067 586 1054 l 450 1215 l 326 1067 m 643 1201 q 613 1198 626 1193 q 596 1216 599 1203 q 610 1240 593 1229 q 657 1280 640 1261 q 674 1321 674 1299 q 659 1351 674 1342 q 611 1360 644 1360 q 585 1358 599 1360 q 557 1353 572 1357 q 529 1353 540 1349 q 514 1369 518 1357 q 517 1392 511 1383 q 539 1407 522 1401 q 583 1417 560 1414 q 632 1419 607 1419 q 723 1400 690 1419 q 756 1338 756 1381 q 739 1283 756 1308 q 697 1237 722 1257 q 643 1201 671 1217 z "},"Ễ":{"ha":810,"x_min":121,"x_max":749,"o":"m 183 0 q 137 16 153 0 q 121 63 121 32 l 121 917 q 137 963 121 947 q 183 979 153 979 l 700 979 q 736 967 724 979 q 749 932 749 954 q 736 896 749 908 q 700 883 724 883 l 232 883 l 232 544 l 671 544 q 707 533 694 544 q 719 497 719 521 q 707 461 719 474 q 671 449 694 449 l 232 449 l 232 96 l 700 96 q 736 83 724 96 q 749 49 749 71 q 736 13 749 25 q 700 0 724 0 l 183 0 m 319 1063 q 288 1052 304 1049 q 266 1069 271 1056 q 275 1099 261 1083 l 376 1221 q 412 1248 394 1240 q 450 1256 429 1256 q 478 1252 465 1256 q 501 1241 490 1249 q 524 1221 513 1233 l 625 1099 q 635 1076 636 1088 q 626 1057 633 1064 q 606 1051 618 1050 q 581 1063 593 1051 l 450 1181 l 319 1063 m 263 1278 q 241 1290 249 1279 q 238 1321 233 1301 q 282 1397 250 1372 q 361 1422 314 1422 q 428 1404 399 1422 q 483 1368 457 1386 q 538 1350 510 1350 q 578 1360 561 1350 q 600 1396 594 1371 q 614 1419 604 1411 q 639 1425 624 1426 q 660 1413 653 1424 q 664 1383 668 1403 q 619 1306 651 1332 q 540 1281 586 1281 q 473 1299 503 1281 q 417 1335 443 1317 q 363 1353 392 1353 q 323 1342 339 1353 q 300 1307 307 1332 q 287 1285 296 1293 q 263 1278 278 1276 z "},"Ȅ":{"ha":810,"x_min":121,"x_max":749,"o":"m 183 0 q 137 16 153 0 q 121 63 121 32 l 121 917 q 137 963 121 947 q 183 979 153 979 l 700 979 q 736 967 724 979 q 749 932 749 954 q 736 896 749 908 q 700 883 724 883 l 232 883 l 232 544 l 671 544 q 707 533 694 544 q 719 497 719 521 q 707 461 719 474 q 671 449 694 449 l 232 449 l 232 96 l 700 96 q 736 83 724 96 q 749 49 749 71 q 736 13 749 25 q 700 0 724 0 l 183 0 m 500 1068 l 382 1243 q 372 1274 369 1260 q 383 1299 374 1289 q 408 1312 393 1308 q 437 1309 422 1315 q 460 1285 451 1303 l 556 1096 q 558 1071 563 1082 q 544 1055 554 1060 q 522 1053 533 1050 q 500 1068 510 1056 m 326 1067 l 203 1243 q 192 1274 190 1260 q 203 1299 193 1289 q 227 1312 213 1308 q 256 1310 242 1315 q 279 1285 269 1304 l 376 1097 q 381 1073 383 1085 q 368 1056 378 1061 q 347 1052 358 1050 q 326 1067 336 1054 z "},"Ë":{"ha":810,"x_min":121,"x_max":749,"o":"m 183 0 q 137 16 153 0 q 121 63 121 32 l 121 917 q 137 963 121 947 q 183 979 153 979 l 700 979 q 736 967 724 979 q 749 932 749 954 q 736 896 749 908 q 700 883 724 883 l 232 883 l 232 544 l 671 544 q 707 533 694 544 q 719 497 719 521 q 707 461 719 474 q 671 449 694 449 l 232 449 l 232 96 l 700 96 q 736 83 724 96 q 749 49 749 71 q 736 13 749 25 q 700 0 724 0 l 183 0 m 572 1114 q 523 1131 540 1114 q 506 1179 506 1147 q 523 1226 506 1210 q 572 1243 540 1243 q 619 1226 603 1243 q 636 1179 636 1210 q 619 1131 636 1147 q 572 1114 603 1114 m 329 1114 q 281 1131 299 1114 q 264 1179 264 1147 q 281 1226 264 1210 q 329 1243 299 1243 q 378 1226 361 1243 q 394 1179 394 1210 q 378 1131 394 1147 q 329 1114 361 1114 z "},"Ė":{"ha":810,"x_min":121,"x_max":749,"o":"m 183 0 q 137 16 153 0 q 121 63 121 32 l 121 917 q 137 963 121 947 q 183 979 153 979 l 700 979 q 736 967 724 979 q 749 932 749 954 q 736 896 749 908 q 700 883 724 883 l 232 883 l 232 544 l 671 544 q 707 533 694 544 q 719 497 719 521 q 707 461 719 474 q 671 449 694 449 l 232 449 l 232 96 l 700 96 q 736 83 724 96 q 749 49 749 71 q 736 13 749 25 q 700 0 724 0 l 183 0 m 450 1115 q 400 1133 418 1115 q 382 1182 382 1150 q 400 1231 382 1214 q 450 1247 418 1247 q 501 1231 483 1247 q 518 1182 518 1214 q 501 1133 518 1150 q 450 1115 483 1115 z "},"Ẹ":{"ha":810,"x_min":121,"x_max":749,"o":"m 183 0 q 137 16 153 0 q 121 63 121 32 l 121 917 q 137 963 121 947 q 183 979 153 979 l 700 979 q 736 967 724 979 q 749 932 749 954 q 736 896 749 908 q 700 883 724 883 l 232 883 l 232 544 l 671 544 q 707 533 694 544 q 719 497 719 521 q 707 461 719 474 q 671 449 694 449 l 232 449 l 232 96 l 700 96 q 736 83 724 96 q 749 49 749 71 q 736 13 749 25 q 700 0 724 0 l 183 0 m 450 -265 q 400 -247 418 -265 q 382 -199 382 -229 q 400 -150 382 -167 q 450 -133 418 -133 q 501 -150 483 -133 q 519 -199 519 -167 q 501 -247 519 -229 q 450 -265 483 -265 z "},"È":{"ha":810,"x_min":121,"x_max":749,"o":"m 183 0 q 137 16 153 0 q 121 63 121 32 l 121 917 q 137 963 121 947 q 183 979 153 979 l 700 979 q 736 967 724 979 q 749 932 749 954 q 736 896 749 908 q 700 883 724 883 l 232 883 l 232 544 l 671 544 q 707 533 694 544 q 719 497 719 521 q 707 461 719 474 q 671 449 694 449 l 232 449 l 232 96 l 700 96 q 736 83 724 96 q 749 49 749 71 q 736 13 749 25 q 700 0 724 0 l 183 0 m 401 1068 l 257 1239 q 245 1269 244 1254 q 256 1294 246 1283 q 280 1310 265 1306 q 310 1311 294 1315 q 338 1289 326 1307 l 461 1110 q 467 1082 471 1094 q 453 1062 464 1069 q 428 1055 442 1054 q 401 1068 414 1056 z "},"Ẻ":{"ha":810,"x_min":121,"x_max":749,"o":"m 183 0 q 137 16 153 0 q 121 63 121 32 l 121 917 q 137 963 121 947 q 183 979 153 979 l 700 979 q 736 967 724 979 q 749 932 749 954 q 736 896 749 908 q 700 883 724 883 l 232 883 l 232 544 l 671 544 q 707 533 694 544 q 719 497 719 521 q 707 461 719 474 q 671 449 694 449 l 232 449 l 232 96 l 700 96 q 736 83 724 96 q 749 49 749 71 q 736 13 749 25 q 700 0 724 0 l 183 0 m 450 1053 q 422 1060 432 1053 q 411 1085 411 1068 q 424 1130 411 1113 q 455 1160 438 1147 q 485 1183 472 1172 q 499 1211 499 1194 q 483 1235 499 1226 q 435 1243 467 1243 q 407 1242 422 1243 q 378 1235 392 1240 q 345 1232 357 1229 q 329 1250 333 1235 q 331 1275 325 1264 q 353 1293 336 1286 q 402 1306 375 1301 q 457 1310 429 1310 q 555 1286 519 1310 q 590 1224 590 1263 q 575 1176 590 1194 q 540 1147 560 1158 q 504 1119 519 1135 q 489 1078 489 1104 q 479 1060 489 1067 q 450 1053 469 1053 z "},"Ȇ":{"ha":810,"x_min":121,"x_max":749,"o":"m 183 0 q 137 16 153 0 q 121 63 121 32 l 121 917 q 137 963 121 947 q 183 979 153 979 l 700 979 q 736 967 724 979 q 749 932 749 954 q 736 896 749 908 q 700 883 724 883 l 232 883 l 232 544 l 671 544 q 707 533 694 544 q 719 497 719 521 q 707 461 719 474 q 671 449 694 449 l 232 449 l 232 96 l 700 96 q 736 83 724 96 q 749 49 749 71 q 736 13 749 25 q 700 0 724 0 l 183 0 m 250 1054 q 225 1067 235 1056 q 219 1100 215 1079 q 305 1250 242 1201 q 450 1299 368 1299 q 596 1250 532 1299 q 681 1100 660 1201 q 675 1067 685 1079 q 650 1054 665 1056 q 630 1057 639 1053 q 616 1069 621 1061 q 610 1086 611 1076 q 549 1192 593 1161 q 450 1224 504 1224 q 352 1192 397 1224 q 290 1086 307 1161 q 284 1069 289 1076 q 270 1057 279 1061 q 250 1054 261 1053 z "},"Ē":{"ha":810,"x_min":121,"x_max":749,"o":"m 183 0 q 137 16 153 0 q 121 63 121 32 l 121 917 q 137 963 121 947 q 183 979 153 979 l 700 979 q 736 967 724 979 q 749 932 749 954 q 736 896 749 908 q 700 883 724 883 l 232 883 l 232 544 l 671 544 q 707 533 694 544 q 719 497 719 521 q 707 461 719 474 q 671 449 694 449 l 232 449 l 232 96 l 700 96 q 736 83 724 96 q 749 49 749 71 q 736 13 749 25 q 700 0 724 0 l 183 0 m 261 1131 q 221 1169 221 1131 q 231 1197 221 1188 q 261 1207 242 1207 l 639 1207 q 681 1169 681 1207 q 670 1141 681 1151 q 639 1131 660 1131 l 261 1131 z "},"Ḗ":{"ha":810,"x_min":121,"x_max":749,"o":"m 183 0 q 137 16 153 0 q 121 63 121 32 l 121 917 q 137 963 121 947 q 183 979 153 979 l 700 979 q 736 967 724 979 q 749 932 749 954 q 736 896 749 908 q 700 883 724 883 l 232 883 l 232 544 l 671 544 q 707 533 694 544 q 719 497 719 521 q 707 461 719 474 q 671 449 694 449 l 232 449 l 232 96 l 700 96 q 736 83 724 96 q 749 49 749 71 q 736 13 749 25 q 700 0 724 0 l 183 0 m 282 1097 q 251 1107 263 1097 q 239 1135 239 1117 q 251 1163 239 1153 q 282 1174 263 1174 l 618 1174 q 650 1163 639 1174 q 661 1135 661 1153 q 650 1107 661 1117 q 618 1097 639 1097 l 282 1097 m 488 1222 q 465 1209 478 1210 q 441 1215 451 1208 q 427 1233 431 1221 q 432 1261 424 1246 l 525 1413 q 551 1437 536 1431 q 581 1439 567 1443 q 606 1424 596 1435 q 617 1399 615 1414 q 606 1369 618 1385 l 488 1222 z "},"Ḕ":{"ha":810,"x_min":121,"x_max":749,"o":"m 183 0 q 137 16 153 0 q 121 63 121 32 l 121 917 q 137 963 121 947 q 183 979 153 979 l 700 979 q 736 967 724 979 q 749 932 749 954 q 736 896 749 908 q 700 883 724 883 l 232 883 l 232 544 l 671 544 q 707 533 694 544 q 719 497 719 521 q 707 461 719 474 q 671 449 694 449 l 232 449 l 232 96 l 700 96 q 736 83 724 96 q 749 49 749 71 q 736 13 749 25 q 700 0 724 0 l 183 0 m 413 1222 l 294 1369 q 283 1399 282 1385 q 294 1424 285 1414 q 319 1439 304 1435 q 349 1437 333 1443 q 375 1413 364 1431 l 468 1261 q 473 1233 476 1246 q 459 1215 469 1221 q 435 1209 449 1208 q 413 1222 422 1210 m 282 1097 q 251 1107 263 1097 q 239 1135 239 1117 q 251 1163 239 1153 q 282 1174 263 1174 l 618 1174 q 650 1163 639 1174 q 661 1135 661 1153 q 650 1107 661 1117 q 618 1097 639 1097 l 282 1097 z "},"Ę":{"ha":810,"x_min":121,"x_max":768,"o":"m 183 0 q 137 16 153 0 q 121 63 121 32 l 121 917 q 137 963 121 947 q 183 979 153 979 l 700 979 q 736 967 724 979 q 749 932 749 954 q 736 896 749 908 q 700 883 724 883 l 232 883 l 232 544 l 671 544 q 707 533 694 544 q 719 497 719 521 q 707 461 719 474 q 671 449 694 449 l 232 449 l 232 96 l 700 96 q 736 83 724 96 q 749 49 749 71 q 736 13 749 25 q 700 0 724 0 l 183 0 m 660 -267 q 554 -231 594 -267 q 514 -132 514 -194 q 549 -27 514 -76 q 646 50 585 22 l 686 0 q 644 -26 665 -8 q 608 -67 622 -43 q 594 -119 594 -90 q 617 -178 594 -158 q 675 -197 640 -197 q 699 -195 688 -197 q 724 -189 711 -193 q 753 -190 742 -183 q 766 -210 764 -197 q 763 -236 768 -224 q 742 -254 757 -249 q 700 -265 721 -262 q 660 -267 679 -267 z "},"Ẽ":{"ha":810,"x_min":121,"x_max":749,"o":"m 183 0 q 137 16 153 0 q 121 63 121 32 l 121 917 q 137 963 121 947 q 183 979 153 979 l 700 979 q 736 967 724 979 q 749 932 749 954 q 736 896 749 908 q 700 883 724 883 l 232 883 l 232 544 l 671 544 q 707 533 694 544 q 719 497 719 521 q 707 461 719 474 q 671 449 694 449 l 232 449 l 232 96 l 700 96 q 736 83 724 96 q 749 49 749 71 q 736 13 749 25 q 700 0 724 0 l 183 0 m 194 1083 q 170 1094 179 1083 q 164 1122 161 1104 q 222 1236 178 1196 q 326 1276 265 1276 q 397 1260 364 1276 q 462 1224 431 1244 q 522 1187 493 1203 q 578 1171 550 1171 q 639 1194 615 1171 q 669 1257 663 1218 q 683 1279 674 1272 q 706 1285 692 1286 q 731 1274 721 1285 q 736 1246 740 1264 q 680 1132 722 1172 q 575 1092 638 1092 q 503 1108 538 1092 q 439 1144 469 1124 q 379 1181 408 1164 q 322 1197 350 1197 q 262 1174 286 1197 q 231 1111 238 1150 q 217 1090 226 1097 q 194 1083 208 1082 z "},"Ə":{"ha":1065,"x_min":85,"x_max":982,"o":"m 540 -12 q 342 24 428 -12 q 199 126 256 60 q 113 286 142 193 q 85 492 85 379 q 95 530 85 518 q 128 542 106 542 l 894 542 l 894 446 l 171 446 l 203 492 q 240 269 203 360 q 351 133 276 179 q 536 88 425 88 q 711 135 639 88 q 822 272 783 182 q 861 490 861 361 q 818 708 861 619 q 693 844 775 797 q 492 890 611 890 q 335 870 404 890 q 204 804 267 850 q 169 794 185 793 q 142 806 153 796 q 128 832 132 817 q 130 863 125 847 q 153 890 135 878 q 309 966 219 940 q 503 992 399 992 q 757 931 650 992 q 923 758 864 869 q 982 490 982 646 q 951 281 982 374 q 861 123 919 188 q 722 23 803 58 q 540 -12 640 -12 z "},"F":{"ha":761,"x_min":121,"x_max":736,"o":"m 182 -10 q 137 6 153 -10 q 121 53 121 22 l 121 917 q 137 963 121 947 q 183 979 153 979 l 688 979 q 724 967 711 979 q 736 932 736 954 q 724 896 736 908 q 688 883 711 883 l 235 883 l 235 542 l 658 542 q 695 529 682 542 q 708 494 708 517 q 695 458 708 471 q 658 446 682 446 l 235 446 l 235 53 q 182 -10 235 -10 z "},"G":{"ha":1008,"x_min":85,"x_max":896,"o":"m 568 -12 q 303 47 411 -12 q 140 219 196 107 q 85 489 85 332 q 116 699 85 606 q 208 856 147 792 q 355 956 268 921 q 551 992 442 992 q 721 967 639 992 q 867 890 803 943 q 888 863 883 878 q 887 832 892 847 q 872 806 882 817 q 845 794 861 796 q 813 804 829 793 q 692 869 756 849 q 550 889 628 889 q 362 842 439 889 q 245 706 285 794 q 206 489 206 617 q 297 192 206 294 q 571 89 388 89 q 701 102 638 89 q 822 139 765 115 l 797 74 l 797 419 l 599 419 q 561 432 574 419 q 549 465 549 444 q 561 499 549 488 q 599 510 574 510 l 847 510 q 883 497 871 510 q 896 461 896 485 l 896 99 q 889 64 896 78 q 865 43 882 50 q 726 3 807 19 q 568 -12 644 -12 z "},"Ğ":{"ha":1008,"x_min":85,"x_max":896,"o":"m 568 -12 q 303 47 411 -12 q 140 219 196 107 q 85 489 85 332 q 116 699 85 606 q 208 856 147 792 q 355 956 268 921 q 551 992 442 992 q 721 967 639 992 q 867 890 803 943 q 888 863 883 878 q 887 832 892 847 q 872 806 882 817 q 845 794 861 796 q 813 804 829 793 q 692 869 756 849 q 550 889 628 889 q 362 842 439 889 q 245 706 285 794 q 206 489 206 617 q 297 192 206 294 q 571 89 388 89 q 701 102 638 89 q 822 139 765 115 l 797 74 l 797 419 l 599 419 q 561 432 574 419 q 549 465 549 444 q 561 499 549 488 q 599 510 574 510 l 847 510 q 883 497 871 510 q 896 461 896 485 l 896 99 q 889 64 896 78 q 865 43 882 50 q 726 3 807 19 q 568 -12 644 -12 m 543 1056 q 398 1105 461 1056 q 313 1256 335 1154 q 318 1288 308 1275 q 343 1300 328 1300 q 363 1297 354 1301 q 377 1286 372 1293 q 383 1269 382 1279 q 444 1162 399 1193 q 543 1131 490 1131 q 643 1162 597 1131 q 703 1269 689 1193 q 709 1286 704 1279 q 723 1297 714 1293 q 743 1300 732 1301 q 768 1288 758 1300 q 774 1256 778 1275 q 689 1105 753 1154 q 543 1056 625 1056 z "},"Ǧ":{"ha":1008,"x_min":85,"x_max":896,"o":"m 568 -12 q 303 47 411 -12 q 140 219 196 107 q 85 489 85 332 q 116 699 85 606 q 208 856 147 792 q 355 956 268 921 q 551 992 442 992 q 721 967 639 992 q 867 890 803 943 q 888 863 883 878 q 887 832 892 847 q 872 806 882 817 q 845 794 861 796 q 813 804 829 793 q 692 869 756 849 q 550 889 628 889 q 362 842 439 889 q 245 706 285 794 q 206 489 206 617 q 297 192 206 294 q 571 89 388 89 q 701 102 638 89 q 822 139 765 115 l 797 74 l 797 419 l 599 419 q 561 432 574 419 q 549 465 549 444 q 561 499 549 488 q 599 510 574 510 l 847 510 q 883 497 871 510 q 896 461 896 485 l 896 99 q 889 64 896 78 q 865 43 882 50 q 726 3 807 19 q 568 -12 644 -12 m 543 1050 q 504 1059 522 1050 q 472 1088 486 1068 l 350 1260 q 343 1287 340 1274 q 357 1307 346 1300 q 383 1312 368 1314 q 410 1296 397 1310 l 543 1136 l 678 1296 q 703 1312 689 1310 q 729 1307 718 1314 q 743 1287 740 1300 q 736 1260 746 1274 l 615 1088 q 583 1059 600 1068 q 543 1050 565 1050 z "},"Ĝ":{"ha":1008,"x_min":85,"x_max":896,"o":"m 568 -12 q 303 47 411 -12 q 140 219 196 107 q 85 489 85 332 q 116 699 85 606 q 208 856 147 792 q 355 956 268 921 q 551 992 442 992 q 721 967 639 992 q 867 890 803 943 q 888 863 883 878 q 887 832 892 847 q 872 806 882 817 q 845 794 861 796 q 813 804 829 793 q 692 869 756 849 q 550 889 628 889 q 362 842 439 889 q 245 706 285 794 q 206 489 206 617 q 297 192 206 294 q 571 89 388 89 q 701 102 638 89 q 822 139 765 115 l 797 74 l 797 419 l 599 419 q 561 432 574 419 q 549 465 549 444 q 561 499 549 488 q 599 510 574 510 l 847 510 q 883 497 871 510 q 896 461 896 485 l 896 99 q 889 64 896 78 q 865 43 882 50 q 726 3 807 19 q 568 -12 644 -12 m 410 1067 q 383 1053 397 1054 q 357 1058 368 1051 q 343 1078 346 1065 q 350 1104 340 1090 l 472 1275 q 504 1305 486 1296 q 543 1314 522 1314 q 583 1305 565 1314 q 615 1275 600 1296 l 736 1104 q 744 1078 747 1090 q 730 1058 742 1065 q 703 1053 718 1051 q 678 1067 689 1054 l 543 1228 l 410 1067 z "},"Ģ":{"ha":1008,"x_min":85,"x_max":896,"o":"m 568 -12 q 303 47 411 -12 q 140 219 196 107 q 85 489 85 332 q 116 699 85 606 q 208 856 147 792 q 355 956 268 921 q 551 992 442 992 q 721 967 639 992 q 867 890 803 943 q 888 863 883 878 q 887 832 892 847 q 872 806 882 817 q 845 794 861 796 q 813 804 829 793 q 692 869 756 849 q 550 889 628 889 q 362 842 439 889 q 245 706 285 794 q 206 489 206 617 q 297 192 206 294 q 571 89 388 89 q 701 102 638 89 q 822 139 765 115 l 797 74 l 797 419 l 599 419 q 561 432 574 419 q 549 465 549 444 q 561 499 549 488 q 599 510 574 510 l 847 510 q 883 497 871 510 q 896 461 896 485 l 896 99 q 889 64 896 78 q 865 43 882 50 q 726 3 807 19 q 568 -12 644 -12 m 572 -347 q 547 -364 560 -361 q 523 -359 533 -367 q 512 -339 513 -351 q 522 -308 511 -326 q 545 -262 538 -287 q 553 -217 553 -237 l 557 -237 q 501 -219 521 -237 q 481 -171 481 -201 q 499 -122 481 -140 q 551 -104 518 -104 q 605 -124 586 -104 q 624 -185 624 -144 q 618 -240 624 -211 q 601 -297 613 -269 q 572 -347 590 -325 z "},"Ġ":{"ha":1008,"x_min":85,"x_max":896,"o":"m 568 -12 q 303 47 411 -12 q 140 219 196 107 q 85 489 85 332 q 116 699 85 606 q 208 856 147 792 q 355 956 268 921 q 551 992 442 992 q 721 967 639 992 q 867 890 803 943 q 888 863 883 878 q 887 832 892 847 q 872 806 882 817 q 845 794 861 796 q 813 804 829 793 q 692 869 756 849 q 550 889 628 889 q 362 842 439 889 q 245 706 285 794 q 206 489 206 617 q 297 192 206 294 q 571 89 388 89 q 701 102 638 89 q 822 139 765 115 l 797 74 l 797 419 l 599 419 q 561 432 574 419 q 549 465 549 444 q 561 499 549 488 q 599 510 574 510 l 847 510 q 883 497 871 510 q 896 461 896 485 l 896 99 q 889 64 896 78 q 865 43 882 50 q 726 3 807 19 q 568 -12 644 -12 m 543 1115 q 493 1133 511 1115 q 475 1182 475 1150 q 493 1231 475 1214 q 543 1247 511 1247 q 594 1231 576 1247 q 611 1182 611 1214 q 594 1133 611 1150 q 543 1115 576 1115 z "},"Ḡ":{"ha":1008,"x_min":85,"x_max":896,"o":"m 568 -12 q 303 47 411 -12 q 140 219 196 107 q 85 489 85 332 q 116 699 85 606 q 208 856 147 792 q 355 956 268 921 q 551 992 442 992 q 721 967 639 992 q 867 890 803 943 q 888 863 883 878 q 887 832 892 847 q 872 806 882 817 q 845 794 861 796 q 813 804 829 793 q 692 869 756 849 q 550 889 628 889 q 362 842 439 889 q 245 706 285 794 q 206 489 206 617 q 297 192 206 294 q 571 89 388 89 q 701 102 638 89 q 822 139 765 115 l 797 74 l 797 419 l 599 419 q 561 432 574 419 q 549 465 549 444 q 561 499 549 488 q 599 510 574 510 l 847 510 q 883 497 871 510 q 896 461 896 485 l 896 99 q 889 64 896 78 q 865 43 882 50 q 726 3 807 19 q 568 -12 644 -12 m 354 1131 q 314 1169 314 1131 q 324 1197 314 1188 q 354 1207 335 1207 l 732 1207 q 774 1169 774 1207 q 763 1141 774 1151 q 732 1131 753 1131 l 354 1131 z "},"H":{"ha":1057,"x_min":121,"x_max":936,"o":"m 178 -10 q 135 6 150 -10 q 121 50 121 22 l 121 929 q 135 974 121 958 q 178 989 150 989 q 220 974 206 989 q 235 929 235 958 l 235 546 l 822 546 l 822 929 q 837 974 822 958 q 879 989 851 989 q 922 974 907 989 q 936 929 936 958 l 936 50 q 922 6 936 22 q 879 -10 907 -10 q 837 6 851 -10 q 822 50 822 22 l 822 447 l 235 447 l 235 50 q 221 6 235 22 q 178 -10 207 -10 z "},"Ħ":{"ha":1108,"x_min":11,"x_max":1099,"o":"m 204 -10 q 161 6 176 -10 q 146 50 146 22 l 146 738 l 178 721 l 58 721 q 11 767 11 721 q 24 799 11 788 q 58 811 36 811 l 168 811 l 146 779 l 146 929 q 161 974 146 958 q 204 989 176 989 q 247 974 232 989 q 261 929 261 958 l 261 779 l 243 811 l 865 811 l 847 779 l 847 929 q 863 974 847 958 q 906 989 878 989 q 948 974 933 989 q 963 929 963 958 l 963 779 l 938 811 l 1050 811 q 1099 767 1099 811 q 1086 733 1099 746 q 1050 721 1074 721 l 928 721 l 963 740 l 963 50 q 948 6 963 22 q 906 -10 933 -10 q 863 6 878 -10 q 847 50 847 22 l 847 440 l 261 440 l 261 50 q 247 6 261 22 q 204 -10 233 -10 m 261 539 l 847 539 l 847 721 l 261 721 l 261 539 z "},"Ḫ":{"ha":1057,"x_min":121,"x_max":936,"o":"m 178 -10 q 135 6 150 -10 q 121 50 121 22 l 121 929 q 135 974 121 958 q 178 989 150 989 q 220 974 206 989 q 235 929 235 958 l 235 546 l 822 546 l 822 929 q 837 974 822 958 q 879 989 851 989 q 922 974 907 989 q 936 929 936 958 l 936 50 q 922 6 936 22 q 879 -10 907 -10 q 837 6 851 -10 q 822 50 822 22 l 822 447 l 235 447 l 235 50 q 221 6 235 22 q 178 -10 207 -10 m 529 -299 q 390 -253 446 -299 q 319 -125 335 -207 q 324 -91 315 -103 q 349 -78 332 -79 q 367 -79 358 -76 q 381 -90 375 -82 q 389 -110 386 -97 q 437 -194 400 -164 q 529 -224 474 -224 q 622 -194 586 -224 q 669 -110 658 -164 q 684 -83 674 -90 q 710 -78 694 -75 q 736 -91 728 -79 q 739 -125 744 -103 q 668 -253 724 -207 q 529 -299 613 -299 z "},"Ĥ":{"ha":1057,"x_min":121,"x_max":936,"o":"m 178 -10 q 135 6 150 -10 q 121 50 121 22 l 121 929 q 135 974 121 958 q 178 989 150 989 q 220 974 206 989 q 235 929 235 958 l 235 546 l 822 546 l 822 929 q 837 974 822 958 q 879 989 851 989 q 922 974 907 989 q 936 929 936 958 l 936 50 q 922 6 936 22 q 879 -10 907 -10 q 837 6 851 -10 q 822 50 822 22 l 822 447 l 235 447 l 235 50 q 221 6 235 22 q 178 -10 207 -10 m 394 1067 q 367 1053 382 1054 q 342 1058 353 1051 q 328 1078 331 1065 q 335 1104 325 1090 l 457 1275 q 489 1305 471 1296 q 528 1314 507 1314 q 567 1305 550 1314 q 600 1275 585 1296 l 721 1104 q 729 1078 732 1090 q 715 1058 726 1065 q 688 1053 703 1051 q 663 1067 674 1054 l 528 1228 l 394 1067 z "},"Ḥ":{"ha":1057,"x_min":121,"x_max":936,"o":"m 178 -10 q 135 6 150 -10 q 121 50 121 22 l 121 929 q 135 974 121 958 q 178 989 150 989 q 220 974 206 989 q 235 929 235 958 l 235 546 l 822 546 l 822 929 q 837 974 822 958 q 879 989 851 989 q 922 974 907 989 q 936 929 936 958 l 936 50 q 922 6 936 22 q 879 -10 907 -10 q 837 6 851 -10 q 822 50 822 22 l 822 447 l 235 447 l 235 50 q 221 6 235 22 q 178 -10 207 -10 m 529 -265 q 479 -247 497 -265 q 461 -199 461 -229 q 479 -150 461 -167 q 529 -133 497 -133 q 581 -150 563 -133 q 599 -199 599 -167 q 581 -247 599 -229 q 529 -265 563 -265 z "},"I":{"ha":357,"x_min":121,"x_max":235,"o":"m 178 -10 q 135 6 150 -10 q 121 50 121 22 l 121 929 q 135 974 121 958 q 178 989 150 989 q 220 974 206 989 q 235 929 235 958 l 235 50 q 221 6 235 22 q 178 -10 207 -10 z "},"Ĳ":{"ha":806,"x_min":121,"x_max":686,"o":"m 178 -10 q 135 6 150 -10 q 121 50 121 22 l 121 929 q 135 974 121 958 q 178 989 150 989 q 220 974 206 989 q 235 929 235 958 l 235 50 q 221 6 235 22 q 178 -10 207 -10 m 396 -8 q 355 6 369 -10 q 340 43 340 21 q 351 74 340 60 q 383 89 361 88 l 426 92 q 535 141 497 97 q 572 261 572 185 l 572 931 q 587 974 572 960 q 629 989 601 989 q 672 974 657 989 q 686 931 686 960 l 686 260 q 658 123 686 181 q 576 33 631 65 q 442 -4 521 1 l 396 -8 z "},"Í":{"ha":357,"x_min":121,"x_max":385,"o":"m 178 -10 q 135 6 150 -10 q 121 50 121 22 l 121 929 q 135 974 121 958 q 178 989 150 989 q 220 974 206 989 q 235 929 235 958 l 235 50 q 221 6 235 22 q 178 -10 207 -10 m 226 1068 q 201 1055 215 1056 q 175 1062 186 1054 q 160 1082 164 1069 q 167 1110 157 1094 l 290 1289 q 318 1311 303 1307 q 349 1310 333 1315 q 373 1294 364 1306 q 383 1269 382 1283 q 371 1239 383 1254 l 226 1068 z "},"Ĭ":{"ha":357,"x_min":-56,"x_max":414,"o":"m 178 -10 q 135 6 150 -10 q 121 50 121 22 l 121 929 q 135 974 121 958 q 178 989 150 989 q 220 974 206 989 q 235 929 235 958 l 235 50 q 221 6 235 22 q 178 -10 207 -10 m 178 1056 q 33 1105 96 1056 q -53 1256 -31 1154 q -47 1288 -57 1275 q -22 1300 -37 1300 q -2 1297 -11 1301 q 12 1286 7 1293 q 18 1269 17 1279 q 79 1162 33 1193 q 178 1131 125 1131 q 278 1162 232 1131 q 338 1269 324 1193 q 344 1286 339 1279 q 358 1297 349 1293 q 378 1300 367 1301 q 403 1288 393 1300 q 408 1256 413 1275 q 324 1105 388 1154 q 178 1056 260 1056 z "},"Î":{"ha":357,"x_min":-25,"x_max":382,"o":"m 178 -10 q 135 6 150 -10 q 121 50 121 22 l 121 929 q 135 974 121 958 q 178 989 150 989 q 220 974 206 989 q 235 929 235 958 l 235 50 q 221 6 235 22 q 178 -10 207 -10 m 44 1067 q 17 1053 32 1054 q -8 1058 3 1051 q -22 1078 -19 1065 q -15 1104 -25 1090 l 107 1275 q 139 1305 121 1296 q 178 1314 157 1314 q 217 1305 200 1314 q 250 1275 235 1296 l 371 1104 q 379 1078 382 1090 q 365 1058 376 1065 q 338 1053 353 1051 q 313 1067 324 1054 l 178 1228 l 44 1067 z "},"Ȉ":{"ha":357,"x_min":-81,"x_max":290,"o":"m 178 -10 q 135 6 150 -10 q 121 50 121 22 l 121 929 q 135 974 121 958 q 178 989 150 989 q 220 974 206 989 q 235 929 235 958 l 235 50 q 221 6 235 22 q 178 -10 207 -10 m 228 1068 l 110 1243 q 99 1274 97 1260 q 111 1299 101 1289 q 135 1312 121 1308 q 165 1309 150 1315 q 188 1285 179 1303 l 283 1096 q 286 1071 290 1082 q 272 1055 282 1060 q 249 1053 261 1050 q 228 1068 238 1056 m 54 1067 l -69 1243 q -81 1274 -82 1260 q -69 1299 -79 1289 q -45 1312 -60 1308 q -17 1310 -31 1315 q 7 1285 -3 1304 l 104 1097 q 108 1073 111 1085 q 96 1056 106 1061 q 75 1052 86 1050 q 54 1067 64 1054 z "},"Ï":{"ha":357,"x_min":-7,"x_max":364,"o":"m 178 -10 q 135 6 150 -10 q 121 50 121 22 l 121 929 q 135 974 121 958 q 178 989 150 989 q 220 974 206 989 q 235 929 235 958 l 235 50 q 221 6 235 22 q 178 -10 207 -10 m 300 1114 q 251 1131 268 1114 q 233 1179 233 1147 q 251 1226 233 1210 q 300 1243 268 1243 q 347 1226 331 1243 q 364 1179 364 1210 q 347 1131 364 1147 q 300 1114 331 1114 m 57 1114 q 9 1131 26 1114 q -8 1179 -8 1147 q 9 1226 -8 1210 q 57 1243 26 1243 q 106 1226 89 1243 q 122 1179 122 1210 q 106 1131 122 1147 q 57 1114 89 1114 z "},"Ḯ":{"ha":357,"x_min":-7,"x_max":364,"o":"m 178 -10 q 135 6 150 -10 q 121 50 121 22 l 121 929 q 135 974 121 958 q 178 989 150 989 q 220 974 206 989 q 235 929 235 958 l 235 50 q 221 6 235 22 q 178 -10 207 -10 m 214 1222 q 191 1209 204 1210 q 167 1215 178 1208 q 154 1233 157 1221 q 160 1261 151 1246 l 253 1413 q 279 1436 264 1431 q 309 1438 294 1442 q 333 1424 324 1435 q 344 1398 343 1413 q 333 1368 346 1383 l 214 1222 m 57 1065 q 9 1080 26 1065 q -8 1121 -8 1094 q 9 1162 -8 1147 q 57 1176 26 1176 q 106 1162 89 1176 q 122 1121 122 1147 q 106 1080 122 1094 q 57 1065 89 1065 m 300 1065 q 251 1080 268 1065 q 233 1121 233 1094 q 251 1162 233 1147 q 300 1176 268 1176 q 347 1162 331 1176 q 364 1121 364 1147 q 347 1080 364 1094 q 300 1065 331 1065 z "},"İ":{"ha":357,"x_min":111,"x_max":246,"o":"m 178 -10 q 135 6 150 -10 q 121 50 121 22 l 121 929 q 135 974 121 958 q 178 989 150 989 q 220 974 206 989 q 235 929 235 958 l 235 50 q 221 6 235 22 q 178 -10 207 -10 m 178 1115 q 128 1133 146 1115 q 110 1182 110 1150 q 128 1231 110 1214 q 178 1247 146 1247 q 228 1231 211 1247 q 246 1182 246 1214 q 228 1133 246 1150 q 178 1115 211 1115 z "},"Ị":{"ha":357,"x_min":110,"x_max":247,"o":"m 178 -10 q 135 6 150 -10 q 121 50 121 22 l 121 929 q 135 974 121 958 q 178 989 150 989 q 220 974 206 989 q 235 929 235 958 l 235 50 q 221 6 235 22 q 178 -10 207 -10 m 178 -265 q 128 -247 146 -265 q 110 -199 110 -229 q 128 -150 110 -167 q 178 -133 146 -133 q 229 -150 211 -133 q 247 -199 247 -167 q 229 -247 247 -229 q 178 -265 211 -265 z "},"Ì":{"ha":357,"x_min":-28,"x_max":235,"o":"m 178 -10 q 135 6 150 -10 q 121 50 121 22 l 121 929 q 135 974 121 958 q 178 989 150 989 q 220 974 206 989 q 235 929 235 958 l 235 50 q 221 6 235 22 q 178 -10 207 -10 m 129 1068 l -15 1239 q -27 1269 -28 1254 q -17 1294 -26 1283 q 8 1310 -7 1306 q 38 1311 22 1315 q 65 1289 54 1307 l 189 1110 q 195 1082 199 1094 q 181 1062 192 1069 q 156 1055 169 1054 q 129 1068 142 1056 z "},"Ỉ":{"ha":357,"x_min":53,"x_max":319,"o":"m 178 -10 q 135 6 150 -10 q 121 50 121 22 l 121 929 q 135 974 121 958 q 178 989 150 989 q 220 974 206 989 q 235 929 235 958 l 235 50 q 221 6 235 22 q 178 -10 207 -10 m 178 1053 q 149 1060 160 1053 q 139 1085 139 1068 q 152 1130 139 1113 q 183 1160 165 1147 q 213 1183 200 1172 q 226 1211 226 1194 q 210 1235 226 1226 q 163 1243 194 1243 q 135 1242 150 1243 q 106 1235 119 1240 q 73 1232 85 1229 q 57 1250 61 1235 q 58 1275 53 1264 q 81 1293 64 1286 q 130 1306 103 1301 q 185 1310 157 1310 q 283 1286 247 1310 q 318 1224 318 1263 q 303 1176 318 1194 q 267 1147 288 1158 q 232 1119 247 1135 q 217 1078 217 1104 q 207 1060 217 1067 q 178 1053 197 1053 z "},"Ȋ":{"ha":357,"x_min":-56,"x_max":414,"o":"m 178 -10 q 135 6 150 -10 q 121 50 121 22 l 121 929 q 135 974 121 958 q 178 989 150 989 q 220 974 206 989 q 235 929 235 958 l 235 50 q 221 6 235 22 q 178 -10 207 -10 m -22 1054 q -47 1067 -37 1056 q -53 1100 -57 1079 q 33 1250 -31 1201 q 178 1299 96 1299 q 324 1250 260 1299 q 408 1100 388 1201 q 403 1067 413 1079 q 378 1054 393 1056 q 358 1057 367 1053 q 344 1069 349 1061 q 338 1086 339 1076 q 276 1192 321 1161 q 178 1224 232 1224 q 80 1192 125 1224 q 18 1086 35 1161 q 12 1069 17 1076 q -2 1057 7 1061 q -22 1054 -11 1053 z "},"Ī":{"ha":357,"x_min":-51,"x_max":408,"o":"m 178 -10 q 135 6 150 -10 q 121 50 121 22 l 121 929 q 135 974 121 958 q 178 989 150 989 q 220 974 206 989 q 235 929 235 958 l 235 50 q 221 6 235 22 q 178 -10 207 -10 m -11 1131 q -51 1169 -51 1131 q -41 1197 -51 1188 q -11 1207 -31 1207 l 367 1207 q 408 1169 408 1207 q 398 1141 408 1151 q 367 1131 388 1131 l -11 1131 z "},"Į":{"ha":357,"x_min":46,"x_max":300,"o":"m 192 -267 q 85 -231 125 -267 q 46 -132 46 -194 q 69 -46 46 -87 q 136 25 93 -4 l 133 11 q 124 28 126 18 q 121 50 121 39 l 121 929 q 135 974 121 958 q 178 989 150 989 q 220 974 206 989 q 235 929 235 958 l 235 50 q 227 16 235 31 q 208 -4 219 1 q 151 -50 176 -21 q 125 -119 125 -79 q 149 -178 125 -158 q 207 -197 172 -197 q 231 -195 219 -197 q 254 -189 243 -193 q 284 -190 274 -183 q 297 -210 294 -197 q 294 -236 300 -224 q 274 -254 288 -249 q 232 -265 253 -262 q 192 -267 211 -267 z "},"Ĩ":{"ha":357,"x_min":-111,"x_max":468,"o":"m 178 -10 q 135 6 150 -10 q 121 50 121 22 l 121 929 q 135 974 121 958 q 178 989 150 989 q 220 974 206 989 q 235 929 235 958 l 235 50 q 221 6 235 22 q 178 -10 207 -10 m -78 1083 q -102 1094 -93 1083 q -108 1122 -111 1104 q -51 1236 -94 1196 q 54 1276 -7 1276 q 125 1260 92 1276 q 190 1224 158 1244 q 249 1187 221 1203 q 306 1171 278 1171 q 367 1194 343 1171 q 397 1257 390 1218 q 410 1279 401 1272 q 433 1285 419 1286 q 458 1274 449 1285 q 464 1246 468 1264 q 408 1132 450 1172 q 303 1092 365 1092 q 231 1108 265 1092 q 167 1144 197 1124 q 107 1181 136 1164 q 50 1197 78 1197 q -10 1174 14 1197 q -42 1111 -35 1150 q -55 1090 -46 1097 q -78 1083 -64 1082 z "},"J":{"ha":450,"x_min":-17,"x_max":329,"o":"m 39 -8 q -2 6 13 -10 q -17 43 -17 21 q -6 74 -17 60 q 26 89 4 88 l 69 92 q 178 141 140 97 q 215 261 215 185 l 215 931 q 230 974 215 960 q 272 989 244 989 q 315 974 300 989 q 329 931 329 960 l 329 260 q 301 123 329 181 q 219 33 274 65 q 85 -4 164 1 l 39 -8 z "},"Ĵ":{"ha":450,"x_min":-17,"x_max":475,"o":"m 39 -8 q -2 6 13 -10 q -17 43 -17 21 q -6 74 -17 60 q 26 89 4 88 l 69 92 q 178 141 140 97 q 215 261 215 185 l 215 931 q 230 974 215 960 q 272 989 244 989 q 315 974 300 989 q 329 931 329 960 l 329 260 q 301 123 329 181 q 219 33 274 65 q 85 -4 164 1 l 39 -8 m 139 1067 q 112 1053 126 1054 q 86 1058 97 1051 q 72 1078 75 1065 q 79 1104 69 1090 l 201 1275 q 233 1305 215 1296 q 272 1314 251 1314 q 312 1305 294 1314 q 344 1275 329 1296 l 465 1104 q 474 1078 476 1090 q 459 1058 471 1065 q 433 1053 447 1051 q 407 1067 418 1054 l 272 1228 l 139 1067 z "},"K":{"ha":868,"x_min":121,"x_max":833,"o":"m 178 -10 q 135 6 150 -10 q 121 50 121 22 l 121 931 q 135 974 121 960 q 178 989 150 989 q 220 974 206 989 q 235 931 235 960 l 235 535 l 238 535 l 690 957 q 724 981 707 974 q 760 989 740 989 q 798 976 786 989 q 807 946 810 964 q 788 911 804 928 l 314 472 l 315 533 l 810 76 q 832 37 831 57 q 820 3 833 17 q 781 -10 807 -10 q 745 -1 760 -10 q 713 26 731 8 l 238 461 l 235 461 l 235 50 q 221 6 235 22 q 178 -10 207 -10 z "},"Ķ":{"ha":868,"x_min":121,"x_max":833,"o":"m 178 -10 q 135 6 150 -10 q 121 50 121 22 l 121 931 q 135 974 121 960 q 178 989 150 989 q 220 974 206 989 q 235 931 235 960 l 235 535 l 238 535 l 690 957 q 724 981 707 974 q 760 989 740 989 q 798 976 786 989 q 807 946 810 964 q 788 911 804 928 l 314 472 l 315 533 l 810 76 q 832 37 831 57 q 820 3 833 17 q 781 -10 807 -10 q 745 -1 760 -10 q 713 26 731 8 l 238 461 l 235 461 l 235 50 q 221 6 235 22 q 178 -10 207 -10 m 458 -347 q 433 -364 446 -361 q 409 -359 419 -367 q 398 -339 399 -351 q 408 -308 397 -326 q 431 -262 424 -287 q 439 -217 439 -237 l 443 -237 q 387 -219 407 -237 q 367 -171 367 -201 q 385 -122 367 -140 q 438 -104 404 -104 q 491 -124 472 -104 q 510 -185 510 -144 q 504 -240 510 -211 q 488 -297 499 -269 q 458 -347 476 -325 z "},"L":{"ha":754,"x_min":121,"x_max":743,"o":"m 179 0 q 136 16 151 0 q 121 60 121 32 l 121 926 q 135 971 121 956 q 178 986 150 986 q 220 971 206 986 q 235 926 235 956 l 235 100 l 690 100 q 729 87 715 100 q 743 50 743 74 q 729 13 743 26 q 690 0 715 0 l 179 0 z "},"Ǉ":{"ha":1260,"x_min":121,"x_max":1140,"o":"m 179 0 q 136 16 151 0 q 121 60 121 32 l 121 926 q 135 971 121 956 q 178 986 150 986 q 220 971 206 986 q 235 926 235 956 l 235 100 l 690 100 q 729 87 715 100 q 743 50 743 74 q 729 13 743 26 q 690 0 715 0 l 179 0 m 849 -8 q 808 6 822 -10 q 793 43 793 21 q 803 74 793 60 q 836 89 814 88 l 879 92 q 988 141 950 97 q 1025 261 1025 185 l 1025 931 q 1040 974 1025 960 q 1082 989 1054 989 q 1124 974 1110 989 q 1139 931 1139 960 l 1139 260 q 1111 123 1139 181 q 1028 33 1083 65 q 894 -4 974 1 l 849 -8 z "},"Ĺ":{"ha":754,"x_min":121,"x_max":743,"o":"m 179 0 q 136 16 151 0 q 121 60 121 32 l 121 926 q 135 971 121 956 q 178 986 150 986 q 220 971 206 986 q 235 926 235 956 l 235 100 l 690 100 q 729 87 715 100 q 743 50 743 74 q 729 13 743 26 q 690 0 715 0 l 179 0 m 226 1068 q 201 1055 215 1056 q 175 1062 186 1054 q 160 1082 164 1069 q 167 1110 157 1094 l 290 1289 q 318 1311 303 1307 q 349 1310 333 1315 q 373 1294 364 1306 q 383 1269 382 1283 q 371 1239 383 1254 l 226 1068 z "},"Ľ":{"ha":754,"x_min":121,"x_max":743,"o":"m 179 0 q 136 16 151 0 q 121 60 121 32 l 121 926 q 135 971 121 956 q 178 986 150 986 q 220 971 206 986 q 235 926 235 956 l 235 100 l 690 100 q 729 87 715 100 q 743 50 743 74 q 729 13 743 26 q 690 0 715 0 l 179 0 m 429 660 q 404 669 414 660 q 394 697 394 679 l 394 939 q 408 976 394 963 q 444 989 421 989 q 480 976 468 989 q 490 936 492 963 l 468 694 q 429 660 465 660 z "},"Ļ":{"ha":754,"x_min":121,"x_max":743,"o":"m 179 0 q 136 16 151 0 q 121 60 121 32 l 121 926 q 135 971 121 956 q 178 986 150 986 q 220 971 206 986 q 235 926 235 956 l 235 100 l 690 100 q 729 87 715 100 q 743 50 743 74 q 729 13 743 26 q 690 0 715 0 l 179 0 m 446 -347 q 420 -364 433 -361 q 397 -359 407 -367 q 385 -339 386 -351 q 396 -308 385 -326 q 419 -262 411 -287 q 426 -217 426 -237 l 431 -237 q 374 -219 394 -237 q 354 -171 354 -201 q 373 -122 354 -140 q 425 -104 392 -104 q 478 -124 460 -104 q 497 -185 497 -144 q 492 -240 497 -211 q 475 -297 486 -269 q 446 -347 464 -325 z "},"Ŀ":{"ha":754,"x_min":121,"x_max":743,"o":"m 179 0 q 136 16 151 0 q 121 60 121 32 l 121 926 q 135 971 121 956 q 178 986 150 986 q 220 971 206 986 q 235 926 235 956 l 235 100 l 690 100 q 729 87 715 100 q 743 50 743 74 q 729 13 743 26 q 690 0 715 0 l 179 0 m 560 465 q 505 487 526 465 q 483 542 483 508 q 505 596 483 575 q 560 617 526 617 q 616 596 596 617 q 636 542 636 575 q 616 487 636 508 q 560 465 596 465 z "},"Ḷ":{"ha":754,"x_min":121,"x_max":743,"o":"m 179 0 q 136 16 151 0 q 121 60 121 32 l 121 926 q 135 971 121 956 q 178 986 150 986 q 220 971 206 986 q 235 926 235 956 l 235 100 l 690 100 q 729 87 715 100 q 743 50 743 74 q 729 13 743 26 q 690 0 715 0 l 179 0 m 426 -265 q 376 -247 394 -265 q 358 -199 358 -229 q 376 -150 358 -167 q 426 -133 394 -133 q 478 -150 460 -133 q 496 -199 496 -167 q 478 -247 496 -229 q 426 -265 460 -265 z "},"ǈ":{"ha":1082,"x_min":121,"x_max":994,"o":"m 179 0 q 136 16 151 0 q 121 60 121 32 l 121 926 q 135 971 121 956 q 178 986 150 986 q 220 971 206 986 q 235 926 235 956 l 235 100 l 690 100 q 729 87 715 100 q 743 50 743 74 q 729 13 743 26 q 690 0 715 0 l 179 0 m 731 -265 q 697 -258 710 -267 q 678 -237 683 -250 q 676 -210 674 -224 q 688 -187 678 -197 q 714 -178 697 -178 q 827 -137 790 -174 q 864 -21 864 -100 l 864 628 q 878 670 864 656 q 921 685 893 685 q 962 670 947 685 q 976 628 976 656 l 976 -12 q 948 -152 976 -97 q 865 -234 919 -207 q 731 -265 811 -261 m 919 838 q 865 856 885 838 q 846 907 846 875 q 865 958 846 940 q 919 975 885 975 q 975 958 956 975 q 994 907 994 940 q 975 856 994 875 q 919 838 956 838 z "},"Ḻ":{"ha":754,"x_min":121,"x_max":743,"o":"m 179 0 q 136 16 151 0 q 121 60 121 32 l 121 926 q 135 971 121 956 q 178 986 150 986 q 220 971 206 986 q 235 926 235 956 l 235 100 l 690 100 q 729 87 715 100 q 743 50 743 74 q 729 13 743 26 q 690 0 715 0 l 179 0 m 258 -217 q 218 -179 218 -217 q 228 -150 218 -160 q 258 -140 239 -140 l 594 -140 q 636 -179 636 -140 q 626 -206 636 -196 q 594 -217 615 -217 l 258 -217 z "},"Ł":{"ha":754,"x_min":-31,"x_max":743,"o":"m 179 0 q 136 16 151 0 q 121 60 121 32 l 121 926 q 135 971 121 956 q 178 986 150 986 q 220 971 206 986 q 235 926 235 956 l 235 100 l 690 100 q 729 87 715 100 q 743 50 743 74 q 729 13 743 26 q 690 0 715 0 l 179 0 m 44 372 q 11 363 26 361 q -15 375 -4 365 q -28 399 -25 385 q -24 427 -31 413 q 0 453 -18 442 l 436 703 q 470 712 456 714 q 495 700 485 710 q 508 676 506 690 q 506 647 511 661 q 481 622 500 633 l 44 372 z "},"M":{"ha":1188,"x_min":124,"x_max":1065,"o":"m 176 -10 q 138 5 151 -10 q 124 46 124 19 l 124 933 q 138 975 124 961 q 176 989 151 989 q 212 980 199 989 q 236 950 225 971 l 617 233 l 575 233 l 954 950 q 978 980 965 971 q 1014 989 990 989 q 1051 975 1038 989 q 1065 933 1065 961 l 1065 46 q 1052 5 1065 19 q 1013 -10 1039 -10 q 974 5 988 -10 q 960 46 960 19 l 960 826 l 993 826 l 646 175 q 626 149 636 157 q 596 142 615 142 q 565 150 576 142 q 546 175 554 158 l 194 828 l 228 828 l 228 46 q 215 5 228 19 q 176 -10 201 -10 z "},"Ṃ":{"ha":1188,"x_min":124,"x_max":1065,"o":"m 176 -10 q 138 5 151 -10 q 124 46 124 19 l 124 933 q 138 975 124 961 q 176 989 151 989 q 212 980 199 989 q 236 950 225 971 l 617 233 l 575 233 l 954 950 q 978 980 965 971 q 1014 989 990 989 q 1051 975 1038 989 q 1065 933 1065 961 l 1065 46 q 1052 5 1065 19 q 1013 -10 1039 -10 q 974 5 988 -10 q 960 46 960 19 l 960 826 l 993 826 l 646 175 q 626 149 636 157 q 596 142 615 142 q 565 150 576 142 q 546 175 554 158 l 194 828 l 228 828 l 228 46 q 215 5 228 19 q 176 -10 201 -10 m 594 -265 q 544 -247 563 -265 q 526 -199 526 -229 q 544 -150 526 -167 q 594 -133 563 -133 q 646 -150 628 -133 q 664 -199 664 -167 q 646 -247 664 -229 q 594 -265 628 -265 z "},"N":{"ha":1028,"x_min":121,"x_max":906,"o":"m 175 -10 q 135 5 149 -10 q 121 47 121 19 l 121 931 q 135 974 121 958 q 171 989 149 989 q 203 981 193 989 q 228 954 214 974 l 833 147 l 800 147 l 800 933 q 814 974 800 960 q 854 989 828 989 q 892 974 879 989 q 906 933 906 960 l 906 46 q 894 5 906 19 q 860 -10 882 -10 q 826 -1 839 -10 q 800 25 814 7 l 196 832 l 228 832 l 228 47 q 214 5 228 19 q 175 -10 200 -10 z "},"Ǌ":{"ha":1476,"x_min":121,"x_max":1357,"o":"m 175 -10 q 135 5 149 -10 q 121 47 121 19 l 121 931 q 135 974 121 958 q 171 989 149 989 q 203 981 193 989 q 228 954 214 974 l 833 147 l 800 147 l 800 933 q 814 974 800 960 q 854 989 828 989 q 892 974 879 989 q 906 933 906 960 l 906 46 q 894 5 906 19 q 860 -10 882 -10 q 826 -1 839 -10 q 800 25 814 7 l 196 832 l 228 832 l 228 47 q 214 5 228 19 q 175 -10 200 -10 m 1067 -8 q 1026 6 1040 -10 q 1011 43 1011 21 q 1022 74 1011 60 q 1054 89 1032 88 l 1097 92 q 1206 141 1168 97 q 1243 261 1243 185 l 1243 931 q 1258 974 1243 960 q 1300 989 1272 989 q 1342 974 1328 989 q 1357 931 1357 960 l 1357 260 q 1329 123 1357 181 q 1247 33 1301 65 q 1113 -4 1192 1 l 1067 -8 z "},"Ń":{"ha":1028,"x_min":121,"x_max":906,"o":"m 175 -10 q 135 5 149 -10 q 121 47 121 19 l 121 931 q 135 974 121 958 q 171 989 149 989 q 203 981 193 989 q 228 954 214 974 l 833 147 l 800 147 l 800 933 q 814 974 800 960 q 854 989 828 989 q 892 974 879 989 q 906 933 906 960 l 906 46 q 894 5 906 19 q 860 -10 882 -10 q 826 -1 839 -10 q 800 25 814 7 l 196 832 l 228 832 l 228 47 q 214 5 228 19 q 175 -10 200 -10 m 563 1068 q 537 1055 551 1056 q 511 1062 522 1054 q 497 1082 500 1069 q 503 1110 493 1094 l 626 1289 q 654 1311 639 1307 q 685 1310 669 1315 q 709 1294 700 1306 q 719 1269 718 1283 q 707 1239 719 1254 l 563 1068 z "},"Ň":{"ha":1028,"x_min":121,"x_max":906,"o":"m 175 -10 q 135 5 149 -10 q 121 47 121 19 l 121 931 q 135 974 121 958 q 171 989 149 989 q 203 981 193 989 q 228 954 214 974 l 833 147 l 800 147 l 800 933 q 814 974 800 960 q 854 989 828 989 q 892 974 879 989 q 906 933 906 960 l 906 46 q 894 5 906 19 q 860 -10 882 -10 q 826 -1 839 -10 q 800 25 814 7 l 196 832 l 228 832 l 228 47 q 214 5 228 19 q 175 -10 200 -10 m 514 1050 q 475 1059 493 1050 q 443 1088 457 1068 l 321 1260 q 314 1287 311 1274 q 328 1307 317 1300 q 353 1312 339 1314 q 381 1296 368 1310 l 514 1136 l 649 1296 q 674 1312 660 1310 q 700 1307 689 1314 q 714 1287 711 1300 q 707 1260 717 1274 l 586 1088 q 553 1059 571 1068 q 514 1050 536 1050 z "},"Ņ":{"ha":1028,"x_min":121,"x_max":906,"o":"m 175 -10 q 135 5 149 -10 q 121 47 121 19 l 121 931 q 135 974 121 958 q 171 989 149 989 q 203 981 193 989 q 228 954 214 974 l 833 147 l 800 147 l 800 933 q 814 974 800 960 q 854 989 828 989 q 892 974 879 989 q 906 933 906 960 l 906 46 q 894 5 906 19 q 860 -10 882 -10 q 826 -1 839 -10 q 800 25 814 7 l 196 832 l 228 832 l 228 47 q 214 5 228 19 q 175 -10 200 -10 m 533 -347 q 508 -364 521 -361 q 484 -359 494 -367 q 473 -339 474 -351 q 483 -308 472 -326 q 506 -262 499 -287 q 514 -217 514 -237 l 518 -237 q 462 -219 482 -237 q 442 -171 442 -201 q 460 -122 442 -140 q 513 -104 479 -104 q 566 -124 547 -104 q 585 -185 585 -144 q 579 -240 585 -211 q 563 -297 574 -269 q 533 -347 551 -325 z "},"Ṅ":{"ha":1028,"x_min":121,"x_max":906,"o":"m 175 -10 q 135 5 149 -10 q 121 47 121 19 l 121 931 q 135 974 121 958 q 171 989 149 989 q 203 981 193 989 q 228 954 214 974 l 833 147 l 800 147 l 800 933 q 814 974 800 960 q 854 989 828 989 q 892 974 879 989 q 906 933 906 960 l 906 46 q 894 5 906 19 q 860 -10 882 -10 q 826 -1 839 -10 q 800 25 814 7 l 196 832 l 228 832 l 228 47 q 214 5 228 19 q 175 -10 200 -10 m 514 1115 q 464 1133 482 1115 q 446 1182 446 1150 q 464 1231 446 1214 q 514 1247 482 1247 q 565 1231 547 1247 q 582 1182 582 1214 q 565 1133 582 1150 q 514 1115 547 1115 z "},"Ṇ":{"ha":1028,"x_min":121,"x_max":906,"o":"m 175 -10 q 135 5 149 -10 q 121 47 121 19 l 121 931 q 135 974 121 958 q 171 989 149 989 q 203 981 193 989 q 228 954 214 974 l 833 147 l 800 147 l 800 933 q 814 974 800 960 q 854 989 828 989 q 892 974 879 989 q 906 933 906 960 l 906 46 q 894 5 906 19 q 860 -10 882 -10 q 826 -1 839 -10 q 800 25 814 7 l 196 832 l 228 832 l 228 47 q 214 5 228 19 q 175 -10 200 -10 m 514 -265 q 464 -247 482 -265 q 446 -199 446 -229 q 464 -150 446 -167 q 514 -133 482 -133 q 565 -150 547 -133 q 583 -199 583 -167 q 565 -247 583 -229 q 514 -265 547 -265 z "},"ǋ":{"ha":1354,"x_min":121,"x_max":1267,"o":"m 175 -10 q 135 5 149 -10 q 121 47 121 19 l 121 931 q 135 974 121 958 q 171 989 149 989 q 203 981 193 989 q 228 954 214 974 l 833 147 l 800 147 l 800 933 q 814 974 800 960 q 854 989 828 989 q 892 974 879 989 q 906 933 906 960 l 906 46 q 894 5 906 19 q 860 -10 882 -10 q 826 -1 839 -10 q 800 25 814 7 l 196 832 l 228 832 l 228 47 q 214 5 228 19 q 175 -10 200 -10 m 1004 -265 q 970 -258 983 -267 q 952 -237 957 -250 q 949 -210 947 -224 q 961 -187 951 -197 q 988 -178 971 -178 q 1101 -137 1064 -174 q 1138 -21 1138 -100 l 1138 628 q 1152 670 1138 656 q 1194 685 1167 685 q 1235 670 1221 685 q 1250 628 1250 656 l 1250 -12 q 1222 -152 1250 -97 q 1139 -234 1193 -207 q 1004 -265 1085 -261 m 1193 838 q 1139 856 1158 838 q 1119 907 1119 875 q 1139 958 1119 940 q 1193 975 1158 975 q 1249 958 1229 975 q 1268 907 1268 940 q 1249 856 1268 875 q 1193 838 1229 838 z "},"Ṉ":{"ha":1028,"x_min":121,"x_max":906,"o":"m 175 -10 q 135 5 149 -10 q 121 47 121 19 l 121 931 q 135 974 121 958 q 171 989 149 989 q 203 981 193 989 q 228 954 214 974 l 833 147 l 800 147 l 800 933 q 814 974 800 960 q 854 989 828 989 q 892 974 879 989 q 906 933 906 960 l 906 46 q 894 5 906 19 q 860 -10 882 -10 q 826 -1 839 -10 q 800 25 814 7 l 196 832 l 228 832 l 228 47 q 214 5 228 19 q 175 -10 200 -10 m 346 -217 q 306 -179 306 -217 q 316 -150 306 -160 q 346 -140 326 -140 l 682 -140 q 724 -179 724 -140 q 713 -206 724 -196 q 682 -217 703 -217 l 346 -217 z "},"Ñ":{"ha":1028,"x_min":121,"x_max":906,"o":"m 175 -10 q 135 5 149 -10 q 121 47 121 19 l 121 931 q 135 974 121 958 q 171 989 149 989 q 203 981 193 989 q 228 954 214 974 l 833 147 l 800 147 l 800 933 q 814 974 800 960 q 854 989 828 989 q 892 974 879 989 q 906 933 906 960 l 906 46 q 894 5 906 19 q 860 -10 882 -10 q 826 -1 839 -10 q 800 25 814 7 l 196 832 l 228 832 l 228 47 q 214 5 228 19 q 175 -10 200 -10 m 258 1083 q 234 1094 243 1083 q 228 1122 225 1104 q 285 1236 242 1196 q 390 1276 329 1276 q 461 1260 428 1276 q 526 1224 494 1244 q 585 1187 557 1203 q 642 1171 614 1171 q 703 1194 679 1171 q 733 1257 726 1218 q 747 1279 738 1272 q 769 1285 756 1286 q 794 1274 785 1285 q 800 1246 804 1264 q 744 1132 786 1172 q 639 1092 701 1092 q 567 1108 601 1092 q 503 1144 533 1124 q 443 1181 472 1164 q 386 1197 414 1197 q 326 1174 350 1197 q 294 1111 301 1150 q 281 1090 290 1097 q 258 1083 272 1082 z "},"Ŋ":{"ha":1028,"x_min":121,"x_max":906,"o":"m 660 -265 q 626 -258 639 -267 q 608 -237 613 -250 q 605 -210 603 -224 q 617 -187 607 -197 q 644 -178 626 -178 q 760 -137 721 -172 q 800 -21 800 -101 l 800 51 l 819 0 l 196 832 l 228 832 l 228 47 q 214 5 228 19 q 175 -10 200 -10 q 135 5 149 -10 q 121 47 121 19 l 121 931 q 135 974 121 958 q 171 989 149 989 q 203 981 193 989 q 228 954 214 974 l 833 147 l 800 147 l 800 933 q 814 974 800 960 q 854 989 828 989 q 892 974 879 989 q 906 933 906 960 l 906 -10 q 842 -201 906 -142 q 660 -265 778 -260 z "},"O":{"ha":1065,"x_min":85,"x_max":982,"o":"m 532 -12 q 295 49 396 -12 q 140 224 194 111 q 85 490 85 336 q 116 699 85 607 q 206 856 147 792 q 347 956 264 921 q 532 992 429 992 q 772 931 671 992 q 927 758 872 869 q 982 492 982 646 q 950 282 982 375 q 860 124 918 189 q 719 23 801 58 q 532 -12 636 -12 m 532 89 q 710 136 638 89 q 822 274 783 183 q 861 490 861 364 q 776 785 861 681 q 532 890 690 890 q 356 843 429 890 q 244 706 283 796 q 206 490 206 617 q 292 195 206 301 q 532 89 378 89 z "},"Ó":{"ha":1065,"x_min":85,"x_max":982,"o":"m 532 -12 q 295 49 396 -12 q 140 224 194 111 q 85 490 85 336 q 116 699 85 607 q 206 856 147 792 q 347 956 264 921 q 532 992 429 992 q 772 931 671 992 q 927 758 872 869 q 982 492 982 646 q 950 282 982 375 q 860 124 918 189 q 719 23 801 58 q 532 -12 636 -12 m 532 89 q 710 136 638 89 q 822 274 783 183 q 861 490 861 364 q 776 785 861 681 q 532 890 690 890 q 356 843 429 890 q 244 706 283 796 q 206 490 206 617 q 292 195 206 301 q 532 89 378 89 m 581 1068 q 555 1055 569 1056 q 529 1062 540 1054 q 515 1082 518 1069 q 521 1110 511 1094 l 644 1289 q 672 1311 657 1307 q 703 1310 688 1315 q 727 1294 718 1306 q 737 1269 736 1283 q 725 1239 738 1254 l 581 1068 z "},"Ŏ":{"ha":1065,"x_min":85,"x_max":982,"o":"m 532 -12 q 295 49 396 -12 q 140 224 194 111 q 85 490 85 336 q 116 699 85 607 q 206 856 147 792 q 347 956 264 921 q 532 992 429 992 q 772 931 671 992 q 927 758 872 869 q 982 492 982 646 q 950 282 982 375 q 860 124 918 189 q 719 23 801 58 q 532 -12 636 -12 m 532 89 q 710 136 638 89 q 822 274 783 183 q 861 490 861 364 q 776 785 861 681 q 532 890 690 890 q 356 843 429 890 q 244 706 283 796 q 206 490 206 617 q 292 195 206 301 q 532 89 378 89 m 532 1056 q 387 1105 450 1056 q 301 1256 324 1154 q 307 1288 297 1275 q 332 1300 317 1300 q 352 1297 343 1301 q 366 1286 361 1293 q 372 1269 371 1279 q 433 1162 388 1193 q 532 1131 479 1131 q 632 1162 586 1131 q 692 1269 678 1193 q 698 1286 693 1279 q 712 1297 703 1293 q 732 1300 721 1301 q 757 1288 747 1300 q 763 1256 767 1275 q 678 1105 742 1154 q 532 1056 614 1056 z "},"Ô":{"ha":1065,"x_min":85,"x_max":982,"o":"m 532 -12 q 295 49 396 -12 q 140 224 194 111 q 85 490 85 336 q 116 699 85 607 q 206 856 147 792 q 347 956 264 921 q 532 992 429 992 q 772 931 671 992 q 927 758 872 869 q 982 492 982 646 q 950 282 982 375 q 860 124 918 189 q 719 23 801 58 q 532 -12 636 -12 m 532 89 q 710 136 638 89 q 822 274 783 183 q 861 490 861 364 q 776 785 861 681 q 532 890 690 890 q 356 843 429 890 q 244 706 283 796 q 206 490 206 617 q 292 195 206 301 q 532 89 378 89 m 399 1067 q 372 1053 386 1054 q 346 1058 357 1051 q 332 1078 335 1065 q 339 1104 329 1090 l 461 1275 q 493 1305 475 1296 q 532 1314 511 1314 q 572 1305 554 1314 q 604 1275 589 1296 l 725 1104 q 733 1078 736 1090 q 719 1058 731 1065 q 692 1053 707 1051 q 667 1067 678 1054 l 532 1228 l 399 1067 z "},"Ố":{"ha":1065,"x_min":85,"x_max":982,"o":"m 532 -12 q 295 49 396 -12 q 140 224 194 111 q 85 490 85 336 q 116 699 85 607 q 206 856 147 792 q 347 956 264 921 q 532 992 429 992 q 772 931 671 992 q 927 758 872 869 q 982 492 982 646 q 950 282 982 375 q 860 124 918 189 q 719 23 801 58 q 532 -12 636 -12 m 532 89 q 710 136 638 89 q 822 274 783 183 q 861 490 861 364 q 776 785 861 681 q 532 890 690 890 q 356 843 429 890 q 244 706 283 796 q 206 490 206 617 q 292 195 206 301 q 532 89 378 89 m 408 1067 q 383 1052 396 1054 q 360 1056 369 1050 q 347 1076 350 1063 q 354 1103 344 1089 l 463 1263 q 494 1293 476 1285 q 532 1301 511 1301 q 558 1298 546 1301 q 582 1286 571 1294 q 601 1263 593 1278 l 710 1103 q 717 1076 719 1089 q 706 1056 715 1063 q 682 1052 696 1050 q 656 1067 668 1054 l 532 1215 l 408 1067 m 731 1200 q 709 1188 721 1189 q 688 1192 697 1186 q 675 1210 678 1199 q 681 1238 672 1222 l 776 1403 q 800 1426 786 1421 q 827 1427 814 1431 q 849 1414 840 1424 q 859 1390 858 1404 q 849 1361 860 1375 l 731 1200 z "},"Ộ":{"ha":1065,"x_min":85,"x_max":982,"o":"m 532 -12 q 295 49 396 -12 q 140 224 194 111 q 85 490 85 336 q 116 699 85 607 q 206 856 147 792 q 347 956 264 921 q 532 992 429 992 q 772 931 671 992 q 927 758 872 869 q 982 492 982 646 q 950 282 982 375 q 860 124 918 189 q 719 23 801 58 q 532 -12 636 -12 m 532 89 q 710 136 638 89 q 822 274 783 183 q 861 490 861 364 q 776 785 861 681 q 532 890 690 890 q 356 843 429 890 q 244 706 283 796 q 206 490 206 617 q 292 195 206 301 q 532 89 378 89 m 532 -265 q 482 -247 500 -265 q 464 -199 464 -229 q 482 -150 464 -167 q 532 -133 500 -133 q 583 -150 565 -133 q 601 -199 601 -167 q 583 -247 601 -229 q 532 -265 565 -265 m 399 1067 q 372 1053 386 1054 q 346 1058 357 1051 q 332 1078 335 1065 q 339 1104 329 1090 l 461 1275 q 493 1305 475 1296 q 532 1314 511 1314 q 572 1305 554 1314 q 604 1275 589 1296 l 725 1104 q 733 1078 736 1090 q 719 1058 731 1065 q 692 1053 707 1051 q 667 1067 678 1054 l 532 1228 l 399 1067 z "},"Ồ":{"ha":1065,"x_min":85,"x_max":982,"o":"m 532 -12 q 295 49 396 -12 q 140 224 194 111 q 85 490 85 336 q 116 699 85 607 q 206 856 147 792 q 347 956 264 921 q 532 992 429 992 q 772 931 671 992 q 927 758 872 869 q 982 492 982 646 q 950 282 982 375 q 860 124 918 189 q 719 23 801 58 q 532 -12 636 -12 m 532 89 q 710 136 638 89 q 822 274 783 183 q 861 490 861 364 q 776 785 861 681 q 532 890 690 890 q 356 843 429 890 q 244 706 283 796 q 206 490 206 617 q 292 195 206 301 q 532 89 378 89 m 408 1067 q 383 1052 396 1054 q 360 1056 369 1050 q 347 1076 350 1063 q 354 1103 344 1089 l 463 1263 q 494 1293 476 1285 q 532 1301 511 1301 q 558 1298 546 1301 q 582 1286 571 1294 q 601 1263 593 1278 l 710 1103 q 717 1076 719 1089 q 706 1056 715 1063 q 682 1052 696 1050 q 656 1067 668 1054 l 532 1215 l 408 1067 m 724 1200 l 604 1361 q 595 1390 594 1375 q 605 1414 596 1404 q 627 1427 614 1424 q 653 1426 640 1431 q 678 1403 667 1421 l 774 1238 q 779 1210 782 1222 q 767 1192 776 1199 q 744 1188 757 1186 q 724 1200 732 1189 z "},"Ổ":{"ha":1065,"x_min":85,"x_max":982,"o":"m 532 -12 q 295 49 396 -12 q 140 224 194 111 q 85 490 85 336 q 116 699 85 607 q 206 856 147 792 q 347 956 264 921 q 532 992 429 992 q 772 931 671 992 q 927 758 872 869 q 982 492 982 646 q 950 282 982 375 q 860 124 918 189 q 719 23 801 58 q 532 -12 636 -12 m 532 89 q 710 136 638 89 q 822 274 783 183 q 861 490 861 364 q 776 785 861 681 q 532 890 690 890 q 356 843 429 890 q 244 706 283 796 q 206 490 206 617 q 292 195 206 301 q 532 89 378 89 m 408 1067 q 383 1052 396 1054 q 360 1056 369 1050 q 347 1076 350 1063 q 354 1103 344 1089 l 463 1263 q 494 1293 476 1285 q 532 1301 511 1301 q 558 1298 546 1301 q 582 1286 571 1294 q 601 1263 593 1278 l 710 1103 q 717 1076 719 1089 q 706 1056 715 1063 q 682 1052 696 1050 q 656 1067 668 1054 l 532 1215 l 408 1067 m 725 1201 q 694 1198 708 1193 q 678 1216 681 1203 q 692 1240 675 1229 q 739 1280 722 1261 q 756 1321 756 1299 q 741 1351 756 1342 q 693 1360 726 1360 q 667 1358 681 1360 q 639 1353 654 1357 q 611 1353 622 1349 q 596 1369 600 1357 q 599 1392 593 1383 q 621 1407 604 1401 q 665 1417 642 1414 q 714 1419 689 1419 q 805 1400 772 1419 q 838 1338 838 1381 q 821 1283 838 1308 q 778 1237 804 1257 q 725 1201 753 1217 z "},"Ỗ":{"ha":1065,"x_min":85,"x_max":982,"o":"m 532 -12 q 295 49 396 -12 q 140 224 194 111 q 85 490 85 336 q 116 699 85 607 q 206 856 147 792 q 347 956 264 921 q 532 992 429 992 q 772 931 671 992 q 927 758 872 869 q 982 492 982 646 q 950 282 982 375 q 860 124 918 189 q 719 23 801 58 q 532 -12 636 -12 m 532 89 q 710 136 638 89 q 822 274 783 183 q 861 490 861 364 q 776 785 861 681 q 532 890 690 890 q 356 843 429 890 q 244 706 283 796 q 206 490 206 617 q 292 195 206 301 q 532 89 378 89 m 401 1063 q 369 1052 386 1049 q 348 1069 353 1056 q 357 1099 343 1083 l 458 1221 q 494 1248 476 1240 q 532 1256 511 1256 q 560 1252 547 1256 q 583 1241 572 1249 q 606 1221 594 1233 l 707 1099 q 717 1076 718 1088 q 708 1057 715 1064 q 688 1051 700 1050 q 663 1063 675 1051 l 532 1181 l 401 1063 m 344 1278 q 323 1290 331 1279 q 319 1321 315 1301 q 364 1397 332 1372 q 443 1422 396 1422 q 510 1404 481 1422 q 565 1368 539 1386 q 619 1350 592 1350 q 660 1360 643 1350 q 682 1396 676 1371 q 696 1419 686 1411 q 721 1425 706 1426 q 742 1413 735 1424 q 746 1383 750 1403 q 701 1306 733 1332 q 622 1281 668 1281 q 555 1299 585 1281 q 499 1335 525 1317 q 444 1353 474 1353 q 405 1342 421 1353 q 382 1307 389 1332 q 369 1285 378 1293 q 344 1278 360 1276 z "},"Ȍ":{"ha":1065,"x_min":85,"x_max":982,"o":"m 532 -12 q 295 49 396 -12 q 140 224 194 111 q 85 490 85 336 q 116 699 85 607 q 206 856 147 792 q 347 956 264 921 q 532 992 429 992 q 772 931 671 992 q 927 758 872 869 q 982 492 982 646 q 950 282 982 375 q 860 124 918 189 q 719 23 801 58 q 532 -12 636 -12 m 532 89 q 710 136 638 89 q 822 274 783 183 q 861 490 861 364 q 776 785 861 681 q 532 890 690 890 q 356 843 429 890 q 244 706 283 796 q 206 490 206 617 q 292 195 206 301 q 532 89 378 89 m 582 1068 l 464 1243 q 453 1274 451 1260 q 465 1299 456 1289 q 490 1312 475 1308 q 519 1309 504 1315 q 542 1285 533 1303 l 638 1096 q 640 1071 644 1082 q 626 1055 636 1060 q 603 1053 615 1050 q 582 1068 592 1056 m 408 1067 l 285 1243 q 274 1274 272 1260 q 285 1299 275 1289 q 309 1312 294 1308 q 338 1310 324 1315 q 361 1285 351 1304 l 458 1097 q 463 1073 465 1085 q 450 1056 460 1061 q 429 1052 440 1050 q 408 1067 418 1054 z "},"Ö":{"ha":1065,"x_min":85,"x_max":982,"o":"m 532 -12 q 295 49 396 -12 q 140 224 194 111 q 85 490 85 336 q 116 699 85 607 q 206 856 147 792 q 347 956 264 921 q 532 992 429 992 q 772 931 671 992 q 927 758 872 869 q 982 492 982 646 q 950 282 982 375 q 860 124 918 189 q 719 23 801 58 q 532 -12 636 -12 m 532 89 q 710 136 638 89 q 822 274 783 183 q 861 490 861 364 q 776 785 861 681 q 532 890 690 890 q 356 843 429 890 q 244 706 283 796 q 206 490 206 617 q 292 195 206 301 q 532 89 378 89 m 654 1114 q 605 1131 622 1114 q 588 1179 588 1147 q 605 1226 588 1210 q 654 1243 622 1243 q 701 1226 685 1243 q 718 1179 718 1210 q 701 1131 718 1147 q 654 1114 685 1114 m 411 1114 q 363 1131 381 1114 q 346 1179 346 1147 q 363 1226 346 1210 q 411 1243 381 1243 q 460 1226 443 1243 q 476 1179 476 1210 q 460 1131 476 1147 q 411 1114 443 1114 z "},"Ȫ":{"ha":1065,"x_min":85,"x_max":982,"o":"m 532 -12 q 295 49 396 -12 q 140 224 194 111 q 85 490 85 336 q 116 699 85 607 q 206 856 147 792 q 347 956 264 921 q 532 992 429 992 q 772 931 671 992 q 927 758 872 869 q 982 492 982 646 q 950 282 982 375 q 860 124 918 189 q 719 23 801 58 q 532 -12 636 -12 m 532 89 q 710 136 638 89 q 822 274 783 183 q 861 490 861 364 q 776 785 861 681 q 532 890 690 890 q 356 843 429 890 q 244 706 283 796 q 206 490 206 617 q 292 195 206 301 q 532 89 378 89 m 364 1286 q 333 1296 344 1286 q 321 1324 321 1306 q 333 1352 321 1342 q 364 1363 344 1363 l 700 1363 q 732 1352 721 1363 q 743 1324 743 1342 q 732 1296 743 1306 q 700 1286 721 1286 l 364 1286 m 411 1103 q 363 1117 381 1103 q 346 1158 346 1132 q 363 1199 346 1185 q 411 1214 381 1214 q 460 1199 443 1214 q 476 1158 476 1185 q 460 1117 476 1132 q 411 1103 443 1103 m 654 1103 q 605 1117 622 1103 q 588 1158 588 1132 q 605 1199 588 1185 q 654 1214 622 1214 q 701 1199 685 1214 q 718 1158 718 1185 q 701 1117 718 1132 q 654 1103 685 1103 z "},"Ȱ":{"ha":1065,"x_min":85,"x_max":982,"o":"m 532 -12 q 295 49 396 -12 q 140 224 194 111 q 85 490 85 336 q 116 699 85 607 q 206 856 147 792 q 347 956 264 921 q 532 992 429 992 q 772 931 671 992 q 927 758 872 869 q 982 492 982 646 q 950 282 982 375 q 860 124 918 189 q 719 23 801 58 q 532 -12 636 -12 m 532 89 q 710 136 638 89 q 822 274 783 183 q 861 490 861 364 q 776 785 861 681 q 532 890 690 890 q 356 843 429 890 q 244 706 283 796 q 206 490 206 617 q 292 195 206 301 q 532 89 378 89 m 364 1286 q 333 1296 344 1286 q 321 1324 321 1306 q 333 1352 321 1342 q 364 1363 344 1363 l 700 1363 q 732 1352 721 1363 q 743 1324 743 1342 q 732 1296 743 1306 q 700 1286 721 1286 l 364 1286 m 533 1103 q 485 1117 503 1103 q 468 1158 468 1132 q 485 1199 468 1185 q 533 1214 503 1214 q 582 1199 565 1214 q 599 1158 599 1185 q 582 1117 599 1132 q 533 1103 565 1103 z "},"Ọ":{"ha":1065,"x_min":85,"x_max":982,"o":"m 532 -12 q 295 49 396 -12 q 140 224 194 111 q 85 490 85 336 q 116 699 85 607 q 206 856 147 792 q 347 956 264 921 q 532 992 429 992 q 772 931 671 992 q 927 758 872 869 q 982 492 982 646 q 950 282 982 375 q 860 124 918 189 q 719 23 801 58 q 532 -12 636 -12 m 532 89 q 710 136 638 89 q 822 274 783 183 q 861 490 861 364 q 776 785 861 681 q 532 890 690 890 q 356 843 429 890 q 244 706 283 796 q 206 490 206 617 q 292 195 206 301 q 532 89 378 89 m 532 -265 q 482 -247 500 -265 q 464 -199 464 -229 q 482 -150 464 -167 q 532 -133 500 -133 q 583 -150 565 -133 q 601 -199 601 -167 q 583 -247 601 -229 q 532 -265 565 -265 z "},"Ò":{"ha":1065,"x_min":85,"x_max":982,"o":"m 532 -12 q 295 49 396 -12 q 140 224 194 111 q 85 490 85 336 q 116 699 85 607 q 206 856 147 792 q 347 956 264 921 q 532 992 429 992 q 772 931 671 992 q 927 758 872 869 q 982 492 982 646 q 950 282 982 375 q 860 124 918 189 q 719 23 801 58 q 532 -12 636 -12 m 532 89 q 710 136 638 89 q 822 274 783 183 q 861 490 861 364 q 776 785 861 681 q 532 890 690 890 q 356 843 429 890 q 244 706 283 796 q 206 490 206 617 q 292 195 206 301 q 532 89 378 89 m 483 1068 l 339 1239 q 327 1269 326 1254 q 338 1294 328 1283 q 362 1310 347 1306 q 392 1311 376 1315 q 419 1289 408 1307 l 543 1110 q 549 1082 553 1094 q 535 1062 546 1069 q 510 1055 524 1054 q 483 1068 496 1056 z "},"Ỏ":{"ha":1065,"x_min":85,"x_max":982,"o":"m 532 -12 q 295 49 396 -12 q 140 224 194 111 q 85 490 85 336 q 116 699 85 607 q 206 856 147 792 q 347 956 264 921 q 532 992 429 992 q 772 931 671 992 q 927 758 872 869 q 982 492 982 646 q 950 282 982 375 q 860 124 918 189 q 719 23 801 58 q 532 -12 636 -12 m 532 89 q 710 136 638 89 q 822 274 783 183 q 861 490 861 364 q 776 785 861 681 q 532 890 690 890 q 356 843 429 890 q 244 706 283 796 q 206 490 206 617 q 292 195 206 301 q 532 89 378 89 m 532 1053 q 503 1060 514 1053 q 493 1085 493 1068 q 506 1130 493 1113 q 537 1160 519 1147 q 567 1183 554 1172 q 581 1211 581 1194 q 565 1235 581 1226 q 517 1243 549 1243 q 489 1242 504 1243 q 460 1235 474 1240 q 427 1232 439 1229 q 411 1250 415 1235 q 413 1275 407 1264 q 435 1293 418 1286 q 484 1306 457 1301 q 539 1310 511 1310 q 637 1286 601 1310 q 672 1224 672 1263 q 657 1176 672 1194 q 622 1147 642 1158 q 586 1119 601 1135 q 571 1078 571 1104 q 561 1060 571 1067 q 532 1053 551 1053 z "},"Ơ":{"ha":1065,"x_min":85,"x_max":982,"o":"m 532 -12 q 295 49 396 -12 q 140 224 194 111 q 85 490 85 336 q 116 699 85 607 q 206 856 147 792 q 347 956 264 921 q 532 992 429 992 q 772 931 671 992 q 927 758 872 869 q 982 492 982 646 q 950 282 982 375 q 860 124 918 189 q 719 23 801 58 q 532 -12 636 -12 m 532 89 q 710 136 638 89 q 822 274 783 183 q 861 490 861 364 q 776 785 861 681 q 532 890 690 890 q 356 843 429 890 q 244 706 283 796 q 206 490 206 617 q 292 195 206 301 q 532 89 378 89 m 678 910 l 610 985 q 673 981 646 982 q 726 979 700 979 q 817 996 785 979 q 864 1044 850 1013 q 878 1121 878 1075 q 890 1156 878 1143 q 928 1169 903 1169 q 965 1156 953 1169 q 978 1118 978 1143 q 953 1010 978 1057 q 885 936 929 963 q 779 910 840 910 l 678 910 z "},"Ớ":{"ha":1065,"x_min":85,"x_max":982,"o":"m 532 -12 q 295 49 396 -12 q 140 224 194 111 q 85 490 85 336 q 116 699 85 607 q 206 856 147 792 q 347 956 264 921 q 532 992 429 992 q 772 931 671 992 q 927 758 872 869 q 982 492 982 646 q 950 282 982 375 q 860 124 918 189 q 719 23 801 58 q 532 -12 636 -12 m 532 89 q 710 136 638 89 q 822 274 783 183 q 861 490 861 364 q 776 785 861 681 q 532 890 690 890 q 356 843 429 890 q 244 706 283 796 q 206 490 206 617 q 292 195 206 301 q 532 89 378 89 m 678 910 l 610 985 q 673 981 646 982 q 726 979 700 979 q 817 996 785 979 q 864 1044 850 1013 q 878 1121 878 1075 q 890 1156 878 1143 q 928 1169 903 1169 q 965 1156 953 1169 q 978 1118 978 1143 q 953 1010 978 1057 q 885 936 929 963 q 779 910 840 910 l 678 910 m 579 1068 q 553 1055 568 1056 q 528 1062 539 1054 q 513 1082 517 1069 q 519 1110 510 1094 l 643 1289 q 671 1311 656 1307 q 701 1310 686 1315 q 726 1294 717 1306 q 735 1269 735 1283 q 724 1239 736 1254 l 579 1068 z "},"Ợ":{"ha":1065,"x_min":85,"x_max":982,"o":"m 532 -12 q 295 49 396 -12 q 140 224 194 111 q 85 490 85 336 q 116 699 85 607 q 206 856 147 792 q 347 956 264 921 q 532 992 429 992 q 772 931 671 992 q 927 758 872 869 q 982 492 982 646 q 950 282 982 375 q 860 124 918 189 q 719 23 801 58 q 532 -12 636 -12 m 532 89 q 710 136 638 89 q 822 274 783 183 q 861 490 861 364 q 776 785 861 681 q 532 890 690 890 q 356 843 429 890 q 244 706 283 796 q 206 490 206 617 q 292 195 206 301 q 532 89 378 89 m 678 910 l 610 985 q 673 981 646 982 q 726 979 700 979 q 817 996 785 979 q 864 1044 850 1013 q 878 1121 878 1075 q 890 1156 878 1143 q 928 1169 903 1169 q 965 1156 953 1169 q 978 1118 978 1143 q 953 1010 978 1057 q 885 936 929 963 q 779 910 840 910 l 678 910 m 532 -265 q 482 -247 500 -265 q 464 -199 464 -229 q 482 -150 464 -167 q 532 -133 500 -133 q 583 -150 565 -133 q 601 -199 601 -167 q 583 -247 601 -229 q 532 -265 565 -265 z "},"Ờ":{"ha":1065,"x_min":85,"x_max":982,"o":"m 532 -12 q 295 49 396 -12 q 140 224 194 111 q 85 490 85 336 q 116 699 85 607 q 206 856 147 792 q 347 956 264 921 q 532 992 429 992 q 772 931 671 992 q 927 758 872 869 q 982 492 982 646 q 950 282 982 375 q 860 124 918 189 q 719 23 801 58 q 532 -12 636 -12 m 532 89 q 710 136 638 89 q 822 274 783 183 q 861 490 861 364 q 776 785 861 681 q 532 890 690 890 q 356 843 429 890 q 244 706 283 796 q 206 490 206 617 q 292 195 206 301 q 532 89 378 89 m 678 910 l 610 985 q 673 981 646 982 q 726 979 700 979 q 817 996 785 979 q 864 1044 850 1013 q 878 1121 878 1075 q 890 1156 878 1143 q 928 1169 903 1169 q 965 1156 953 1169 q 978 1118 978 1143 q 953 1010 978 1057 q 885 936 929 963 q 779 910 840 910 l 678 910 m 482 1068 l 338 1239 q 326 1269 325 1254 q 336 1294 326 1283 q 360 1310 346 1306 q 391 1311 375 1315 q 418 1289 407 1307 l 542 1110 q 548 1082 551 1094 q 533 1062 544 1069 q 508 1055 522 1054 q 482 1068 494 1056 z "},"Ở":{"ha":1065,"x_min":85,"x_max":982,"o":"m 532 -12 q 295 49 396 -12 q 140 224 194 111 q 85 490 85 336 q 116 699 85 607 q 206 856 147 792 q 347 956 264 921 q 532 992 429 992 q 772 931 671 992 q 927 758 872 869 q 982 492 982 646 q 950 282 982 375 q 860 124 918 189 q 719 23 801 58 q 532 -12 636 -12 m 532 89 q 710 136 638 89 q 822 274 783 183 q 861 490 861 364 q 776 785 861 681 q 532 890 690 890 q 356 843 429 890 q 244 706 283 796 q 206 490 206 617 q 292 195 206 301 q 532 89 378 89 m 678 910 l 610 985 q 673 981 646 982 q 726 979 700 979 q 817 996 785 979 q 864 1044 850 1013 q 878 1121 878 1075 q 890 1156 878 1143 q 928 1169 903 1169 q 965 1156 953 1169 q 978 1118 978 1143 q 953 1010 978 1057 q 885 936 929 963 q 779 910 840 910 l 678 910 m 531 1053 q 502 1060 513 1053 q 492 1085 492 1068 q 505 1130 492 1113 q 535 1160 518 1147 q 566 1183 553 1172 q 579 1211 579 1194 q 563 1235 579 1226 q 515 1243 547 1243 q 488 1242 503 1243 q 458 1235 472 1240 q 426 1232 438 1229 q 410 1250 414 1235 q 411 1275 406 1264 q 433 1293 417 1286 q 483 1306 456 1301 q 538 1310 510 1310 q 635 1286 600 1310 q 671 1224 671 1263 q 656 1176 671 1194 q 620 1147 640 1158 q 585 1119 600 1135 q 569 1078 569 1104 q 560 1060 569 1067 q 531 1053 550 1053 z "},"Ỡ":{"ha":1065,"x_min":85,"x_max":982,"o":"m 532 -12 q 295 49 396 -12 q 140 224 194 111 q 85 490 85 336 q 116 699 85 607 q 206 856 147 792 q 347 956 264 921 q 532 992 429 992 q 772 931 671 992 q 927 758 872 869 q 982 492 982 646 q 950 282 982 375 q 860 124 918 189 q 719 23 801 58 q 532 -12 636 -12 m 532 89 q 710 136 638 89 q 822 274 783 183 q 861 490 861 364 q 776 785 861 681 q 532 890 690 890 q 356 843 429 890 q 244 706 283 796 q 206 490 206 617 q 292 195 206 301 q 532 89 378 89 m 678 910 l 610 985 q 673 981 646 982 q 726 979 700 979 q 817 996 785 979 q 864 1044 850 1013 q 878 1121 878 1075 q 890 1156 878 1143 q 928 1169 903 1169 q 965 1156 953 1169 q 978 1118 978 1143 q 953 1010 978 1057 q 885 936 929 963 q 779 910 840 910 l 678 910 m 288 1083 q 265 1093 274 1083 q 258 1122 256 1103 q 313 1235 271 1194 q 415 1276 356 1276 q 480 1260 451 1276 q 533 1224 508 1244 q 583 1187 558 1203 q 635 1171 608 1171 q 693 1194 669 1171 q 725 1257 717 1218 q 738 1278 729 1271 q 761 1285 747 1286 q 784 1274 775 1285 q 790 1246 793 1264 q 736 1133 778 1174 q 633 1092 694 1092 q 569 1108 599 1092 q 515 1144 540 1124 q 465 1181 489 1164 q 414 1197 440 1197 q 356 1174 379 1197 q 324 1111 332 1150 q 311 1090 321 1097 q 288 1083 301 1082 z "},"Ő":{"ha":1065,"x_min":85,"x_max":982,"o":"m 532 -12 q 295 49 396 -12 q 140 224 194 111 q 85 490 85 336 q 116 699 85 607 q 206 856 147 792 q 347 956 264 921 q 532 992 429 992 q 772 931 671 992 q 927 758 872 869 q 982 492 982 646 q 950 282 982 375 q 860 124 918 189 q 719 23 801 58 q 532 -12 636 -12 m 532 89 q 710 136 638 89 q 822 274 783 183 q 861 490 861 364 q 776 785 861 681 q 532 890 690 890 q 356 843 429 890 q 244 706 283 796 q 206 490 206 617 q 292 195 206 301 q 532 89 378 89 m 482 1068 q 460 1053 472 1056 q 438 1055 449 1050 q 424 1071 428 1060 q 428 1096 421 1082 l 522 1285 q 545 1309 531 1303 q 574 1312 560 1315 q 599 1299 589 1308 q 610 1274 608 1289 q 600 1243 613 1260 l 482 1068 m 656 1067 q 635 1052 646 1054 q 614 1056 624 1050 q 601 1072 604 1061 q 606 1097 599 1083 l 703 1285 q 727 1310 713 1304 q 756 1312 742 1315 q 779 1299 769 1308 q 790 1274 789 1289 q 779 1243 792 1260 l 656 1067 z "},"Ȏ":{"ha":1065,"x_min":85,"x_max":982,"o":"m 532 -12 q 295 49 396 -12 q 140 224 194 111 q 85 490 85 336 q 116 699 85 607 q 206 856 147 792 q 347 956 264 921 q 532 992 429 992 q 772 931 671 992 q 927 758 872 869 q 982 492 982 646 q 950 282 982 375 q 860 124 918 189 q 719 23 801 58 q 532 -12 636 -12 m 532 89 q 710 136 638 89 q 822 274 783 183 q 861 490 861 364 q 776 785 861 681 q 532 890 690 890 q 356 843 429 890 q 244 706 283 796 q 206 490 206 617 q 292 195 206 301 q 532 89 378 89 m 332 1054 q 307 1067 317 1056 q 301 1100 297 1079 q 387 1250 324 1201 q 532 1299 450 1299 q 678 1250 614 1299 q 763 1100 742 1201 q 757 1067 767 1079 q 732 1054 747 1056 q 712 1057 721 1053 q 698 1069 703 1061 q 692 1086 693 1076 q 631 1192 675 1161 q 532 1224 586 1224 q 434 1192 479 1224 q 372 1086 389 1161 q 366 1069 371 1076 q 352 1057 361 1061 q 332 1054 343 1053 z "},"Ō":{"ha":1065,"x_min":85,"x_max":982,"o":"m 532 -12 q 295 49 396 -12 q 140 224 194 111 q 85 490 85 336 q 116 699 85 607 q 206 856 147 792 q 347 956 264 921 q 532 992 429 992 q 772 931 671 992 q 927 758 872 869 q 982 492 982 646 q 950 282 982 375 q 860 124 918 189 q 719 23 801 58 q 532 -12 636 -12 m 532 89 q 710 136 638 89 q 822 274 783 183 q 861 490 861 364 q 776 785 861 681 q 532 890 690 890 q 356 843 429 890 q 244 706 283 796 q 206 490 206 617 q 292 195 206 301 q 532 89 378 89 m 343 1131 q 303 1169 303 1131 q 313 1197 303 1188 q 343 1207 324 1207 l 721 1207 q 763 1169 763 1207 q 752 1141 763 1151 q 721 1131 742 1131 l 343 1131 z "},"Ṓ":{"ha":1065,"x_min":85,"x_max":982,"o":"m 532 -12 q 295 49 396 -12 q 140 224 194 111 q 85 490 85 336 q 116 699 85 607 q 206 856 147 792 q 347 956 264 921 q 532 992 429 992 q 772 931 671 992 q 927 758 872 869 q 982 492 982 646 q 950 282 982 375 q 860 124 918 189 q 719 23 801 58 q 532 -12 636 -12 m 532 89 q 710 136 638 89 q 822 274 783 183 q 861 490 861 364 q 776 785 861 681 q 532 890 690 890 q 356 843 429 890 q 244 706 283 796 q 206 490 206 617 q 292 195 206 301 q 532 89 378 89 m 364 1097 q 333 1107 344 1097 q 321 1135 321 1117 q 333 1163 321 1153 q 364 1174 344 1174 l 700 1174 q 732 1163 721 1174 q 743 1135 743 1153 q 732 1107 743 1117 q 700 1097 721 1097 l 364 1097 m 569 1222 q 547 1209 560 1210 q 523 1215 533 1208 q 509 1233 513 1221 q 514 1261 506 1246 l 607 1413 q 633 1437 618 1431 q 663 1439 649 1443 q 688 1424 678 1435 q 699 1399 697 1414 q 688 1369 700 1385 l 569 1222 z "},"Ṑ":{"ha":1065,"x_min":85,"x_max":982,"o":"m 532 -12 q 295 49 396 -12 q 140 224 194 111 q 85 490 85 336 q 116 699 85 607 q 206 856 147 792 q 347 956 264 921 q 532 992 429 992 q 772 931 671 992 q 927 758 872 869 q 982 492 982 646 q 950 282 982 375 q 860 124 918 189 q 719 23 801 58 q 532 -12 636 -12 m 532 89 q 710 136 638 89 q 822 274 783 183 q 861 490 861 364 q 776 785 861 681 q 532 890 690 890 q 356 843 429 890 q 244 706 283 796 q 206 490 206 617 q 292 195 206 301 q 532 89 378 89 m 494 1222 l 376 1369 q 365 1399 364 1385 q 376 1424 367 1414 q 401 1439 386 1435 q 431 1437 415 1443 q 457 1413 446 1431 l 550 1261 q 555 1233 558 1246 q 541 1215 551 1221 q 517 1209 531 1208 q 494 1222 504 1210 m 364 1097 q 333 1107 344 1097 q 321 1135 321 1117 q 333 1163 321 1153 q 364 1174 344 1174 l 700 1174 q 732 1163 721 1174 q 743 1135 743 1153 q 732 1107 743 1117 q 700 1097 721 1097 l 364 1097 z "},"Ǫ":{"ha":1065,"x_min":85,"x_max":982,"o":"m 532 -12 q 295 49 396 -12 q 140 224 194 111 q 85 490 85 336 q 116 699 85 607 q 206 856 147 792 q 347 956 264 921 q 532 992 429 992 q 772 931 671 992 q 927 758 872 869 q 982 492 982 646 q 950 282 982 375 q 860 124 918 189 q 719 23 801 58 q 532 -12 636 -12 m 532 89 q 710 136 638 89 q 822 274 783 183 q 861 490 861 364 q 776 785 861 681 q 532 890 690 890 q 356 843 429 890 q 244 706 283 796 q 206 490 206 617 q 292 195 206 301 q 532 89 378 89 m 585 -267 q 479 -231 519 -267 q 439 -132 439 -194 q 474 -27 439 -76 q 571 50 510 22 l 611 0 q 569 -26 590 -8 q 533 -67 547 -43 q 519 -119 519 -90 q 542 -178 519 -158 q 600 -197 565 -197 q 624 -195 613 -197 q 649 -189 636 -193 q 678 -190 667 -183 q 691 -210 689 -197 q 688 -236 693 -224 q 667 -254 682 -249 q 625 -265 646 -262 q 585 -267 604 -267 z "},"Ø":{"ha":1065,"x_min":85,"x_max":982,"o":"m 532 -12 q 295 49 396 -12 q 140 224 194 111 q 85 490 85 336 q 116 699 85 607 q 206 856 147 792 q 347 956 264 921 q 532 992 429 992 q 772 931 671 992 q 927 758 872 869 q 982 492 982 646 q 950 282 982 375 q 860 124 918 189 q 719 23 801 58 q 532 -12 636 -12 m 532 89 q 710 136 638 89 q 822 274 783 183 q 861 490 861 364 q 776 785 861 681 q 532 890 690 890 q 356 843 429 890 q 244 706 283 796 q 206 490 206 617 q 292 195 206 301 q 532 89 378 89 m 279 -36 q 256 -57 269 -53 q 229 -58 243 -61 q 206 -44 215 -54 q 194 -19 196 -33 q 201 13 192 -4 l 258 110 l 292 165 l 703 868 l 729 917 l 786 1015 q 809 1036 796 1032 q 837 1037 822 1040 q 861 1024 851 1033 q 873 999 871 1014 q 864 967 875 983 l 807 869 l 774 814 l 364 111 l 338 64 l 279 -36 z "},"Ǿ":{"ha":1065,"x_min":85,"x_max":982,"o":"m 532 -12 q 295 49 396 -12 q 140 224 194 111 q 85 490 85 336 q 116 699 85 607 q 206 856 147 792 q 347 956 264 921 q 532 992 429 992 q 772 931 671 992 q 927 758 872 869 q 982 492 982 646 q 950 282 982 375 q 860 124 918 189 q 719 23 801 58 q 532 -12 636 -12 m 532 89 q 710 136 638 89 q 822 274 783 183 q 861 490 861 364 q 776 785 861 681 q 532 890 690 890 q 356 843 429 890 q 244 706 283 796 q 206 490 206 617 q 292 195 206 301 q 532 89 378 89 m 279 -36 q 256 -57 269 -53 q 229 -58 243 -61 q 206 -44 215 -54 q 194 -19 196 -33 q 201 13 192 -4 l 258 110 l 292 165 l 703 868 l 729 917 l 786 1015 q 809 1036 796 1032 q 837 1037 822 1040 q 861 1024 851 1033 q 873 999 871 1014 q 864 967 875 983 l 807 869 l 774 814 l 364 111 l 338 64 l 279 -36 m 581 1068 q 555 1055 569 1056 q 529 1062 540 1054 q 515 1082 518 1069 q 521 1110 511 1094 l 644 1289 q 672 1311 657 1307 q 703 1310 688 1315 q 727 1294 718 1306 q 737 1269 736 1283 q 725 1239 738 1254 l 581 1068 z "},"Õ":{"ha":1065,"x_min":85,"x_max":982,"o":"m 532 -12 q 295 49 396 -12 q 140 224 194 111 q 85 490 85 336 q 116 699 85 607 q 206 856 147 792 q 347 956 264 921 q 532 992 429 992 q 772 931 671 992 q 927 758 872 869 q 982 492 982 646 q 950 282 982 375 q 860 124 918 189 q 719 23 801 58 q 532 -12 636 -12 m 532 89 q 710 136 638 89 q 822 274 783 183 q 861 490 861 364 q 776 785 861 681 q 532 890 690 890 q 356 843 429 890 q 244 706 283 796 q 206 490 206 617 q 292 195 206 301 q 532 89 378 89 m 276 1083 q 252 1094 261 1083 q 246 1122 243 1104 q 303 1236 260 1196 q 408 1276 347 1276 q 479 1260 446 1276 q 544 1224 513 1244 q 603 1187 575 1203 q 660 1171 632 1171 q 721 1194 697 1171 q 751 1257 744 1218 q 765 1279 756 1272 q 788 1285 774 1286 q 813 1274 803 1285 q 818 1246 822 1264 q 762 1132 804 1172 q 657 1092 719 1092 q 585 1108 619 1092 q 521 1144 551 1124 q 461 1181 490 1164 q 404 1197 432 1197 q 344 1174 368 1197 q 313 1111 319 1150 q 299 1090 308 1097 q 276 1083 290 1082 z "},"Ṍ":{"ha":1065,"x_min":85,"x_max":982,"o":"m 532 -12 q 295 49 396 -12 q 140 224 194 111 q 85 490 85 336 q 116 699 85 607 q 206 856 147 792 q 347 956 264 921 q 532 992 429 992 q 772 931 671 992 q 927 758 872 869 q 982 492 982 646 q 950 282 982 375 q 860 124 918 189 q 719 23 801 58 q 532 -12 636 -12 m 532 89 q 710 136 638 89 q 822 274 783 183 q 861 490 861 364 q 776 785 861 681 q 532 890 690 890 q 356 843 429 890 q 244 706 283 796 q 206 490 206 617 q 292 195 206 301 q 532 89 378 89 m 569 1222 q 547 1210 560 1211 q 523 1215 533 1208 q 509 1233 513 1221 q 514 1261 506 1246 l 607 1413 q 633 1436 618 1431 q 663 1438 649 1442 q 688 1424 678 1435 q 698 1397 697 1413 q 686 1367 699 1382 l 569 1222 m 344 1064 q 323 1076 331 1065 q 319 1106 315 1088 q 364 1183 332 1157 q 443 1208 396 1208 q 510 1190 481 1208 q 565 1154 539 1172 q 619 1136 592 1136 q 660 1147 643 1136 q 682 1182 676 1157 q 696 1205 686 1197 q 721 1211 706 1213 q 742 1199 735 1210 q 746 1168 750 1188 q 701 1092 733 1117 q 622 1067 668 1067 q 555 1085 585 1067 q 499 1121 525 1103 q 444 1139 474 1139 q 405 1128 421 1139 q 382 1093 389 1118 q 369 1071 378 1079 q 344 1064 360 1063 z "},"Ṏ":{"ha":1065,"x_min":85,"x_max":982,"o":"m 532 -12 q 295 49 396 -12 q 140 224 194 111 q 85 490 85 336 q 116 699 85 607 q 206 856 147 792 q 347 956 264 921 q 532 992 429 992 q 772 931 671 992 q 927 758 872 869 q 982 492 982 646 q 950 282 982 375 q 860 124 918 189 q 719 23 801 58 q 532 -12 636 -12 m 532 89 q 710 136 638 89 q 822 274 783 183 q 861 490 861 364 q 776 785 861 681 q 532 890 690 890 q 356 843 429 890 q 244 706 283 796 q 206 490 206 617 q 292 195 206 301 q 532 89 378 89 m 344 1064 q 323 1076 331 1065 q 319 1106 315 1088 q 364 1183 332 1157 q 443 1208 396 1208 q 510 1190 481 1208 q 565 1154 539 1172 q 619 1136 592 1136 q 660 1147 643 1136 q 682 1182 676 1157 q 696 1205 686 1197 q 721 1211 706 1213 q 742 1199 735 1210 q 746 1168 750 1188 q 701 1092 733 1117 q 622 1067 668 1067 q 555 1085 585 1067 q 499 1121 525 1103 q 444 1139 474 1139 q 405 1128 421 1139 q 382 1093 389 1118 q 369 1071 379 1079 q 344 1064 360 1063 m 411 1261 q 363 1276 381 1261 q 346 1317 346 1290 q 363 1358 346 1343 q 411 1372 381 1372 q 460 1358 443 1372 q 476 1317 476 1343 q 460 1276 476 1290 q 411 1261 443 1261 m 654 1261 q 605 1276 622 1261 q 588 1317 588 1290 q 605 1358 588 1343 q 654 1372 622 1372 q 701 1358 685 1372 q 718 1317 718 1343 q 701 1276 718 1290 q 654 1261 685 1261 z "},"Ȭ":{"ha":1065,"x_min":85,"x_max":982,"o":"m 532 -12 q 295 49 396 -12 q 140 224 194 111 q 85 490 85 336 q 116 699 85 607 q 206 856 147 792 q 347 956 264 921 q 532 992 429 992 q 772 931 671 992 q 927 758 872 869 q 982 492 982 646 q 950 282 982 375 q 860 124 918 189 q 719 23 801 58 q 532 -12 636 -12 m 532 89 q 710 136 638 89 q 822 274 783 183 q 861 490 861 364 q 776 785 861 681 q 532 890 690 890 q 356 843 429 890 q 244 706 283 796 q 206 490 206 617 q 292 195 206 301 q 532 89 378 89 m 364 1286 q 333 1296 344 1286 q 321 1324 321 1306 q 333 1352 321 1342 q 364 1363 344 1363 l 700 1363 q 732 1352 721 1363 q 743 1324 743 1342 q 732 1296 743 1306 q 700 1286 721 1286 l 364 1286 m 344 1064 q 323 1076 331 1065 q 319 1106 315 1088 q 364 1183 332 1157 q 443 1208 396 1208 q 510 1190 481 1208 q 565 1154 539 1172 q 619 1136 592 1136 q 660 1147 643 1136 q 682 1182 676 1157 q 696 1205 686 1197 q 721 1211 706 1213 q 742 1199 735 1210 q 746 1168 750 1188 q 701 1092 733 1117 q 622 1067 668 1067 q 555 1085 585 1067 q 499 1121 525 1103 q 444 1139 474 1139 q 405 1128 421 1139 q 382 1093 389 1118 q 369 1071 378 1079 q 344 1064 360 1063 z "},"Œ":{"ha":1453,"x_min":85,"x_max":1393,"o":"m 581 0 q 213 126 342 0 q 85 490 85 253 q 117 701 85 610 q 214 854 150 792 q 369 948 278 917 q 581 979 461 979 l 1343 979 q 1380 967 1367 979 q 1393 932 1393 954 q 1380 896 1393 908 q 1343 883 1367 883 l 876 883 l 876 544 l 1314 544 q 1351 533 1339 544 q 1364 497 1364 521 q 1351 461 1364 474 q 1314 449 1339 449 l 876 449 l 876 96 l 1343 96 q 1380 83 1367 96 q 1393 49 1393 71 q 1380 13 1393 25 q 1343 0 1367 0 l 581 0 m 589 97 l 765 97 l 765 882 l 589 882 q 421 858 493 882 q 301 784 349 833 q 229 661 253 735 q 206 490 206 588 q 301 196 206 294 q 589 97 396 97 z "},"P":{"ha":879,"x_min":121,"x_max":835,"o":"m 178 -10 q 135 6 150 -10 q 121 50 121 22 l 121 921 q 136 965 121 950 q 179 979 151 979 l 508 979 q 750 902 665 979 q 835 685 835 825 q 750 468 835 546 q 508 390 665 390 l 235 390 l 235 50 q 221 6 235 22 q 178 -10 207 -10 m 235 486 l 494 486 q 665 537 607 486 q 722 685 722 588 q 665 834 722 783 q 494 885 607 885 l 235 885 l 235 486 z "},"Þ":{"ha":881,"x_min":121,"x_max":836,"o":"m 178 -7 q 135 9 150 -7 q 121 53 121 25 l 121 926 q 136 971 121 956 q 179 986 151 986 q 221 972 207 986 q 235 932 235 957 l 235 801 l 510 801 q 751 725 667 801 q 836 508 836 649 q 751 291 836 368 q 510 214 667 214 l 235 214 l 235 53 q 221 9 235 25 q 178 -7 207 -7 m 235 308 l 496 308 q 665 359 608 308 q 722 508 722 410 q 665 657 722 607 q 496 707 608 707 l 235 707 l 235 308 z "},"Q":{"ha":1065,"x_min":85,"x_max":982,"o":"m 871 -185 q 883 -223 885 -206 q 869 -252 881 -240 q 840 -267 857 -264 q 806 -263 824 -271 q 776 -235 789 -256 l 686 -92 q 625 -33 664 -53 q 532 -12 586 -12 l 626 28 q 730 5 692 28 q 806 -79 768 -18 l 871 -185 m 532 -12 q 295 49 396 -12 q 140 224 194 111 q 85 490 85 336 q 116 699 85 607 q 206 856 147 792 q 347 956 264 921 q 532 992 429 992 q 772 931 671 992 q 927 758 872 869 q 982 492 982 646 q 950 282 982 375 q 860 124 918 189 q 719 23 801 58 q 532 -12 636 -12 m 532 89 q 710 136 638 89 q 822 274 783 183 q 861 490 861 364 q 776 785 861 681 q 532 890 690 890 q 356 843 429 890 q 244 706 283 796 q 206 490 206 617 q 292 195 206 301 q 532 89 378 89 z "},"R":{"ha":929,"x_min":121,"x_max":863,"o":"m 178 -10 q 135 6 150 -10 q 121 50 121 22 l 121 921 q 136 965 121 950 q 179 979 151 979 l 508 979 q 750 906 665 979 q 835 696 835 832 q 797 547 835 610 q 685 451 758 483 q 508 418 611 418 l 522 436 l 550 436 q 644 408 604 436 q 718 319 685 381 l 851 71 q 862 33 863 51 q 849 2 861 14 q 813 -10 836 -10 q 774 1 789 -10 q 747 33 758 13 l 596 314 q 522 394 564 374 q 413 414 481 414 l 235 414 l 235 50 q 221 6 235 22 q 178 -10 207 -10 m 235 504 l 492 504 q 664 552 606 504 q 722 696 722 600 q 664 837 722 789 q 492 885 606 885 l 235 885 l 235 504 z "},"Ŕ":{"ha":929,"x_min":121,"x_max":863,"o":"m 178 -10 q 135 6 150 -10 q 121 50 121 22 l 121 921 q 136 965 121 950 q 179 979 151 979 l 508 979 q 750 906 665 979 q 835 696 835 832 q 797 547 835 610 q 685 451 758 483 q 508 418 611 418 l 522 436 l 550 436 q 644 408 604 436 q 718 319 685 381 l 851 71 q 862 33 863 51 q 849 2 861 14 q 813 -10 836 -10 q 774 1 789 -10 q 747 33 758 13 l 596 314 q 522 394 564 374 q 413 414 481 414 l 235 414 l 235 50 q 221 6 235 22 q 178 -10 207 -10 m 235 504 l 492 504 q 664 552 606 504 q 722 696 722 600 q 664 837 722 789 q 492 885 606 885 l 235 885 l 235 504 m 522 1068 q 497 1055 511 1056 q 471 1062 482 1054 q 456 1082 460 1069 q 463 1110 453 1094 l 586 1289 q 614 1311 599 1307 q 644 1310 629 1315 q 669 1294 660 1306 q 678 1269 678 1283 q 667 1239 679 1254 l 522 1068 z "},"Ř":{"ha":929,"x_min":121,"x_max":863,"o":"m 178 -10 q 135 6 150 -10 q 121 50 121 22 l 121 921 q 136 965 121 950 q 179 979 151 979 l 508 979 q 750 906 665 979 q 835 696 835 832 q 797 547 835 610 q 685 451 758 483 q 508 418 611 418 l 522 436 l 550 436 q 644 408 604 436 q 718 319 685 381 l 851 71 q 862 33 863 51 q 849 2 861 14 q 813 -10 836 -10 q 774 1 789 -10 q 747 33 758 13 l 596 314 q 522 394 564 374 q 413 414 481 414 l 235 414 l 235 50 q 221 6 235 22 q 178 -10 207 -10 m 235 504 l 492 504 q 664 552 606 504 q 722 696 722 600 q 664 837 722 789 q 492 885 606 885 l 235 885 l 235 504 m 474 1050 q 435 1059 453 1050 q 403 1088 417 1068 l 281 1260 q 274 1287 271 1274 q 288 1307 276 1300 q 313 1312 299 1314 q 340 1296 328 1310 l 474 1136 l 608 1296 q 634 1312 619 1310 q 660 1307 649 1314 q 674 1287 671 1300 q 667 1260 676 1274 l 546 1088 q 513 1059 531 1068 q 474 1050 496 1050 z "},"Ŗ":{"ha":929,"x_min":121,"x_max":863,"o":"m 178 -10 q 135 6 150 -10 q 121 50 121 22 l 121 921 q 136 965 121 950 q 179 979 151 979 l 508 979 q 750 906 665 979 q 835 696 835 832 q 797 547 835 610 q 685 451 758 483 q 508 418 611 418 l 522 436 l 550 436 q 644 408 604 436 q 718 319 685 381 l 851 71 q 862 33 863 51 q 849 2 861 14 q 813 -10 836 -10 q 774 1 789 -10 q 747 33 758 13 l 596 314 q 522 394 564 374 q 413 414 481 414 l 235 414 l 235 50 q 221 6 235 22 q 178 -10 207 -10 m 235 504 l 492 504 q 664 552 606 504 q 722 696 722 600 q 664 837 722 789 q 492 885 606 885 l 235 885 l 235 504 m 493 -347 q 467 -364 481 -361 q 444 -359 454 -367 q 433 -339 433 -351 q 443 -308 432 -326 q 466 -262 458 -287 q 474 -217 474 -237 l 478 -237 q 422 -219 442 -237 q 401 -171 401 -201 q 420 -122 401 -140 q 472 -104 439 -104 q 526 -124 507 -104 q 544 -185 544 -144 q 539 -240 544 -211 q 522 -297 533 -269 q 493 -347 511 -325 z "},"Ȑ":{"ha":929,"x_min":121,"x_max":863,"o":"m 178 -10 q 135 6 150 -10 q 121 50 121 22 l 121 921 q 136 965 121 950 q 179 979 151 979 l 508 979 q 750 906 665 979 q 835 696 835 832 q 797 547 835 610 q 685 451 758 483 q 508 418 611 418 l 522 436 l 550 436 q 644 408 604 436 q 718 319 685 381 l 851 71 q 862 33 863 51 q 849 2 861 14 q 813 -10 836 -10 q 774 1 789 -10 q 747 33 758 13 l 596 314 q 522 394 564 374 q 413 414 481 414 l 235 414 l 235 50 q 221 6 235 22 q 178 -10 207 -10 m 235 504 l 492 504 q 664 552 606 504 q 722 696 722 600 q 664 837 722 789 q 492 885 606 885 l 235 885 l 235 504 m 524 1068 l 406 1243 q 395 1274 393 1260 q 407 1299 397 1289 q 431 1312 417 1308 q 460 1309 446 1315 q 483 1285 475 1303 l 579 1096 q 582 1071 586 1082 q 567 1055 578 1060 q 545 1053 557 1050 q 524 1068 533 1056 m 350 1067 l 226 1243 q 215 1274 214 1260 q 226 1299 217 1289 q 251 1312 236 1308 q 279 1310 265 1315 q 303 1285 293 1304 l 400 1097 q 404 1073 407 1085 q 392 1056 401 1061 q 371 1052 382 1050 q 350 1067 360 1054 z "},"Ṛ":{"ha":929,"x_min":121,"x_max":863,"o":"m 178 -10 q 135 6 150 -10 q 121 50 121 22 l 121 921 q 136 965 121 950 q 179 979 151 979 l 508 979 q 750 906 665 979 q 835 696 835 832 q 797 547 835 610 q 685 451 758 483 q 508 418 611 418 l 522 436 l 550 436 q 644 408 604 436 q 718 319 685 381 l 851 71 q 862 33 863 51 q 849 2 861 14 q 813 -10 836 -10 q 774 1 789 -10 q 747 33 758 13 l 596 314 q 522 394 564 374 q 413 414 481 414 l 235 414 l 235 50 q 221 6 235 22 q 178 -10 207 -10 m 235 504 l 492 504 q 664 552 606 504 q 722 696 722 600 q 664 837 722 789 q 492 885 606 885 l 235 885 l 235 504 m 474 -265 q 424 -247 442 -265 q 406 -199 406 -229 q 424 -150 406 -167 q 474 -133 442 -133 q 525 -150 507 -133 q 543 -199 543 -167 q 525 -247 543 -229 q 474 -265 507 -265 z "},"Ȓ":{"ha":929,"x_min":121,"x_max":863,"o":"m 178 -10 q 135 6 150 -10 q 121 50 121 22 l 121 921 q 136 965 121 950 q 179 979 151 979 l 508 979 q 750 906 665 979 q 835 696 835 832 q 797 547 835 610 q 685 451 758 483 q 508 418 611 418 l 522 436 l 550 436 q 644 408 604 436 q 718 319 685 381 l 851 71 q 862 33 863 51 q 849 2 861 14 q 813 -10 836 -10 q 774 1 789 -10 q 747 33 758 13 l 596 314 q 522 394 564 374 q 413 414 481 414 l 235 414 l 235 50 q 221 6 235 22 q 178 -10 207 -10 m 235 504 l 492 504 q 664 552 606 504 q 722 696 722 600 q 664 837 722 789 q 492 885 606 885 l 235 885 l 235 504 m 274 1054 q 249 1067 258 1056 q 243 1100 239 1079 q 328 1250 265 1201 q 474 1299 392 1299 q 619 1250 556 1299 q 704 1100 683 1201 q 699 1067 708 1079 q 674 1054 689 1056 q 653 1057 663 1053 q 640 1069 644 1061 q 633 1086 635 1076 q 572 1192 617 1161 q 474 1224 528 1224 q 376 1192 421 1224 q 314 1086 331 1161 q 308 1069 313 1076 q 294 1057 303 1061 q 274 1054 285 1053 z "},"Ṟ":{"ha":929,"x_min":121,"x_max":863,"o":"m 178 -10 q 135 6 150 -10 q 121 50 121 22 l 121 921 q 136 965 121 950 q 179 979 151 979 l 508 979 q 750 906 665 979 q 835 696 835 832 q 797 547 835 610 q 685 451 758 483 q 508 418 611 418 l 522 436 l 550 436 q 644 408 604 436 q 718 319 685 381 l 851 71 q 862 33 863 51 q 849 2 861 14 q 813 -10 836 -10 q 774 1 789 -10 q 747 33 758 13 l 596 314 q 522 394 564 374 q 413 414 481 414 l 235 414 l 235 50 q 221 6 235 22 q 178 -10 207 -10 m 235 504 l 492 504 q 664 552 606 504 q 722 696 722 600 q 664 837 722 789 q 492 885 606 885 l 235 885 l 235 504 m 306 -217 q 265 -179 265 -217 q 276 -150 265 -160 q 306 -140 286 -140 l 642 -140 q 683 -179 683 -140 q 673 -206 683 -196 q 642 -217 663 -217 l 306 -217 z "},"S":{"ha":854,"x_min":68,"x_max":799,"o":"m 438 -12 q 310 -1 372 -12 q 194 31 247 10 q 97 83 140 51 q 74 112 81 96 q 72 144 68 128 q 85 171 75 160 q 111 183 96 182 q 144 174 126 185 q 278 109 207 129 q 438 89 349 89 q 623 135 563 89 q 683 258 683 182 q 640 356 683 321 q 493 413 596 392 l 349 442 q 153 533 218 469 q 89 701 89 596 q 115 820 89 767 q 189 912 142 874 q 301 971 236 950 q 446 992 367 992 q 609 967 533 992 q 746 894 685 943 q 767 866 761 882 q 768 835 772 850 q 753 811 764 821 q 727 800 743 801 q 692 811 711 799 q 576 872 636 853 q 444 890 517 890 q 317 868 371 890 q 234 803 264 846 q 204 706 204 761 q 245 600 204 639 q 379 543 286 561 l 524 513 q 731 424 664 483 q 799 264 799 365 q 774 151 799 203 q 701 63 749 100 q 588 7 654 26 q 438 -12 521 -12 z "},"Ś":{"ha":854,"x_min":68,"x_max":799,"o":"m 438 -12 q 310 -1 372 -12 q 194 31 247 10 q 97 83 140 51 q 74 112 81 96 q 72 144 68 128 q 85 171 75 160 q 111 183 96 182 q 144 174 126 185 q 278 109 207 129 q 438 89 349 89 q 623 135 563 89 q 683 258 683 182 q 640 356 683 321 q 493 413 596 392 l 349 442 q 153 533 218 469 q 89 701 89 596 q 115 820 89 767 q 189 912 142 874 q 301 971 236 950 q 446 992 367 992 q 609 967 533 992 q 746 894 685 943 q 767 866 761 882 q 768 835 772 850 q 753 811 764 821 q 727 800 743 801 q 692 811 711 799 q 576 872 636 853 q 444 890 517 890 q 317 868 371 890 q 234 803 264 846 q 204 706 204 761 q 245 600 204 639 q 379 543 286 561 l 524 513 q 731 424 664 483 q 799 264 799 365 q 774 151 799 203 q 701 63 749 100 q 588 7 654 26 q 438 -12 521 -12 m 485 1068 q 459 1055 474 1056 q 433 1062 444 1054 q 419 1082 422 1069 q 425 1110 415 1094 l 549 1289 q 576 1311 561 1307 q 607 1310 592 1315 q 631 1294 622 1306 q 641 1269 640 1283 q 629 1239 642 1254 l 485 1068 z "},"Ṥ":{"ha":854,"x_min":68,"x_max":799,"o":"m 438 -12 q 310 -1 372 -12 q 194 31 247 10 q 97 83 140 51 q 74 112 81 96 q 72 144 68 128 q 85 171 75 160 q 111 183 96 182 q 144 174 126 185 q 278 109 207 129 q 438 89 349 89 q 623 135 563 89 q 683 258 683 182 q 640 356 683 321 q 493 413 596 392 l 349 442 q 153 533 218 469 q 89 701 89 596 q 115 820 89 767 q 189 912 142 874 q 301 971 236 950 q 446 992 367 992 q 609 967 533 992 q 746 894 685 943 q 767 866 761 882 q 768 835 772 850 q 753 811 764 821 q 727 800 743 801 q 692 811 711 799 q 576 872 636 853 q 444 890 517 890 q 317 868 371 890 q 234 803 264 846 q 204 706 204 761 q 245 600 204 639 q 379 543 286 561 l 524 513 q 731 424 664 483 q 799 264 799 365 q 774 151 799 203 q 701 63 749 100 q 588 7 654 26 q 438 -12 521 -12 m 378 1300 q 328 1315 346 1300 q 311 1357 311 1331 q 328 1398 311 1383 q 378 1413 346 1413 q 425 1398 408 1413 q 442 1357 442 1383 q 425 1315 442 1331 q 378 1300 408 1300 m 483 1067 q 458 1052 472 1053 q 432 1059 443 1051 q 417 1080 421 1067 q 425 1110 414 1093 l 550 1290 q 580 1316 564 1311 q 610 1316 596 1321 q 634 1299 625 1311 q 643 1272 643 1288 q 629 1240 643 1257 l 483 1067 z "},"Š":{"ha":854,"x_min":68,"x_max":799,"o":"m 438 -12 q 310 -1 372 -12 q 194 31 247 10 q 97 83 140 51 q 74 112 81 96 q 72 144 68 128 q 85 171 75 160 q 111 183 96 182 q 144 174 126 185 q 278 109 207 129 q 438 89 349 89 q 623 135 563 89 q 683 258 683 182 q 640 356 683 321 q 493 413 596 392 l 349 442 q 153 533 218 469 q 89 701 89 596 q 115 820 89 767 q 189 912 142 874 q 301 971 236 950 q 446 992 367 992 q 609 967 533 992 q 746 894 685 943 q 767 866 761 882 q 768 835 772 850 q 753 811 764 821 q 727 800 743 801 q 692 811 711 799 q 576 872 636 853 q 444 890 517 890 q 317 868 371 890 q 234 803 264 846 q 204 706 204 761 q 245 600 204 639 q 379 543 286 561 l 524 513 q 731 424 664 483 q 799 264 799 365 q 774 151 799 203 q 701 63 749 100 q 588 7 654 26 q 438 -12 521 -12 m 436 1050 q 397 1059 415 1050 q 365 1088 379 1068 l 243 1260 q 236 1287 233 1274 q 250 1307 239 1300 q 276 1312 261 1314 q 303 1296 290 1310 l 436 1136 l 571 1296 q 597 1312 582 1310 q 622 1307 611 1314 q 636 1287 633 1300 q 629 1260 639 1274 l 508 1088 q 476 1059 493 1068 q 436 1050 458 1050 z "},"Ṧ":{"ha":854,"x_min":68,"x_max":799,"o":"m 438 -12 q 310 -1 372 -12 q 194 31 247 10 q 97 83 140 51 q 74 112 81 96 q 72 144 68 128 q 85 171 75 160 q 111 183 96 182 q 144 174 126 185 q 278 109 207 129 q 438 89 349 89 q 623 135 563 89 q 683 258 683 182 q 640 356 683 321 q 493 413 596 392 l 349 442 q 153 533 218 469 q 89 701 89 596 q 115 820 89 767 q 189 912 142 874 q 301 971 236 950 q 446 992 367 992 q 609 967 533 992 q 746 894 685 943 q 767 866 761 882 q 768 835 772 850 q 753 811 764 821 q 727 800 743 801 q 692 811 711 799 q 576 872 636 853 q 444 890 517 890 q 317 868 371 890 q 234 803 264 846 q 204 706 204 761 q 245 600 204 639 q 379 543 286 561 l 524 513 q 731 424 664 483 q 799 264 799 365 q 774 151 799 203 q 701 63 749 100 q 588 7 654 26 q 438 -12 521 -12 m 436 1053 q 397 1060 414 1053 q 365 1089 379 1068 l 246 1261 q 241 1285 239 1274 q 252 1303 243 1296 q 273 1310 261 1311 q 296 1297 285 1308 l 436 1136 l 576 1297 q 599 1310 588 1308 q 620 1303 611 1311 q 631 1285 629 1296 q 626 1261 633 1274 l 508 1089 q 476 1060 493 1068 q 436 1053 458 1053 m 438 1342 q 390 1356 407 1342 q 372 1397 372 1371 q 390 1440 372 1425 q 438 1454 407 1454 q 486 1440 469 1454 q 503 1397 503 1425 q 486 1356 503 1371 q 438 1342 469 1342 z "},"Ş":{"ha":854,"x_min":68,"x_max":799,"o":"m 438 -12 q 310 -1 372 -12 q 194 31 247 10 q 97 83 140 51 q 74 112 81 96 q 72 144 68 128 q 85 171 75 160 q 111 183 96 182 q 144 174 126 185 q 278 109 207 129 q 438 89 349 89 q 623 135 563 89 q 683 258 683 182 q 640 356 683 321 q 493 413 596 392 l 349 442 q 153 533 218 469 q 89 701 89 596 q 115 820 89 767 q 189 912 142 874 q 301 971 236 950 q 446 992 367 992 q 609 967 533 992 q 746 894 685 943 q 767 866 761 882 q 768 835 772 850 q 753 811 764 821 q 727 800 743 801 q 692 811 711 799 q 576 872 636 853 q 444 890 517 890 q 317 868 371 890 q 234 803 264 846 q 204 706 204 761 q 245 600 204 639 q 379 543 286 561 l 524 513 q 731 424 664 483 q 799 264 799 365 q 774 151 799 203 q 701 63 749 100 q 588 7 654 26 q 438 -12 521 -12 m 443 -267 q 391 -263 418 -267 q 342 -250 364 -260 q 321 -232 326 -244 q 319 -207 315 -219 q 335 -188 324 -194 q 363 -189 346 -182 q 398 -199 379 -196 q 440 -201 417 -201 q 499 -188 476 -201 q 521 -150 521 -175 q 508 -122 521 -132 q 468 -111 496 -111 q 447 -112 457 -111 q 422 -117 436 -114 q 403 -121 410 -121 q 389 -117 396 -121 q 383 -103 383 -111 q 383 -82 382 -96 l 400 28 l 471 28 l 453 -76 l 419 -68 q 452 -61 436 -64 q 482 -58 468 -58 q 565 -83 532 -58 q 599 -153 599 -108 q 556 -235 599 -204 q 443 -267 513 -267 z "},"Ŝ":{"ha":854,"x_min":68,"x_max":799,"o":"m 438 -12 q 310 -1 372 -12 q 194 31 247 10 q 97 83 140 51 q 74 112 81 96 q 72 144 68 128 q 85 171 75 160 q 111 183 96 182 q 144 174 126 185 q 278 109 207 129 q 438 89 349 89 q 623 135 563 89 q 683 258 683 182 q 640 356 683 321 q 493 413 596 392 l 349 442 q 153 533 218 469 q 89 701 89 596 q 115 820 89 767 q 189 912 142 874 q 301 971 236 950 q 446 992 367 992 q 609 967 533 992 q 746 894 685 943 q 767 866 761 882 q 768 835 772 850 q 753 811 764 821 q 727 800 743 801 q 692 811 711 799 q 576 872 636 853 q 444 890 517 890 q 317 868 371 890 q 234 803 264 846 q 204 706 204 761 q 245 600 204 639 q 379 543 286 561 l 524 513 q 731 424 664 483 q 799 264 799 365 q 774 151 799 203 q 701 63 749 100 q 588 7 654 26 q 438 -12 521 -12 m 303 1067 q 276 1053 290 1054 q 250 1058 261 1051 q 236 1078 239 1065 q 243 1104 233 1090 l 365 1275 q 397 1305 379 1296 q 436 1314 415 1314 q 476 1305 458 1314 q 508 1275 493 1296 l 629 1104 q 638 1078 640 1090 q 623 1058 635 1065 q 597 1053 611 1051 q 571 1067 582 1054 l 436 1228 l 303 1067 z "},"Ș":{"ha":854,"x_min":68,"x_max":799,"o":"m 438 -12 q 310 -1 372 -12 q 194 31 247 10 q 97 83 140 51 q 74 112 81 96 q 72 144 68 128 q 85 171 75 160 q 111 183 96 182 q 144 174 126 185 q 278 109 207 129 q 438 89 349 89 q 623 135 563 89 q 683 258 683 182 q 640 356 683 321 q 493 413 596 392 l 349 442 q 153 533 218 469 q 89 701 89 596 q 115 820 89 767 q 189 912 142 874 q 301 971 236 950 q 446 992 367 992 q 609 967 533 992 q 746 894 685 943 q 767 866 761 882 q 768 835 772 850 q 753 811 764 821 q 727 800 743 801 q 692 811 711 799 q 576 872 636 853 q 444 890 517 890 q 317 868 371 890 q 234 803 264 846 q 204 706 204 761 q 245 600 204 639 q 379 543 286 561 l 524 513 q 731 424 664 483 q 799 264 799 365 q 774 151 799 203 q 701 63 749 100 q 588 7 654 26 q 438 -12 521 -12 m 458 -347 q 433 -364 446 -361 q 409 -359 419 -367 q 398 -339 399 -351 q 408 -308 397 -326 q 431 -262 424 -287 q 439 -217 439 -237 l 443 -237 q 387 -219 407 -237 q 367 -171 367 -201 q 385 -122 367 -140 q 438 -104 404 -104 q 491 -124 472 -104 q 510 -185 510 -144 q 504 -240 510 -211 q 488 -297 499 -269 q 458 -347 476 -325 z "},"Ṡ":{"ha":854,"x_min":68,"x_max":799,"o":"m 438 -12 q 310 -1 372 -12 q 194 31 247 10 q 97 83 140 51 q 74 112 81 96 q 72 144 68 128 q 85 171 75 160 q 111 183 96 182 q 144 174 126 185 q 278 109 207 129 q 438 89 349 89 q 623 135 563 89 q 683 258 683 182 q 640 356 683 321 q 493 413 596 392 l 349 442 q 153 533 218 469 q 89 701 89 596 q 115 820 89 767 q 189 912 142 874 q 301 971 236 950 q 446 992 367 992 q 609 967 533 992 q 746 894 685 943 q 767 866 761 882 q 768 835 772 850 q 753 811 764 821 q 727 800 743 801 q 692 811 711 799 q 576 872 636 853 q 444 890 517 890 q 317 868 371 890 q 234 803 264 846 q 204 706 204 761 q 245 600 204 639 q 379 543 286 561 l 524 513 q 731 424 664 483 q 799 264 799 365 q 774 151 799 203 q 701 63 749 100 q 588 7 654 26 q 438 -12 521 -12 m 436 1115 q 386 1133 404 1115 q 368 1182 368 1150 q 386 1231 368 1214 q 436 1247 404 1247 q 487 1231 469 1247 q 504 1182 504 1214 q 487 1133 504 1150 q 436 1115 469 1115 z "},"Ṣ":{"ha":854,"x_min":68,"x_max":799,"o":"m 438 -12 q 310 -1 372 -12 q 194 31 247 10 q 97 83 140 51 q 74 112 81 96 q 72 144 68 128 q 85 171 75 160 q 111 183 96 182 q 144 174 126 185 q 278 109 207 129 q 438 89 349 89 q 623 135 563 89 q 683 258 683 182 q 640 356 683 321 q 493 413 596 392 l 349 442 q 153 533 218 469 q 89 701 89 596 q 115 820 89 767 q 189 912 142 874 q 301 971 236 950 q 446 992 367 992 q 609 967 533 992 q 746 894 685 943 q 767 866 761 882 q 768 835 772 850 q 753 811 764 821 q 727 800 743 801 q 692 811 711 799 q 576 872 636 853 q 444 890 517 890 q 317 868 371 890 q 234 803 264 846 q 204 706 204 761 q 245 600 204 639 q 379 543 286 561 l 524 513 q 731 424 664 483 q 799 264 799 365 q 774 151 799 203 q 701 63 749 100 q 588 7 654 26 q 438 -12 521 -12 m 439 -265 q 389 -247 407 -265 q 371 -199 371 -229 q 389 -150 371 -167 q 439 -133 407 -133 q 490 -150 472 -133 q 508 -199 508 -167 q 490 -247 508 -229 q 439 -265 472 -265 z "},"Ṩ":{"ha":854,"x_min":68,"x_max":799,"o":"m 438 -12 q 310 -1 372 -12 q 194 31 247 10 q 97 83 140 51 q 74 112 81 96 q 72 144 68 128 q 85 171 75 160 q 111 183 96 182 q 144 174 126 185 q 278 109 207 129 q 438 89 349 89 q 623 135 563 89 q 683 258 683 182 q 640 356 683 321 q 493 413 596 392 l 349 442 q 153 533 218 469 q 89 701 89 596 q 115 820 89 767 q 189 912 142 874 q 301 971 236 950 q 446 992 367 992 q 609 967 533 992 q 746 894 685 943 q 767 866 761 882 q 768 835 772 850 q 753 811 764 821 q 727 800 743 801 q 692 811 711 799 q 576 872 636 853 q 444 890 517 890 q 317 868 371 890 q 234 803 264 846 q 204 706 204 761 q 245 600 204 639 q 379 543 286 561 l 524 513 q 731 424 664 483 q 799 264 799 365 q 774 151 799 203 q 701 63 749 100 q 588 7 654 26 q 438 -12 521 -12 m 439 -265 q 389 -247 407 -265 q 371 -199 371 -229 q 389 -150 371 -167 q 439 -133 407 -133 q 490 -150 472 -133 q 508 -199 508 -167 q 490 -247 508 -229 q 439 -265 472 -265 m 436 1115 q 386 1133 404 1115 q 368 1182 368 1150 q 386 1231 368 1214 q 436 1247 404 1247 q 487 1231 469 1247 q 504 1182 504 1214 q 487 1133 504 1150 q 436 1115 469 1115 z "},"ẞ":{"ha":990,"x_min":121,"x_max":903,"o":"m 599 -12 q 463 6 526 -12 q 353 57 400 24 q 333 83 338 68 q 331 112 328 97 q 344 137 335 126 q 368 149 354 147 q 397 142 382 151 q 490 97 442 110 q 590 85 538 85 q 740 133 689 85 q 790 267 790 182 q 735 399 790 353 q 568 444 681 444 l 425 444 q 389 457 403 444 q 375 493 375 469 q 388 527 375 515 q 421 539 401 539 l 536 539 q 683 585 628 539 q 738 717 738 631 q 679 849 738 804 q 511 894 621 894 q 305 831 375 894 q 235 638 235 767 l 235 50 q 220 6 235 22 q 178 -10 206 -10 q 135 6 150 -10 q 121 50 121 22 l 121 640 q 167 834 121 756 q 302 952 214 913 q 514 992 390 992 q 692 960 617 992 q 810 870 768 928 q 851 732 851 813 q 803 576 851 642 q 672 490 756 511 l 672 513 q 794 472 743 504 q 874 386 846 439 q 903 261 903 333 q 867 113 903 174 q 763 19 831 51 q 599 -12 694 -12 z "},"T":{"ha":836,"x_min":-4,"x_max":842,"o":"m 418 -10 q 376 6 392 -10 q 361 50 361 22 l 361 881 l 49 881 q 10 894 24 881 q -4 931 -4 908 q 10 967 -4 954 q 49 979 24 979 l 789 979 q 828 967 814 979 q 842 931 842 954 q 828 894 842 907 q 789 881 814 881 l 476 881 l 476 50 q 462 6 476 22 q 418 -10 447 -10 z "},"Ŧ":{"ha":836,"x_min":-4,"x_max":842,"o":"m 418 -10 q 376 6 392 -10 q 361 50 361 22 l 361 881 l 49 881 q 10 894 24 881 q -4 931 -4 908 q 10 967 -4 954 q 49 979 24 979 l 789 979 q 828 967 814 979 q 842 931 842 954 q 828 894 842 907 q 789 881 814 881 l 476 881 l 476 50 q 462 6 476 22 q 418 -10 447 -10 m 199 453 q 165 465 176 453 q 153 497 153 476 q 165 530 153 518 q 199 542 176 542 l 636 542 q 670 531 658 542 q 682 497 682 519 q 670 465 682 476 q 636 453 658 453 l 199 453 z "},"Ť":{"ha":836,"x_min":-4,"x_max":842,"o":"m 418 -10 q 376 6 392 -10 q 361 50 361 22 l 361 881 l 49 881 q 10 894 24 881 q -4 931 -4 908 q 10 967 -4 954 q 49 979 24 979 l 789 979 q 828 967 814 979 q 842 931 842 954 q 828 894 842 907 q 789 881 814 881 l 476 881 l 476 50 q 462 6 476 22 q 418 -10 447 -10 m 418 1050 q 379 1059 397 1050 q 347 1088 361 1068 l 225 1260 q 218 1287 215 1274 q 232 1307 221 1300 q 258 1312 243 1314 q 285 1296 272 1310 l 418 1136 l 553 1296 q 578 1312 564 1310 q 604 1307 593 1314 q 618 1287 615 1300 q 611 1260 621 1274 l 490 1088 q 458 1059 475 1068 q 418 1050 440 1050 z "},"Ţ":{"ha":836,"x_min":-4,"x_max":842,"o":"m 418 -10 q 376 6 392 -10 q 361 50 361 22 l 361 881 l 49 881 q 10 894 24 881 q -4 931 -4 908 q 10 967 -4 954 q 49 979 24 979 l 789 979 q 828 967 814 979 q 842 931 842 954 q 828 894 842 907 q 789 881 814 881 l 476 881 l 476 50 q 462 6 476 22 q 418 -10 447 -10 m 422 -267 q 370 -263 397 -267 q 321 -250 343 -260 q 300 -232 306 -244 q 299 -207 294 -219 q 314 -188 303 -194 q 342 -189 325 -182 q 377 -199 358 -196 q 419 -201 396 -201 q 478 -188 456 -201 q 500 -150 500 -175 q 488 -122 500 -132 q 447 -111 475 -111 q 426 -112 436 -111 q 401 -117 415 -114 q 382 -121 389 -121 q 368 -117 375 -121 q 362 -103 363 -111 q 363 -82 361 -96 l 379 28 l 450 28 l 432 -76 l 399 -68 q 431 -61 415 -64 q 461 -58 447 -58 q 544 -83 511 -58 q 578 -153 578 -108 q 535 -235 578 -204 q 422 -267 492 -267 z "},"Ț":{"ha":836,"x_min":-4,"x_max":842,"o":"m 418 -10 q 376 6 392 -10 q 361 50 361 22 l 361 881 l 49 881 q 10 894 24 881 q -4 931 -4 908 q 10 967 -4 954 q 49 979 24 979 l 789 979 q 828 967 814 979 q 842 931 842 954 q 828 894 842 907 q 789 881 814 881 l 476 881 l 476 50 q 462 6 476 22 q 418 -10 447 -10 m 438 -347 q 412 -364 425 -361 q 388 -359 399 -367 q 377 -339 378 -351 q 388 -308 376 -326 q 410 -262 403 -287 q 418 -217 418 -237 l 422 -237 q 366 -219 386 -237 q 346 -171 346 -201 q 365 -122 346 -140 q 417 -104 383 -104 q 470 -124 451 -104 q 489 -185 489 -144 q 483 -240 489 -211 q 467 -297 478 -269 q 438 -347 456 -325 z "},"Ṭ":{"ha":836,"x_min":-4,"x_max":842,"o":"m 418 -10 q 376 6 392 -10 q 361 50 361 22 l 361 881 l 49 881 q 10 894 24 881 q -4 931 -4 908 q 10 967 -4 954 q 49 979 24 979 l 789 979 q 828 967 814 979 q 842 931 842 954 q 828 894 842 907 q 789 881 814 881 l 476 881 l 476 50 q 462 6 476 22 q 418 -10 447 -10 m 418 -265 q 368 -247 386 -265 q 350 -199 350 -229 q 368 -150 350 -167 q 418 -133 386 -133 q 469 -150 451 -133 q 488 -199 488 -167 q 469 -247 488 -229 q 418 -265 451 -265 z "},"Ṯ":{"ha":836,"x_min":-4,"x_max":842,"o":"m 418 -10 q 376 6 392 -10 q 361 50 361 22 l 361 881 l 49 881 q 10 894 24 881 q -4 931 -4 908 q 10 967 -4 954 q 49 979 24 979 l 789 979 q 828 967 814 979 q 842 931 842 954 q 828 894 842 907 q 789 881 814 881 l 476 881 l 476 50 q 462 6 476 22 q 418 -10 447 -10 m 250 -217 q 210 -179 210 -217 q 220 -150 210 -160 q 250 -140 231 -140 l 586 -140 q 628 -179 628 -140 q 617 -206 628 -196 q 586 -217 607 -217 l 250 -217 z "},"U":{"ha":1011,"x_min":114,"x_max":897,"o":"m 507 -12 q 337 13 410 -12 q 214 90 264 39 q 139 215 164 140 q 114 388 114 290 l 114 931 q 128 974 114 960 q 171 989 143 989 q 213 974 199 989 q 228 931 228 960 l 228 393 q 299 165 228 240 q 507 89 369 89 q 714 165 644 89 q 783 393 783 240 l 783 931 q 799 974 783 960 q 842 989 814 989 q 883 974 868 989 q 897 931 897 960 l 897 388 q 853 168 897 258 q 722 33 810 78 q 507 -12 635 -12 z "},"Ú":{"ha":1011,"x_min":114,"x_max":897,"o":"m 507 -12 q 337 13 410 -12 q 214 90 264 39 q 139 215 164 140 q 114 388 114 290 l 114 931 q 128 974 114 960 q 171 989 143 989 q 213 974 199 989 q 228 931 228 960 l 228 393 q 299 165 228 240 q 507 89 369 89 q 714 165 644 89 q 783 393 783 240 l 783 931 q 799 974 783 960 q 842 989 814 989 q 883 974 868 989 q 897 931 897 960 l 897 388 q 853 168 897 258 q 722 33 810 78 q 507 -12 635 -12 m 556 1068 q 530 1055 544 1056 q 504 1062 515 1054 q 490 1082 493 1069 q 496 1110 486 1094 l 619 1289 q 647 1311 632 1307 q 678 1310 663 1315 q 702 1294 693 1306 q 712 1269 711 1283 q 700 1239 713 1254 l 556 1068 z "},"Ŭ":{"ha":1011,"x_min":114,"x_max":897,"o":"m 507 -12 q 337 13 410 -12 q 214 90 264 39 q 139 215 164 140 q 114 388 114 290 l 114 931 q 128 974 114 960 q 171 989 143 989 q 213 974 199 989 q 228 931 228 960 l 228 393 q 299 165 228 240 q 507 89 369 89 q 714 165 644 89 q 783 393 783 240 l 783 931 q 799 974 783 960 q 842 989 814 989 q 883 974 868 989 q 897 931 897 960 l 897 388 q 853 168 897 258 q 722 33 810 78 q 507 -12 635 -12 m 507 1056 q 362 1105 425 1056 q 276 1256 299 1154 q 282 1288 272 1275 q 307 1300 292 1300 q 327 1297 318 1301 q 341 1286 336 1293 q 347 1269 346 1279 q 408 1162 363 1193 q 507 1131 454 1131 q 607 1162 561 1131 q 667 1269 653 1193 q 673 1286 668 1279 q 687 1297 678 1293 q 707 1300 696 1301 q 732 1288 722 1300 q 738 1256 742 1275 q 653 1105 717 1154 q 507 1056 589 1056 z "},"Û":{"ha":1011,"x_min":114,"x_max":897,"o":"m 507 -12 q 337 13 410 -12 q 214 90 264 39 q 139 215 164 140 q 114 388 114 290 l 114 931 q 128 974 114 960 q 171 989 143 989 q 213 974 199 989 q 228 931 228 960 l 228 393 q 299 165 228 240 q 507 89 369 89 q 714 165 644 89 q 783 393 783 240 l 783 931 q 799 974 783 960 q 842 989 814 989 q 883 974 868 989 q 897 931 897 960 l 897 388 q 853 168 897 258 q 722 33 810 78 q 507 -12 635 -12 m 374 1067 q 347 1053 361 1054 q 321 1058 332 1051 q 307 1078 310 1065 q 314 1104 304 1090 l 436 1275 q 468 1305 450 1296 q 507 1314 486 1314 q 547 1305 529 1314 q 579 1275 564 1296 l 700 1104 q 708 1078 711 1090 q 694 1058 706 1065 q 667 1053 682 1051 q 642 1067 653 1054 l 507 1228 l 374 1067 z "},"Ȕ":{"ha":1011,"x_min":114,"x_max":897,"o":"m 507 -12 q 337 13 410 -12 q 214 90 264 39 q 139 215 164 140 q 114 388 114 290 l 114 931 q 128 974 114 960 q 171 989 143 989 q 213 974 199 989 q 228 931 228 960 l 228 393 q 299 165 228 240 q 507 89 369 89 q 714 165 644 89 q 783 393 783 240 l 783 931 q 799 974 783 960 q 842 989 814 989 q 883 974 868 989 q 897 931 897 960 l 897 388 q 853 168 897 258 q 722 33 810 78 q 507 -12 635 -12 m 557 1068 l 439 1243 q 428 1274 426 1260 q 440 1299 431 1289 q 465 1312 450 1308 q 494 1309 479 1315 q 517 1285 508 1303 l 613 1096 q 615 1071 619 1082 q 601 1055 611 1060 q 578 1053 590 1050 q 557 1068 567 1056 m 383 1067 l 260 1243 q 249 1274 247 1260 q 260 1299 250 1289 q 284 1312 269 1308 q 313 1310 299 1315 q 336 1285 326 1304 l 433 1097 q 438 1073 440 1085 q 425 1056 435 1061 q 404 1052 415 1050 q 383 1067 393 1054 z "},"Ü":{"ha":1011,"x_min":114,"x_max":897,"o":"m 507 -12 q 337 13 410 -12 q 214 90 264 39 q 139 215 164 140 q 114 388 114 290 l 114 931 q 128 974 114 960 q 171 989 143 989 q 213 974 199 989 q 228 931 228 960 l 228 393 q 299 165 228 240 q 507 89 369 89 q 714 165 644 89 q 783 393 783 240 l 783 931 q 799 974 783 960 q 842 989 814 989 q 883 974 868 989 q 897 931 897 960 l 897 388 q 853 168 897 258 q 722 33 810 78 q 507 -12 635 -12 m 629 1114 q 580 1131 597 1114 q 563 1179 563 1147 q 580 1226 563 1210 q 629 1243 597 1243 q 676 1226 660 1243 q 693 1179 693 1210 q 676 1131 693 1147 q 629 1114 660 1114 m 386 1114 q 338 1131 356 1114 q 321 1179 321 1147 q 338 1226 321 1210 q 386 1243 356 1243 q 435 1226 418 1243 q 451 1179 451 1210 q 435 1131 451 1147 q 386 1114 418 1114 z "},"Ụ":{"ha":1011,"x_min":114,"x_max":897,"o":"m 507 -12 q 337 13 410 -12 q 214 90 264 39 q 139 215 164 140 q 114 388 114 290 l 114 931 q 128 974 114 960 q 171 989 143 989 q 213 974 199 989 q 228 931 228 960 l 228 393 q 299 165 228 240 q 507 89 369 89 q 714 165 644 89 q 783 393 783 240 l 783 931 q 799 974 783 960 q 842 989 814 989 q 883 974 868 989 q 897 931 897 960 l 897 388 q 853 168 897 258 q 722 33 810 78 q 507 -12 635 -12 m 507 -265 q 457 -247 475 -265 q 439 -199 439 -229 q 457 -150 439 -167 q 507 -133 475 -133 q 558 -150 540 -133 q 576 -199 576 -167 q 558 -247 576 -229 q 507 -265 540 -265 z "},"Ù":{"ha":1011,"x_min":114,"x_max":897,"o":"m 507 -12 q 337 13 410 -12 q 214 90 264 39 q 139 215 164 140 q 114 388 114 290 l 114 931 q 128 974 114 960 q 171 989 143 989 q 213 974 199 989 q 228 931 228 960 l 228 393 q 299 165 228 240 q 507 89 369 89 q 714 165 644 89 q 783 393 783 240 l 783 931 q 799 974 783 960 q 842 989 814 989 q 883 974 868 989 q 897 931 897 960 l 897 388 q 853 168 897 258 q 722 33 810 78 q 507 -12 635 -12 m 458 1068 l 314 1239 q 302 1269 301 1254 q 313 1294 303 1283 q 337 1310 322 1306 q 367 1311 351 1315 q 394 1289 383 1307 l 518 1110 q 524 1082 528 1094 q 510 1062 521 1069 q 485 1055 499 1054 q 458 1068 471 1056 z "},"Ủ":{"ha":1011,"x_min":114,"x_max":897,"o":"m 507 -12 q 337 13 410 -12 q 214 90 264 39 q 139 215 164 140 q 114 388 114 290 l 114 931 q 128 974 114 960 q 171 989 143 989 q 213 974 199 989 q 228 931 228 960 l 228 393 q 299 165 228 240 q 507 89 369 89 q 714 165 644 89 q 783 393 783 240 l 783 931 q 799 974 783 960 q 842 989 814 989 q 883 974 868 989 q 897 931 897 960 l 897 388 q 853 168 897 258 q 722 33 810 78 q 507 -12 635 -12 m 507 1053 q 478 1060 489 1053 q 468 1085 468 1068 q 481 1130 468 1113 q 512 1160 494 1147 q 542 1183 529 1172 q 556 1211 556 1194 q 540 1235 556 1226 q 492 1243 524 1243 q 464 1242 479 1243 q 435 1235 449 1240 q 402 1232 414 1229 q 386 1250 390 1235 q 388 1275 382 1264 q 410 1293 393 1286 q 459 1306 432 1301 q 514 1310 486 1310 q 612 1286 576 1310 q 647 1224 647 1263 q 632 1176 647 1194 q 597 1147 617 1158 q 561 1119 576 1135 q 546 1078 546 1104 q 536 1060 546 1067 q 507 1053 526 1053 z "},"Ư":{"ha":1011,"x_min":114,"x_max":1060,"o":"m 507 -12 q 337 13 410 -12 q 214 90 264 39 q 139 215 164 140 q 114 388 114 290 l 114 931 q 128 974 114 960 q 171 989 143 989 q 213 974 199 989 q 228 931 228 960 l 228 393 q 299 165 228 240 q 507 89 369 89 q 714 165 644 89 q 783 393 783 240 l 783 931 q 799 974 783 960 q 842 989 814 989 q 883 974 868 989 q 897 931 897 960 l 897 388 q 853 168 897 258 q 722 33 810 78 q 507 -12 635 -12 m 864 910 l 807 949 l 807 979 q 899 996 865 981 q 945 1044 932 1011 q 958 1125 958 1076 q 972 1158 958 1147 q 1010 1169 985 1169 q 1047 1159 1033 1169 q 1060 1125 1060 1149 q 1037 1013 1060 1060 q 970 940 1014 967 q 864 910 926 914 z "},"Ứ":{"ha":1011,"x_min":114,"x_max":1060,"o":"m 507 -12 q 337 13 410 -12 q 214 90 264 39 q 139 215 164 140 q 114 388 114 290 l 114 931 q 128 974 114 960 q 171 989 143 989 q 213 974 199 989 q 228 931 228 960 l 228 393 q 299 165 228 240 q 507 89 369 89 q 714 165 644 89 q 783 393 783 240 l 783 931 q 799 974 783 960 q 842 989 814 989 q 883 974 868 989 q 897 931 897 960 l 897 388 q 853 168 897 258 q 722 33 810 78 q 507 -12 635 -12 m 864 910 l 807 949 l 807 979 q 899 996 865 981 q 945 1044 932 1011 q 958 1125 958 1076 q 972 1158 958 1147 q 1010 1169 985 1169 q 1047 1159 1033 1169 q 1060 1125 1060 1149 q 1037 1013 1060 1060 q 970 940 1014 967 q 864 910 926 914 m 556 1068 q 530 1055 544 1056 q 504 1062 515 1054 q 490 1082 493 1069 q 496 1110 486 1094 l 619 1289 q 647 1311 632 1307 q 678 1310 663 1315 q 702 1294 693 1306 q 712 1269 711 1283 q 700 1239 713 1254 l 556 1068 z "},"Ự":{"ha":1011,"x_min":114,"x_max":1060,"o":"m 507 -12 q 337 13 410 -12 q 214 90 264 39 q 139 215 164 140 q 114 388 114 290 l 114 931 q 128 974 114 960 q 171 989 143 989 q 213 974 199 989 q 228 931 228 960 l 228 393 q 299 165 228 240 q 507 89 369 89 q 714 165 644 89 q 783 393 783 240 l 783 931 q 799 974 783 960 q 842 989 814 989 q 883 974 868 989 q 897 931 897 960 l 897 388 q 853 168 897 258 q 722 33 810 78 q 507 -12 635 -12 m 864 910 l 807 949 l 807 979 q 899 996 865 981 q 945 1044 932 1011 q 958 1125 958 1076 q 972 1158 958 1147 q 1010 1169 985 1169 q 1047 1159 1033 1169 q 1060 1125 1060 1149 q 1037 1013 1060 1060 q 970 940 1014 967 q 864 910 926 914 m 507 -265 q 457 -247 475 -265 q 439 -199 439 -229 q 457 -150 439 -167 q 507 -133 475 -133 q 558 -150 540 -133 q 576 -199 576 -167 q 558 -247 576 -229 q 507 -265 540 -265 z "},"Ừ":{"ha":1011,"x_min":114,"x_max":1060,"o":"m 507 -12 q 337 13 410 -12 q 214 90 264 39 q 139 215 164 140 q 114 388 114 290 l 114 931 q 128 974 114 960 q 171 989 143 989 q 213 974 199 989 q 228 931 228 960 l 228 393 q 299 165 228 240 q 507 89 369 89 q 714 165 644 89 q 783 393 783 240 l 783 931 q 799 974 783 960 q 842 989 814 989 q 883 974 868 989 q 897 931 897 960 l 897 388 q 853 168 897 258 q 722 33 810 78 q 507 -12 635 -12 m 864 910 l 807 949 l 807 979 q 899 996 865 981 q 945 1044 932 1011 q 958 1125 958 1076 q 972 1158 958 1147 q 1010 1169 985 1169 q 1047 1159 1033 1169 q 1060 1125 1060 1149 q 1037 1013 1060 1060 q 970 940 1014 967 q 864 910 926 914 m 458 1068 l 314 1239 q 302 1269 301 1254 q 313 1294 303 1283 q 337 1310 322 1306 q 367 1311 351 1315 q 394 1289 383 1307 l 518 1110 q 524 1082 528 1094 q 510 1062 521 1069 q 485 1055 499 1054 q 458 1068 471 1056 z "},"Ử":{"ha":1011,"x_min":114,"x_max":1060,"o":"m 507 -12 q 337 13 410 -12 q 214 90 264 39 q 139 215 164 140 q 114 388 114 290 l 114 931 q 128 974 114 960 q 171 989 143 989 q 213 974 199 989 q 228 931 228 960 l 228 393 q 299 165 228 240 q 507 89 369 89 q 714 165 644 89 q 783 393 783 240 l 783 931 q 799 974 783 960 q 842 989 814 989 q 883 974 868 989 q 897 931 897 960 l 897 388 q 853 168 897 258 q 722 33 810 78 q 507 -12 635 -12 m 864 910 l 807 949 l 807 979 q 899 996 865 981 q 945 1044 932 1011 q 958 1125 958 1076 q 972 1158 958 1147 q 1010 1169 985 1169 q 1047 1159 1033 1169 q 1060 1125 1060 1149 q 1037 1013 1060 1060 q 970 940 1014 967 q 864 910 926 914 m 507 1053 q 478 1060 489 1053 q 468 1085 468 1068 q 481 1130 468 1113 q 512 1160 494 1147 q 542 1183 529 1172 q 556 1211 556 1194 q 540 1235 556 1226 q 492 1243 524 1243 q 464 1242 479 1243 q 435 1235 449 1240 q 402 1232 414 1229 q 386 1250 390 1235 q 388 1275 382 1264 q 410 1293 393 1286 q 459 1306 432 1301 q 514 1310 486 1310 q 612 1286 576 1310 q 647 1224 647 1263 q 632 1176 647 1194 q 597 1147 617 1158 q 561 1119 576 1135 q 546 1078 546 1104 q 536 1060 546 1067 q 507 1053 526 1053 z "},"Ữ":{"ha":1011,"x_min":114,"x_max":1060,"o":"m 507 -12 q 337 13 410 -12 q 214 90 264 39 q 139 215 164 140 q 114 388 114 290 l 114 931 q 128 974 114 960 q 171 989 143 989 q 213 974 199 989 q 228 931 228 960 l 228 393 q 299 165 228 240 q 507 89 369 89 q 714 165 644 89 q 783 393 783 240 l 783 931 q 799 974 783 960 q 842 989 814 989 q 883 974 868 989 q 897 931 897 960 l 897 388 q 853 168 897 258 q 722 33 810 78 q 507 -12 635 -12 m 864 910 l 807 949 l 807 979 q 899 996 865 981 q 945 1044 932 1011 q 958 1125 958 1076 q 972 1158 958 1147 q 1010 1169 985 1169 q 1047 1159 1033 1169 q 1060 1125 1060 1149 q 1037 1013 1060 1060 q 970 940 1014 967 q 864 910 926 914 m 264 1083 q 241 1093 250 1083 q 235 1122 232 1103 q 290 1235 247 1194 q 392 1276 332 1276 q 456 1260 428 1276 q 510 1224 485 1244 q 560 1187 535 1203 q 611 1171 585 1171 q 669 1194 646 1171 q 701 1257 693 1218 q 715 1278 706 1271 q 738 1285 724 1286 q 760 1274 751 1285 q 767 1246 769 1264 q 713 1133 754 1174 q 610 1092 671 1092 q 546 1108 575 1092 q 491 1144 517 1124 q 441 1181 465 1164 q 390 1197 417 1197 q 332 1174 356 1197 q 300 1111 308 1150 q 288 1090 297 1097 q 264 1083 278 1082 z "},"Ű":{"ha":1011,"x_min":114,"x_max":897,"o":"m 507 -12 q 337 13 410 -12 q 214 90 264 39 q 139 215 164 140 q 114 388 114 290 l 114 931 q 128 974 114 960 q 171 989 143 989 q 213 974 199 989 q 228 931 228 960 l 228 393 q 299 165 228 240 q 507 89 369 89 q 714 165 644 89 q 783 393 783 240 l 783 931 q 799 974 783 960 q 842 989 814 989 q 883 974 868 989 q 897 931 897 960 l 897 388 q 853 168 897 258 q 722 33 810 78 q 507 -12 635 -12 m 457 1068 q 435 1053 447 1056 q 413 1055 424 1050 q 399 1071 403 1060 q 403 1096 396 1082 l 497 1285 q 520 1309 506 1303 q 549 1312 535 1315 q 574 1299 564 1308 q 585 1274 583 1289 q 575 1243 588 1260 l 457 1068 m 631 1067 q 610 1052 621 1054 q 589 1056 599 1050 q 576 1072 579 1061 q 581 1097 574 1083 l 678 1285 q 702 1310 688 1304 q 731 1312 717 1315 q 754 1299 744 1308 q 765 1274 764 1289 q 754 1243 767 1260 l 631 1067 z "},"Ȗ":{"ha":1011,"x_min":114,"x_max":897,"o":"m 507 -12 q 337 13 410 -12 q 214 90 264 39 q 139 215 164 140 q 114 388 114 290 l 114 931 q 128 974 114 960 q 171 989 143 989 q 213 974 199 989 q 228 931 228 960 l 228 393 q 299 165 228 240 q 507 89 369 89 q 714 165 644 89 q 783 393 783 240 l 783 931 q 799 974 783 960 q 842 989 814 989 q 883 974 868 989 q 897 931 897 960 l 897 388 q 853 168 897 258 q 722 33 810 78 q 507 -12 635 -12 m 307 1054 q 282 1067 292 1056 q 276 1100 272 1079 q 362 1250 299 1201 q 507 1299 425 1299 q 653 1250 589 1299 q 738 1100 717 1201 q 732 1067 742 1079 q 707 1054 722 1056 q 687 1057 696 1053 q 673 1069 678 1061 q 667 1086 668 1076 q 606 1192 650 1161 q 507 1224 561 1224 q 409 1192 454 1224 q 347 1086 364 1161 q 341 1069 346 1076 q 327 1057 336 1061 q 307 1054 318 1053 z "},"Ū":{"ha":1011,"x_min":114,"x_max":897,"o":"m 507 -12 q 337 13 410 -12 q 214 90 264 39 q 139 215 164 140 q 114 388 114 290 l 114 931 q 128 974 114 960 q 171 989 143 989 q 213 974 199 989 q 228 931 228 960 l 228 393 q 299 165 228 240 q 507 89 369 89 q 714 165 644 89 q 783 393 783 240 l 783 931 q 799 974 783 960 q 842 989 814 989 q 883 974 868 989 q 897 931 897 960 l 897 388 q 853 168 897 258 q 722 33 810 78 q 507 -12 635 -12 m 318 1131 q 278 1169 278 1131 q 288 1197 278 1188 q 318 1207 299 1207 l 696 1207 q 738 1169 738 1207 q 727 1141 738 1151 q 696 1131 717 1131 l 318 1131 z "},"Ṻ":{"ha":1011,"x_min":114,"x_max":897,"o":"m 507 -12 q 337 13 410 -12 q 214 90 264 39 q 139 215 164 140 q 114 388 114 290 l 114 931 q 128 974 114 960 q 171 989 143 989 q 213 974 199 989 q 228 931 228 960 l 228 393 q 299 165 228 240 q 507 89 369 89 q 714 165 644 89 q 783 393 783 240 l 783 931 q 799 974 783 960 q 842 989 814 989 q 883 974 868 989 q 897 931 897 960 l 897 388 q 853 168 897 258 q 722 33 810 78 q 507 -12 635 -12 m 339 1108 q 308 1118 319 1108 q 296 1146 296 1128 q 308 1174 296 1164 q 339 1183 319 1183 l 675 1183 q 707 1174 696 1183 q 718 1146 718 1164 q 707 1118 718 1128 q 675 1108 696 1108 l 339 1108 m 386 1256 q 338 1270 356 1256 q 321 1311 321 1285 q 338 1352 321 1338 q 386 1367 356 1367 q 435 1352 418 1367 q 451 1311 451 1338 q 435 1270 451 1285 q 386 1256 418 1256 m 629 1256 q 580 1270 597 1256 q 563 1311 563 1285 q 580 1352 563 1338 q 629 1367 597 1367 q 676 1352 660 1367 q 693 1311 693 1338 q 676 1270 693 1285 q 629 1256 660 1256 z "},"Ų":{"ha":1011,"x_min":114,"x_max":897,"o":"m 507 -12 q 337 13 410 -12 q 214 90 264 39 q 139 215 164 140 q 114 388 114 290 l 114 931 q 128 974 114 960 q 171 989 143 989 q 213 974 199 989 q 228 931 228 960 l 228 393 q 299 165 228 240 q 507 89 369 89 q 714 165 644 89 q 783 393 783 240 l 783 931 q 799 974 783 960 q 842 989 814 989 q 883 974 868 989 q 897 931 897 960 l 897 388 q 853 168 897 258 q 722 33 810 78 q 507 -12 635 -12 m 560 -267 q 454 -231 494 -267 q 414 -132 414 -194 q 449 -27 414 -76 q 546 50 485 22 l 586 0 q 544 -26 565 -8 q 508 -67 522 -43 q 494 -119 494 -90 q 517 -178 494 -158 q 575 -197 540 -197 q 599 -195 588 -197 q 624 -189 611 -193 q 653 -190 642 -183 q 666 -210 664 -197 q 663 -236 668 -224 q 642 -254 657 -249 q 600 -265 621 -262 q 560 -267 579 -267 z "},"Ů":{"ha":1011,"x_min":114,"x_max":897,"o":"m 507 -12 q 337 13 410 -12 q 214 90 264 39 q 139 215 164 140 q 114 388 114 290 l 114 931 q 128 974 114 960 q 171 989 143 989 q 213 974 199 989 q 228 931 228 960 l 228 393 q 299 165 228 240 q 507 89 369 89 q 714 165 644 89 q 783 393 783 240 l 783 931 q 799 974 783 960 q 842 989 814 989 q 883 974 868 989 q 897 931 897 960 l 897 388 q 853 168 897 258 q 722 33 810 78 q 507 -12 635 -12 m 507 1053 q 424 1074 461 1053 q 364 1133 386 1096 q 342 1214 342 1169 q 364 1295 342 1260 q 424 1352 386 1331 q 507 1374 461 1374 q 591 1352 554 1374 q 650 1295 628 1331 q 672 1214 672 1260 q 650 1133 672 1169 q 591 1074 628 1096 q 507 1053 554 1053 m 507 1113 q 579 1142 551 1113 q 607 1214 607 1171 q 579 1285 607 1256 q 507 1314 551 1314 q 435 1285 464 1314 q 407 1214 407 1256 q 435 1142 407 1171 q 507 1113 464 1113 z "},"Ũ":{"ha":1011,"x_min":114,"x_max":897,"o":"m 507 -12 q 337 13 410 -12 q 214 90 264 39 q 139 215 164 140 q 114 388 114 290 l 114 931 q 128 974 114 960 q 171 989 143 989 q 213 974 199 989 q 228 931 228 960 l 228 393 q 299 165 228 240 q 507 89 369 89 q 714 165 644 89 q 783 393 783 240 l 783 931 q 799 974 783 960 q 842 989 814 989 q 883 974 868 989 q 897 931 897 960 l 897 388 q 853 168 897 258 q 722 33 810 78 q 507 -12 635 -12 m 251 1083 q 227 1094 236 1083 q 221 1122 218 1104 q 278 1236 235 1196 q 383 1276 322 1276 q 454 1260 421 1276 q 519 1224 488 1244 q 578 1187 550 1203 q 635 1171 607 1171 q 696 1194 672 1171 q 726 1257 719 1218 q 740 1279 731 1272 q 763 1285 749 1286 q 788 1274 778 1285 q 793 1246 797 1264 q 737 1132 779 1172 q 632 1092 694 1092 q 560 1108 594 1092 q 496 1144 526 1124 q 436 1181 465 1164 q 379 1197 407 1197 q 319 1174 343 1197 q 288 1111 294 1150 q 274 1090 283 1097 q 251 1083 265 1082 z "},"Ṹ":{"ha":1011,"x_min":114,"x_max":897,"o":"m 507 -12 q 337 13 410 -12 q 214 90 264 39 q 139 215 164 140 q 114 388 114 290 l 114 931 q 128 974 114 960 q 171 989 143 989 q 213 974 199 989 q 228 931 228 960 l 228 393 q 299 165 228 240 q 507 89 369 89 q 714 165 644 89 q 783 393 783 240 l 783 931 q 799 974 783 960 q 842 989 814 989 q 883 974 868 989 q 897 931 897 960 l 897 388 q 853 168 897 258 q 722 33 810 78 q 507 -12 635 -12 m 544 1222 q 522 1210 535 1211 q 498 1215 508 1208 q 484 1233 488 1221 q 489 1261 481 1246 l 582 1413 q 608 1436 593 1431 q 638 1438 624 1442 q 663 1424 653 1435 q 673 1397 672 1413 q 661 1367 674 1382 l 544 1222 m 319 1064 q 298 1076 306 1065 q 294 1106 290 1088 q 339 1183 307 1157 q 418 1208 371 1208 q 485 1190 456 1208 q 540 1154 514 1172 q 594 1136 567 1136 q 635 1147 618 1136 q 657 1182 651 1157 q 671 1205 661 1197 q 696 1211 681 1213 q 717 1199 710 1210 q 721 1168 725 1188 q 676 1092 708 1117 q 597 1067 643 1067 q 530 1085 560 1067 q 474 1121 500 1103 q 419 1139 449 1139 q 380 1128 396 1139 q 357 1093 364 1118 q 344 1071 353 1079 q 319 1064 335 1063 z "},"V":{"ha":957,"x_min":18,"x_max":939,"o":"m 479 -10 q 436 3 453 -10 q 410 40 419 15 l 28 914 q 22 953 18 938 q 41 979 26 969 q 75 989 56 989 q 115 977 101 989 q 136 943 128 965 l 503 92 l 458 92 l 824 944 q 847 977 833 965 q 886 989 861 989 q 919 979 906 989 q 935 953 932 969 q 929 914 939 936 l 547 40 q 522 3 538 15 q 479 -10 506 -10 z "},"W":{"ha":1529,"x_min":53,"x_max":1479,"o":"m 435 -10 q 394 3 410 -10 q 369 43 379 17 l 63 919 q 67 969 53 949 q 114 989 82 989 q 151 977 138 989 q 175 940 165 965 l 463 97 l 414 97 l 707 936 q 731 976 717 963 q 768 989 744 989 q 803 976 790 989 q 826 936 817 963 l 1115 97 l 1072 97 l 1363 940 q 1384 976 1369 964 q 1422 989 1399 989 q 1465 969 1451 989 q 1468 919 1479 950 l 1160 43 q 1135 3 1150 17 q 1094 -10 1121 -10 q 1055 3 1069 -10 q 1029 43 1040 17 l 750 847 l 781 847 l 499 43 q 475 3 489 17 q 435 -10 461 -10 z "},"Ẃ":{"ha":1529,"x_min":53,"x_max":1479,"o":"m 435 -10 q 394 3 410 -10 q 369 43 379 17 l 63 919 q 67 969 53 949 q 114 989 82 989 q 151 977 138 989 q 175 940 165 965 l 463 97 l 414 97 l 707 936 q 731 976 717 963 q 768 989 744 989 q 803 976 790 989 q 826 936 817 963 l 1115 97 l 1072 97 l 1363 940 q 1384 976 1369 964 q 1422 989 1399 989 q 1465 969 1451 989 q 1468 919 1479 950 l 1160 43 q 1135 3 1150 17 q 1094 -10 1121 -10 q 1055 3 1069 -10 q 1029 43 1040 17 l 750 847 l 781 847 l 499 43 q 475 3 489 17 q 435 -10 461 -10 m 814 1068 q 788 1055 803 1056 q 763 1062 774 1054 q 748 1082 751 1069 q 754 1110 744 1094 l 878 1289 q 906 1311 890 1307 q 936 1310 921 1315 q 960 1294 951 1306 q 970 1269 969 1283 q 958 1239 971 1254 l 814 1068 z "},"Ŵ":{"ha":1529,"x_min":53,"x_max":1479,"o":"m 435 -10 q 394 3 410 -10 q 369 43 379 17 l 63 919 q 67 969 53 949 q 114 989 82 989 q 151 977 138 989 q 175 940 165 965 l 463 97 l 414 97 l 707 936 q 731 976 717 963 q 768 989 744 989 q 803 976 790 989 q 826 936 817 963 l 1115 97 l 1072 97 l 1363 940 q 1384 976 1369 964 q 1422 989 1399 989 q 1465 969 1451 989 q 1468 919 1479 950 l 1160 43 q 1135 3 1150 17 q 1094 -10 1121 -10 q 1055 3 1069 -10 q 1029 43 1040 17 l 750 847 l 781 847 l 499 43 q 475 3 489 17 q 435 -10 461 -10 m 632 1067 q 605 1053 619 1054 q 579 1058 590 1051 q 565 1078 568 1065 q 572 1104 563 1090 l 694 1275 q 726 1305 708 1296 q 765 1314 744 1314 q 805 1305 788 1314 q 838 1275 822 1296 l 958 1104 q 967 1078 969 1090 q 952 1058 964 1065 q 926 1053 940 1051 q 900 1067 911 1054 l 765 1228 l 632 1067 z "},"Ẅ":{"ha":1529,"x_min":53,"x_max":1479,"o":"m 435 -10 q 394 3 410 -10 q 369 43 379 17 l 63 919 q 67 969 53 949 q 114 989 82 989 q 151 977 138 989 q 175 940 165 965 l 463 97 l 414 97 l 707 936 q 731 976 717 963 q 768 989 744 989 q 803 976 790 989 q 826 936 817 963 l 1115 97 l 1072 97 l 1363 940 q 1384 976 1369 964 q 1422 989 1399 989 q 1465 969 1451 989 q 1468 919 1479 950 l 1160 43 q 1135 3 1150 17 q 1094 -10 1121 -10 q 1055 3 1069 -10 q 1029 43 1040 17 l 750 847 l 781 847 l 499 43 q 475 3 489 17 q 435 -10 461 -10 m 888 1114 q 838 1131 856 1114 q 821 1179 821 1147 q 838 1226 821 1210 q 888 1243 856 1243 q 935 1226 918 1243 q 951 1179 951 1210 q 935 1131 951 1147 q 888 1114 918 1114 m 644 1114 q 597 1131 614 1114 q 579 1179 579 1147 q 597 1226 579 1210 q 644 1243 614 1243 q 693 1226 676 1243 q 710 1179 710 1210 q 693 1131 710 1147 q 644 1114 676 1114 z "},"Ẁ":{"ha":1529,"x_min":53,"x_max":1479,"o":"m 435 -10 q 394 3 410 -10 q 369 43 379 17 l 63 919 q 67 969 53 949 q 114 989 82 989 q 151 977 138 989 q 175 940 165 965 l 463 97 l 414 97 l 707 936 q 731 976 717 963 q 768 989 744 989 q 803 976 790 989 q 826 936 817 963 l 1115 97 l 1072 97 l 1363 940 q 1384 976 1369 964 q 1422 989 1399 989 q 1465 969 1451 989 q 1468 919 1479 950 l 1160 43 q 1135 3 1150 17 q 1094 -10 1121 -10 q 1055 3 1069 -10 q 1029 43 1040 17 l 750 847 l 781 847 l 499 43 q 475 3 489 17 q 435 -10 461 -10 m 717 1068 l 572 1239 q 560 1269 560 1254 q 571 1294 561 1283 q 595 1310 581 1306 q 626 1311 610 1315 q 653 1289 642 1307 l 776 1110 q 783 1082 786 1094 q 768 1062 779 1069 q 743 1055 757 1054 q 717 1068 729 1056 z "},"X":{"ha":903,"x_min":51,"x_max":851,"o":"m 108 -10 q 70 3 85 -10 q 53 33 56 15 q 67 69 51 51 l 403 522 l 403 479 l 86 907 q 72 946 71 928 q 88 976 74 964 q 124 989 103 989 q 157 981 143 989 q 186 951 171 972 l 471 561 l 435 561 l 718 951 q 746 981 732 972 q 779 989 760 989 q 816 977 801 989 q 832 947 831 965 q 818 907 833 928 l 501 479 l 501 522 l 838 69 q 849 33 851 51 q 833 3 847 15 q 796 -10 819 -10 q 763 -1 778 -10 q 733 28 749 8 l 429 443 l 474 443 l 169 28 q 140 -1 156 8 q 108 -10 125 -10 z "},"Y":{"ha":828,"x_min":21,"x_max":808,"o":"m 414 -10 q 372 6 386 -10 q 357 51 357 22 l 357 507 l 382 428 l 33 908 q 22 945 21 926 q 36 976 22 964 q 72 989 50 989 q 107 980 92 989 q 135 951 122 971 l 431 543 l 401 543 l 697 951 q 726 981 713 972 q 760 989 740 989 q 794 977 782 989 q 808 947 807 965 q 794 907 808 928 l 447 428 l 471 507 l 471 51 q 414 -10 471 -10 z "},"Ý":{"ha":828,"x_min":21,"x_max":808,"o":"m 414 -10 q 372 6 386 -10 q 357 51 357 22 l 357 507 l 382 428 l 33 908 q 22 945 21 926 q 36 976 22 964 q 72 989 50 989 q 107 980 92 989 q 135 951 122 971 l 431 543 l 401 543 l 697 951 q 726 981 713 972 q 760 989 740 989 q 794 977 782 989 q 808 947 807 965 q 794 907 808 928 l 447 428 l 471 507 l 471 51 q 414 -10 471 -10 m 463 1068 q 437 1055 451 1056 q 411 1062 422 1054 q 397 1082 400 1069 q 403 1110 393 1094 l 526 1289 q 554 1311 539 1307 q 585 1310 569 1315 q 609 1294 600 1306 q 619 1269 618 1283 q 607 1239 619 1254 l 463 1068 z "},"Ŷ":{"ha":828,"x_min":21,"x_max":808,"o":"m 414 -10 q 372 6 386 -10 q 357 51 357 22 l 357 507 l 382 428 l 33 908 q 22 945 21 926 q 36 976 22 964 q 72 989 50 989 q 107 980 92 989 q 135 951 122 971 l 431 543 l 401 543 l 697 951 q 726 981 713 972 q 760 989 740 989 q 794 977 782 989 q 808 947 807 965 q 794 907 808 928 l 447 428 l 471 507 l 471 51 q 414 -10 471 -10 m 281 1067 q 253 1053 268 1054 q 228 1058 239 1051 q 214 1078 217 1065 q 221 1104 211 1090 l 343 1275 q 375 1305 357 1296 q 414 1314 393 1314 q 453 1305 436 1314 q 486 1275 471 1296 l 607 1104 q 615 1078 618 1090 q 601 1058 613 1065 q 574 1053 589 1051 q 549 1067 560 1054 l 414 1228 l 281 1067 z "},"Ÿ":{"ha":828,"x_min":21,"x_max":808,"o":"m 414 -10 q 372 6 386 -10 q 357 51 357 22 l 357 507 l 382 428 l 33 908 q 22 945 21 926 q 36 976 22 964 q 72 989 50 989 q 107 980 92 989 q 135 951 122 971 l 431 543 l 401 543 l 697 951 q 726 981 713 972 q 760 989 740 989 q 794 977 782 989 q 808 947 807 965 q 794 907 808 928 l 447 428 l 471 507 l 471 51 q 414 -10 471 -10 m 536 1114 q 487 1131 504 1114 q 469 1179 469 1147 q 487 1226 469 1210 q 536 1243 504 1243 q 583 1226 567 1243 q 600 1179 600 1210 q 583 1131 600 1147 q 536 1114 567 1114 m 293 1114 q 245 1131 263 1114 q 228 1179 228 1147 q 245 1226 228 1210 q 293 1243 263 1243 q 342 1226 325 1243 q 358 1179 358 1210 q 342 1131 358 1147 q 293 1114 325 1114 z "},"Ẏ":{"ha":828,"x_min":21,"x_max":808,"o":"m 414 -10 q 372 6 386 -10 q 357 51 357 22 l 357 507 l 382 428 l 33 908 q 22 945 21 926 q 36 976 22 964 q 72 989 50 989 q 107 980 92 989 q 135 951 122 971 l 431 543 l 401 543 l 697 951 q 726 981 713 972 q 760 989 740 989 q 794 977 782 989 q 808 947 807 965 q 794 907 808 928 l 447 428 l 471 507 l 471 51 q 414 -10 471 -10 m 414 1115 q 364 1133 382 1115 q 346 1182 346 1150 q 364 1231 346 1214 q 414 1247 382 1247 q 465 1231 447 1247 q 482 1182 482 1214 q 465 1133 482 1150 q 414 1115 447 1115 z "},"Ỵ":{"ha":828,"x_min":21,"x_max":808,"o":"m 414 -10 q 372 6 386 -10 q 357 51 357 22 l 357 507 l 382 428 l 33 908 q 22 945 21 926 q 36 976 22 964 q 72 989 50 989 q 107 980 92 989 q 135 951 122 971 l 431 543 l 401 543 l 697 951 q 726 981 713 972 q 760 989 740 989 q 794 977 782 989 q 808 947 807 965 q 794 907 808 928 l 447 428 l 471 507 l 471 51 q 414 -10 471 -10 m 414 -265 q 364 -247 382 -265 q 346 -199 346 -229 q 364 -150 346 -167 q 414 -133 382 -133 q 465 -150 447 -133 q 483 -199 483 -167 q 465 -247 483 -229 q 414 -265 447 -265 z "},"Ỳ":{"ha":828,"x_min":21,"x_max":808,"o":"m 414 -10 q 372 6 386 -10 q 357 51 357 22 l 357 507 l 382 428 l 33 908 q 22 945 21 926 q 36 976 22 964 q 72 989 50 989 q 107 980 92 989 q 135 951 122 971 l 431 543 l 401 543 l 697 951 q 726 981 713 972 q 760 989 740 989 q 794 977 782 989 q 808 947 807 965 q 794 907 808 928 l 447 428 l 471 507 l 471 51 q 414 -10 471 -10 m 365 1068 l 221 1239 q 209 1269 208 1254 q 219 1294 210 1283 q 244 1310 229 1306 q 274 1311 258 1315 q 301 1289 290 1307 l 425 1110 q 431 1082 435 1094 q 417 1062 428 1069 q 392 1055 406 1054 q 365 1068 378 1056 z "},"Ƴ":{"ha":851,"x_min":21,"x_max":933,"o":"m 414 -10 q 372 6 386 -10 q 357 53 357 22 l 357 507 l 382 428 l 33 908 q 22 945 21 926 q 37 976 24 964 q 72 989 50 989 q 99 985 89 989 q 118 973 110 982 q 139 947 126 964 l 431 543 l 403 543 l 638 879 q 695 942 664 917 q 763 978 726 967 q 842 990 800 990 q 909 981 885 990 q 933 939 933 971 q 928 917 933 926 q 915 904 924 908 q 896 900 907 900 q 877 902 889 901 q 858 903 865 903 q 792 887 825 903 q 731 833 758 871 l 447 428 l 471 507 l 471 53 q 414 -10 471 -10 z "},"Ỷ":{"ha":828,"x_min":21,"x_max":808,"o":"m 414 -10 q 372 6 386 -10 q 357 51 357 22 l 357 507 l 382 428 l 33 908 q 22 945 21 926 q 36 976 22 964 q 72 989 50 989 q 107 980 92 989 q 135 951 122 971 l 431 543 l 401 543 l 697 951 q 726 981 713 972 q 760 989 740 989 q 794 977 782 989 q 808 947 807 965 q 794 907 808 928 l 447 428 l 471 507 l 471 51 q 414 -10 471 -10 m 414 1053 q 385 1060 396 1053 q 375 1085 375 1068 q 388 1130 375 1113 q 419 1160 401 1147 q 449 1183 436 1172 q 463 1211 463 1194 q 447 1235 463 1226 q 399 1243 431 1243 q 371 1242 386 1243 q 342 1235 356 1240 q 309 1232 321 1229 q 293 1250 297 1235 q 294 1275 289 1264 q 317 1293 300 1286 q 366 1306 339 1301 q 421 1310 393 1310 q 519 1286 483 1310 q 554 1224 554 1263 q 539 1176 554 1194 q 503 1147 524 1158 q 468 1119 483 1135 q 453 1078 453 1104 q 443 1060 453 1067 q 414 1053 433 1053 z "},"Ȳ":{"ha":828,"x_min":21,"x_max":808,"o":"m 414 -10 q 372 6 386 -10 q 357 51 357 22 l 357 507 l 382 428 l 33 908 q 22 945 21 926 q 36 976 22 964 q 72 989 50 989 q 107 980 92 989 q 135 951 122 971 l 431 543 l 401 543 l 697 951 q 726 981 713 972 q 760 989 740 989 q 794 977 782 989 q 808 947 807 965 q 794 907 808 928 l 447 428 l 471 507 l 471 51 q 414 -10 471 -10 m 225 1131 q 185 1169 185 1131 q 195 1197 185 1188 q 225 1207 206 1207 l 603 1207 q 644 1169 644 1207 q 634 1141 644 1151 q 603 1131 624 1131 l 225 1131 z "},"Ỹ":{"ha":828,"x_min":21,"x_max":808,"o":"m 414 -10 q 372 6 386 -10 q 357 51 357 22 l 357 507 l 382 428 l 33 908 q 22 945 21 926 q 36 976 22 964 q 72 989 50 989 q 107 980 92 989 q 135 951 122 971 l 431 543 l 401 543 l 697 951 q 726 981 713 972 q 760 989 740 989 q 794 977 782 989 q 808 947 807 965 q 794 907 808 928 l 447 428 l 471 507 l 471 51 q 414 -10 471 -10 m 158 1083 q 134 1094 143 1083 q 128 1122 125 1104 q 185 1236 142 1196 q 290 1276 229 1276 q 361 1260 328 1276 q 426 1224 394 1244 q 485 1187 457 1203 q 542 1171 514 1171 q 603 1194 579 1171 q 633 1257 626 1218 q 647 1279 638 1272 q 669 1285 656 1286 q 694 1274 685 1285 q 700 1246 704 1264 q 644 1132 686 1172 q 539 1092 601 1092 q 467 1108 501 1092 q 403 1144 433 1124 q 343 1181 372 1164 q 286 1197 314 1197 q 226 1174 250 1197 q 194 1111 201 1150 q 181 1090 190 1097 q 158 1083 172 1082 z "},"Z":{"ha":818,"x_min":57,"x_max":797,"o":"m 119 0 q 83 9 97 0 q 64 34 69 18 q 63 70 58 50 q 85 111 68 90 l 663 925 l 663 881 l 111 881 q 71 894 85 881 q 57 931 57 907 q 71 967 57 954 q 111 979 85 979 l 714 979 q 751 970 736 979 q 770 946 765 961 q 770 910 775 931 q 750 868 765 889 l 172 56 l 172 99 l 743 99 q 783 86 769 99 q 797 50 797 74 q 783 13 797 25 q 743 0 769 0 l 119 0 z "},"Ź":{"ha":818,"x_min":57,"x_max":797,"o":"m 119 0 q 83 9 97 0 q 64 34 69 18 q 63 70 58 50 q 85 111 68 90 l 663 925 l 663 881 l 111 881 q 71 894 85 881 q 57 931 57 907 q 71 967 57 954 q 111 979 85 979 l 714 979 q 751 970 736 979 q 770 946 765 961 q 770 910 775 931 q 750 868 765 889 l 172 56 l 172 99 l 743 99 q 783 86 769 99 q 797 50 797 74 q 783 13 797 25 q 743 0 769 0 l 119 0 m 474 1068 q 448 1055 463 1056 q 422 1062 433 1054 q 408 1082 411 1069 q 414 1110 404 1094 l 538 1289 q 565 1311 550 1307 q 596 1310 581 1315 q 620 1294 611 1306 q 630 1269 629 1283 q 618 1239 631 1254 l 474 1068 z "},"Ž":{"ha":818,"x_min":57,"x_max":797,"o":"m 119 0 q 83 9 97 0 q 64 34 69 18 q 63 70 58 50 q 85 111 68 90 l 663 925 l 663 881 l 111 881 q 71 894 85 881 q 57 931 57 907 q 71 967 57 954 q 111 979 85 979 l 714 979 q 751 970 736 979 q 770 946 765 961 q 770 910 775 931 q 750 868 765 889 l 172 56 l 172 99 l 743 99 q 783 86 769 99 q 797 50 797 74 q 783 13 797 25 q 743 0 769 0 l 119 0 m 425 1050 q 386 1059 404 1050 q 354 1088 368 1068 l 232 1260 q 225 1287 222 1274 q 239 1307 228 1300 q 265 1312 250 1314 q 292 1296 279 1310 l 425 1136 l 560 1296 q 585 1312 571 1310 q 611 1307 600 1314 q 625 1287 622 1300 q 618 1260 628 1274 l 497 1088 q 465 1059 482 1068 q 425 1050 447 1050 z "},"Ż":{"ha":818,"x_min":57,"x_max":797,"o":"m 119 0 q 83 9 97 0 q 64 34 69 18 q 63 70 58 50 q 85 111 68 90 l 663 925 l 663 881 l 111 881 q 71 894 85 881 q 57 931 57 907 q 71 967 57 954 q 111 979 85 979 l 714 979 q 751 970 736 979 q 770 946 765 961 q 770 910 775 931 q 750 868 765 889 l 172 56 l 172 99 l 743 99 q 783 86 769 99 q 797 50 797 74 q 783 13 797 25 q 743 0 769 0 l 119 0 m 425 1115 q 375 1133 393 1115 q 357 1182 357 1150 q 375 1231 357 1214 q 425 1247 393 1247 q 476 1231 458 1247 q 493 1182 493 1214 q 476 1133 493 1150 q 425 1115 458 1115 z "},"Ẓ":{"ha":818,"x_min":57,"x_max":797,"o":"m 119 0 q 83 9 97 0 q 64 34 69 18 q 63 70 58 50 q 85 111 68 90 l 663 925 l 663 881 l 111 881 q 71 894 85 881 q 57 931 57 907 q 71 967 57 954 q 111 979 85 979 l 714 979 q 751 970 736 979 q 770 946 765 961 q 770 910 775 931 q 750 868 765 889 l 172 56 l 172 99 l 743 99 q 783 86 769 99 q 797 50 797 74 q 783 13 797 25 q 743 0 769 0 l 119 0 m 426 -265 q 376 -247 394 -265 q 358 -199 358 -229 q 376 -150 358 -167 q 426 -133 394 -133 q 478 -150 460 -133 q 496 -199 496 -167 q 478 -247 496 -229 q 426 -265 460 -265 z "},"a":{"ha":736,"x_min":75,"x_max":633,"o":"m 318 -12 q 194 15 249 -12 q 107 89 139 42 q 75 194 75 136 q 113 313 75 269 q 240 374 151 356 q 481 392 328 392 l 543 392 l 543 318 l 482 318 q 305 308 369 318 q 215 272 240 297 q 189 201 189 247 q 228 108 189 144 q 336 72 268 72 q 434 99 392 72 q 501 171 476 125 q 525 276 525 217 l 525 435 q 490 559 525 521 q 376 597 456 597 q 279 585 328 597 q 176 544 231 572 q 143 538 157 535 q 121 553 129 542 q 111 578 113 564 q 117 607 110 593 q 142 629 125 621 q 263 674 203 660 q 376 688 322 688 q 521 659 464 688 q 606 573 578 631 q 633 425 633 515 l 633 49 q 620 6 633 21 q 582 -10 607 -10 q 542 6 556 -10 q 528 49 528 21 l 528 157 l 540 157 q 498 67 529 104 q 421 8 467 29 q 318 -12 375 -12 z "},"á":{"ha":736,"x_min":75,"x_max":633,"o":"m 318 -12 q 194 15 249 -12 q 107 89 139 42 q 75 194 75 136 q 113 313 75 269 q 240 374 151 356 q 481 392 328 392 l 543 392 l 543 318 l 482 318 q 305 308 369 318 q 215 272 240 297 q 189 201 189 247 q 228 108 189 144 q 336 72 268 72 q 434 99 392 72 q 501 171 476 125 q 525 276 525 217 l 525 435 q 490 559 525 521 q 376 597 456 597 q 279 585 328 597 q 176 544 231 572 q 143 538 157 535 q 121 553 129 542 q 111 578 113 564 q 117 607 110 593 q 142 629 125 621 q 263 674 203 660 q 376 688 322 688 q 521 659 464 688 q 606 573 578 631 q 633 425 633 515 l 633 49 q 620 6 633 21 q 582 -10 607 -10 q 542 6 556 -10 q 528 49 528 21 l 528 157 l 540 157 q 498 67 529 104 q 421 8 467 29 q 318 -12 375 -12 m 424 772 q 400 756 414 758 q 374 760 386 754 q 356 779 361 767 q 358 808 350 792 l 475 1035 q 500 1060 485 1054 q 531 1062 515 1065 q 558 1047 547 1058 q 572 1021 569 1036 q 563 989 574 1006 l 424 772 z "},"ă":{"ha":736,"x_min":75,"x_max":633,"o":"m 318 -12 q 194 15 249 -12 q 107 89 139 42 q 75 194 75 136 q 113 313 75 269 q 240 374 151 356 q 481 392 328 392 l 543 392 l 543 318 l 482 318 q 305 308 369 318 q 215 272 240 297 q 189 201 189 247 q 228 108 189 144 q 336 72 268 72 q 434 99 392 72 q 501 171 476 125 q 525 276 525 217 l 525 435 q 490 559 525 521 q 376 597 456 597 q 279 585 328 597 q 176 544 231 572 q 143 538 157 535 q 121 553 129 542 q 111 578 113 564 q 117 607 110 593 q 142 629 125 621 q 263 674 203 660 q 376 688 322 688 q 521 659 464 688 q 606 573 578 631 q 633 425 633 515 l 633 49 q 620 6 633 21 q 582 -10 607 -10 q 542 6 556 -10 q 528 49 528 21 l 528 157 l 540 157 q 498 67 529 104 q 421 8 467 29 q 318 -12 375 -12 m 378 763 q 274 790 318 763 q 202 870 229 818 q 167 992 175 922 q 174 1024 164 1011 q 200 1036 183 1036 q 225 1028 215 1038 q 238 1000 235 1018 q 285 879 249 919 q 378 839 322 839 q 472 879 433 839 q 518 1000 510 919 q 531 1028 521 1018 q 556 1036 542 1038 q 582 1024 572 1036 q 589 992 592 1011 q 554 870 582 922 q 482 790 526 818 q 378 763 438 763 z "},"ắ":{"ha":736,"x_min":75,"x_max":633,"o":"m 318 -12 q 194 15 249 -12 q 107 89 139 42 q 75 194 75 136 q 113 313 75 269 q 240 374 151 356 q 481 392 328 392 l 543 392 l 543 318 l 482 318 q 305 308 369 318 q 215 272 240 297 q 189 201 189 247 q 228 108 189 144 q 336 72 268 72 q 434 99 392 72 q 501 171 476 125 q 525 276 525 217 l 525 435 q 490 559 525 521 q 376 597 456 597 q 279 585 328 597 q 176 544 231 572 q 143 538 157 535 q 121 553 129 542 q 111 578 113 564 q 117 607 110 593 q 142 629 125 621 q 263 674 203 660 q 376 688 322 688 q 521 659 464 688 q 606 573 578 631 q 633 425 633 515 l 633 49 q 620 6 633 21 q 582 -10 607 -10 q 542 6 556 -10 q 528 49 528 21 l 528 157 l 540 157 q 498 67 529 104 q 421 8 467 29 q 318 -12 375 -12 m 378 763 q 237 810 293 763 q 165 938 181 857 q 170 970 163 958 q 192 983 178 982 q 216 978 207 985 q 229 951 225 971 q 278 866 240 897 q 378 835 317 835 q 477 866 439 835 q 526 951 515 897 q 540 978 531 971 q 565 983 550 985 q 587 969 579 982 q 590 936 594 957 q 552 844 581 883 q 479 783 524 804 q 378 763 435 763 m 407 919 q 384 906 397 907 q 360 911 371 904 q 345 930 349 918 q 351 957 342 942 l 446 1110 q 471 1133 456 1128 q 501 1135 486 1139 q 525 1119 515 1131 q 535 1094 535 1108 q 524 1064 536 1079 l 407 919 z "},"ặ":{"ha":736,"x_min":75,"x_max":633,"o":"m 318 -12 q 194 15 249 -12 q 107 89 139 42 q 75 194 75 136 q 113 313 75 269 q 240 374 151 356 q 481 392 328 392 l 543 392 l 543 318 l 482 318 q 305 308 369 318 q 215 272 240 297 q 189 201 189 247 q 228 108 189 144 q 336 72 268 72 q 434 99 392 72 q 501 171 476 125 q 525 276 525 217 l 525 435 q 490 559 525 521 q 376 597 456 597 q 279 585 328 597 q 176 544 231 572 q 143 538 157 535 q 121 553 129 542 q 111 578 113 564 q 117 607 110 593 q 142 629 125 621 q 263 674 203 660 q 376 688 322 688 q 521 659 464 688 q 606 573 578 631 q 633 425 633 515 l 633 49 q 620 6 633 21 q 582 -10 607 -10 q 542 6 556 -10 q 528 49 528 21 l 528 157 l 540 157 q 498 67 529 104 q 421 8 467 29 q 318 -12 375 -12 m 372 -265 q 322 -247 340 -265 q 304 -199 304 -229 q 322 -150 304 -167 q 372 -133 340 -133 q 424 -150 406 -133 q 442 -199 442 -167 q 424 -247 442 -229 q 372 -265 406 -265 m 378 763 q 274 790 318 763 q 202 870 229 818 q 167 992 175 922 q 174 1024 164 1011 q 200 1036 183 1036 q 225 1028 215 1038 q 238 1000 235 1018 q 285 879 249 919 q 378 839 322 839 q 472 879 433 839 q 518 1000 510 919 q 531 1028 521 1018 q 556 1036 542 1038 q 582 1024 572 1036 q 589 992 592 1011 q 554 870 582 922 q 482 790 526 818 q 378 763 438 763 z "},"ằ":{"ha":736,"x_min":75,"x_max":633,"o":"m 318 -12 q 194 15 249 -12 q 107 89 139 42 q 75 194 75 136 q 113 313 75 269 q 240 374 151 356 q 481 392 328 392 l 543 392 l 543 318 l 482 318 q 305 308 369 318 q 215 272 240 297 q 189 201 189 247 q 228 108 189 144 q 336 72 268 72 q 434 99 392 72 q 501 171 476 125 q 525 276 525 217 l 525 435 q 490 559 525 521 q 376 597 456 597 q 279 585 328 597 q 176 544 231 572 q 143 538 157 535 q 121 553 129 542 q 111 578 113 564 q 117 607 110 593 q 142 629 125 621 q 263 674 203 660 q 376 688 322 688 q 521 659 464 688 q 606 573 578 631 q 633 425 633 515 l 633 49 q 620 6 633 21 q 582 -10 607 -10 q 542 6 556 -10 q 528 49 528 21 l 528 157 l 540 157 q 498 67 529 104 q 421 8 467 29 q 318 -12 375 -12 m 378 763 q 237 809 293 763 q 165 936 181 856 q 169 969 163 957 q 190 983 176 982 q 215 978 206 985 q 229 951 225 971 q 278 866 240 897 q 378 835 317 835 q 477 866 439 835 q 526 951 515 897 q 540 978 531 971 q 564 983 550 985 q 587 970 579 982 q 590 938 594 958 q 552 844 581 885 q 479 783 524 804 q 378 763 435 763 m 349 919 l 232 1064 q 220 1094 219 1079 q 231 1119 221 1108 q 255 1135 240 1131 q 285 1133 269 1139 q 310 1110 300 1128 l 404 957 q 410 930 414 942 q 396 911 407 918 q 372 906 385 904 q 349 919 358 907 z "},"ẳ":{"ha":736,"x_min":75,"x_max":633,"o":"m 318 -12 q 194 15 249 -12 q 107 89 139 42 q 75 194 75 136 q 113 313 75 269 q 240 374 151 356 q 481 392 328 392 l 543 392 l 543 318 l 482 318 q 305 308 369 318 q 215 272 240 297 q 189 201 189 247 q 228 108 189 144 q 336 72 268 72 q 434 99 392 72 q 501 171 476 125 q 525 276 525 217 l 525 435 q 490 559 525 521 q 376 597 456 597 q 279 585 328 597 q 176 544 231 572 q 143 538 157 535 q 121 553 129 542 q 111 578 113 564 q 117 607 110 593 q 142 629 125 621 q 263 674 203 660 q 376 688 322 688 q 521 659 464 688 q 606 573 578 631 q 633 425 633 515 l 633 49 q 620 6 633 21 q 582 -10 607 -10 q 542 6 556 -10 q 528 49 528 21 l 528 157 l 540 157 q 498 67 529 104 q 421 8 467 29 q 318 -12 375 -12 m 378 763 q 237 809 293 763 q 165 936 181 856 q 169 969 163 957 q 190 983 176 982 q 215 978 206 985 q 229 951 225 971 q 278 866 240 897 q 378 835 317 835 q 477 866 439 835 q 526 951 515 897 q 540 978 531 971 q 564 983 550 985 q 587 970 579 982 q 590 938 594 958 q 552 844 581 885 q 479 783 524 804 q 378 763 435 763 m 401 915 q 376 910 389 908 q 357 918 364 911 q 351 934 350 925 q 364 951 351 943 q 410 990 396 972 q 425 1031 425 1008 q 410 1060 425 1051 q 364 1069 396 1069 q 338 1068 351 1069 q 308 1063 324 1067 q 281 1062 292 1058 q 267 1078 271 1065 q 268 1101 263 1092 q 290 1115 274 1110 q 336 1126 313 1124 q 383 1129 360 1129 q 476 1109 443 1129 q 508 1049 508 1089 q 493 995 508 1019 q 453 951 478 971 q 401 915 429 931 z "},"ẵ":{"ha":736,"x_min":75,"x_max":633,"o":"m 318 -12 q 194 15 249 -12 q 107 89 139 42 q 75 194 75 136 q 113 313 75 269 q 240 374 151 356 q 481 392 328 392 l 543 392 l 543 318 l 482 318 q 305 308 369 318 q 215 272 240 297 q 189 201 189 247 q 228 108 189 144 q 336 72 268 72 q 434 99 392 72 q 501 171 476 125 q 525 276 525 217 l 525 435 q 490 559 525 521 q 376 597 456 597 q 279 585 328 597 q 176 544 231 572 q 143 538 157 535 q 121 553 129 542 q 111 578 113 564 q 117 607 110 593 q 142 629 125 621 q 263 674 203 660 q 376 688 322 688 q 521 659 464 688 q 606 573 578 631 q 633 425 633 515 l 633 49 q 620 6 633 21 q 582 -10 607 -10 q 542 6 556 -10 q 528 49 528 21 l 528 157 l 540 157 q 498 67 529 104 q 421 8 467 29 q 318 -12 375 -12 m 378 763 q 250 795 304 763 q 174 881 196 828 q 171 912 165 900 q 190 926 176 924 q 217 926 207 931 q 235 906 226 921 q 290 854 253 874 q 378 835 326 835 q 467 854 431 835 q 521 906 503 874 q 539 926 529 921 q 565 926 549 931 q 585 912 579 924 q 582 881 592 900 q 506 795 560 828 q 378 763 453 763 m 190 983 q 169 996 176 985 q 165 1025 161 1007 q 210 1102 178 1076 q 289 1128 242 1128 q 356 1110 326 1128 q 411 1073 385 1092 q 465 1054 438 1054 q 506 1065 489 1054 q 528 1100 522 1076 q 542 1123 532 1115 q 567 1129 551 1131 q 588 1117 581 1128 q 592 1088 596 1107 q 547 1010 579 1036 q 468 985 514 985 q 401 1003 431 985 q 345 1040 371 1022 q 290 1058 319 1058 q 251 1048 267 1058 q 228 1013 235 1038 q 215 990 224 997 q 190 983 206 982 z "},"ǎ":{"ha":736,"x_min":75,"x_max":633,"o":"m 318 -12 q 194 15 249 -12 q 107 89 139 42 q 75 194 75 136 q 113 313 75 269 q 240 374 151 356 q 481 392 328 392 l 543 392 l 543 318 l 482 318 q 305 308 369 318 q 215 272 240 297 q 189 201 189 247 q 228 108 189 144 q 336 72 268 72 q 434 99 392 72 q 501 171 476 125 q 525 276 525 217 l 525 435 q 490 559 525 521 q 376 597 456 597 q 279 585 328 597 q 176 544 231 572 q 143 538 157 535 q 121 553 129 542 q 111 578 113 564 q 117 607 110 593 q 142 629 125 621 q 263 674 203 660 q 376 688 322 688 q 521 659 464 688 q 606 573 578 631 q 633 425 633 515 l 633 49 q 620 6 633 21 q 582 -10 607 -10 q 542 6 556 -10 q 528 49 528 21 l 528 157 l 540 157 q 498 67 529 104 q 421 8 467 29 q 318 -12 375 -12 m 378 747 q 339 759 356 747 q 310 793 322 771 l 194 1003 q 191 1033 186 1019 q 208 1052 196 1046 q 233 1056 219 1058 q 254 1039 246 1053 l 378 840 l 501 1039 q 523 1056 510 1053 q 548 1052 536 1058 q 565 1033 560 1046 q 561 1003 569 1019 l 446 793 q 417 759 433 771 q 378 747 400 747 z "},"â":{"ha":736,"x_min":75,"x_max":633,"o":"m 318 -12 q 194 15 249 -12 q 107 89 139 42 q 75 194 75 136 q 113 313 75 269 q 240 374 151 356 q 481 392 328 392 l 543 392 l 543 318 l 482 318 q 305 308 369 318 q 215 272 240 297 q 189 201 189 247 q 228 108 189 144 q 336 72 268 72 q 434 99 392 72 q 501 171 476 125 q 525 276 525 217 l 525 435 q 490 559 525 521 q 376 597 456 597 q 279 585 328 597 q 176 544 231 572 q 143 538 157 535 q 121 553 129 542 q 111 578 113 564 q 117 607 110 593 q 142 629 125 621 q 263 674 203 660 q 376 688 322 688 q 521 659 464 688 q 606 573 578 631 q 633 425 633 515 l 633 49 q 620 6 633 21 q 582 -10 607 -10 q 542 6 556 -10 q 528 49 528 21 l 528 157 l 540 157 q 498 67 529 104 q 421 8 467 29 q 318 -12 375 -12 m 561 808 q 565 778 569 792 q 548 760 560 765 q 523 756 536 754 q 501 772 510 758 l 378 971 l 254 772 q 233 756 246 758 q 208 760 219 754 q 191 778 196 765 q 194 808 186 792 l 310 1019 q 339 1053 322 1042 q 378 1064 356 1064 q 417 1053 400 1064 q 446 1019 433 1042 l 561 808 z "}}}
